<?xml version="1.0" standalone="no"?>
<!DOCTYPE svg PUBLIC "-//W3C//DTD SVG 1.1//EN" "http://www.w3.org/Graphics/SVG/1.1/DTD/svg11.dtd" >
<svg>
<metadata>
Created by FontForge 20090914 at Wed Sep 14 12:09:27 2016
 By www-data
Copyright (c) 1990-2001 ParaType, Inc. All Rights Reserved. ITC Officina is a registered trade mark of International Typeface Corporation.
</metadata>
<defs>
<font id="OfficinaSansMediumC" horiz-adv-x="522" >
  <font-face 
    font-family="OfficinaSansMediumC"
    font-weight="500"
    font-stretch="normal"
    units-per-em="1000"
    panose-1="0 0 6 0 0 0 0 0 0 0"
    ascent="753"
    descent="-247"
    x-height="488.001"
    cap-height="686"
    bbox="-67.998 -247.132 905 896.001"
    underline-thickness="50"
    underline-position="-50"
    unicode-range="U+0020-U+F6D4"
  />
<missing-glyph horiz-adv-x="233" 
 />
    <glyph glyph-name=".notdef" horiz-adv-x="233" 
 />
    <glyph glyph-name="space" unicode=" " horiz-adv-x="233" 
 />
    <glyph glyph-name="space" unicode="&#xa0;" horiz-adv-x="233" 
 />
    <glyph glyph-name="exclam" unicode="!" horiz-adv-x="351" 
d="M236 674l-22 -398c-0.666992 -7.33301 -2 -12 -4 -14s-6.66699 -3 -14 -3h-44c-6.66699 0 -11 1 -13 3s-3.33301 6.66699 -4 14l-23 398c-0.666992 7.33301 0 12.166 2 14.499s6.66699 3.5 14 3.5h91c8 0 13 -1.16699 15 -3.5s2.66699 -7.16602 2 -14.499zM253 58
c0 -21.333 -7.5 -39.833 -22.5 -55.5s-33.167 -23.5 -54.5 -23.5s-39.5 7.83301 -54.5 23.5s-22.5 34.167 -22.5 55.5s7.5 39.5 22.5 54.5s33.167 22.5 54.5 22.5s39.5 -7.5 54.5 -22.5s22.5 -33.167 22.5 -54.5z" />
    <glyph glyph-name="quotedbl" unicode="&#x22;" horiz-adv-x="383" 
d="M329 670l-15.9971 -242.001c-0.666992 -7.33301 -2 -12.166 -4 -14.499s-6.66699 -3.5 -14 -3.5h-41c-7.33301 0 -11.833 1 -13.5 3s-2.83398 7 -3.50098 15l-16 242c-0.666992 6.66699 0.166016 11 2.49902 13s7.16602 3 14.499 3h75c7.33301 0 12 -0.833008 14 -2.5
s2.66699 -6.16699 2 -13.5zM163.003 669.999l-16 -242.001c-0.666992 -7.33301 -2 -12.166 -4 -14.499s-6.66699 -3.5 -14 -3.5h-41c-7.33301 0 -11.666 1 -12.999 3s-2.33301 7 -3 15l-17 242c-0.666992 6.66699 0.166016 11 2.49902 13s7.5 3 15.5 3h74
c7.33301 0 12 -0.833008 14 -2.5s2.66699 -6.16699 2 -13.5z" />
    <glyph glyph-name="numbersign" unicode="#" horiz-adv-x="526" 
d="M482 395c0 -7.33301 -1.00098 -11.999 -3.00098 -13.999s-6.66699 -3 -14 -3h-61l-19 -184h53c7.33301 0 12 -1.16699 14 -3.5s3 -7.16602 3 -14.499v-44c0 -7.33301 -1 -12 -3 -14s-6.66699 -3 -14 -3h-61l-19 -179c-0.666992 -10.667 -6.66699 -16 -18 -16h-42
c-8 0 -13 1.16699 -15 3.5s-2.33301 7.16602 -1 14.499l19 177h-114l-19 -179c-0.666992 -10.667 -6.66699 -16 -18 -16h-41c-7.33301 0 -12 1.16699 -14 3.5s-2.66699 7.16602 -2 14.499l18 177h-49c-7.33301 0 -12.166 1 -14.499 3s-3.5 6.66699 -3.5 14v44
c0 7.33301 1.16699 12.166 3.5 14.499s7.16602 3.5 14.499 3.5h58l19 184h-50c-7.33301 0 -12.166 1 -14.499 3s-3.5 6.66699 -3.5 14v47c0 7.33301 1.16699 12 3.5 14s7.16602 3 14.499 3h59l19 183c0.666992 6.66699 2 11 4 13s6.33301 3 13 3h42
c7.33301 0 12 -1.16699 14 -3.5s2.66699 -7.16602 2 -14.499l-19 -181h114l20 183c0.666992 6.66699 2 11 4 13s6.33301 3 13 3h41c12.667 0 18.334 -6 17.001 -18l-19 -181h52c7.33301 0 12 -1 14 -3s3 -6.66699 3 -14v-47zM327.999 378.001h-114l-18 -184h114z" />
    <glyph glyph-name="dollar" unicode="$" horiz-adv-x="531" 
d="M467 177c0 -49.333 -15.168 -91.1689 -45.501 -125.502s-70.5 -55.166 -120.5 -62.499v-55c0 -7.33301 -1 -12 -3 -14s-6.66699 -3 -14 -3h-23c-7.33301 0 -12 1 -14 3s-3 6.66699 -3 14v52c-56.667 3.33301 -109.667 16.666 -159 39.999c-8 4 -12.5 7.5 -13.5 10.5
s-0.166992 7.83301 2.5 14.5l21 59c3.33301 10 11.333 11.667 24 5c44.667 -23.333 86.334 -36.666 125.001 -39.999v223c-55.333 29.333 -90.666 50.333 -105.999 63c-40 32.667 -60 75.334 -60 128.001c0 48 15 87.5 45 118.5s70.333 49.833 121 56.5v55
c0 7.33301 1 12 3 14s6.66699 3 14 3h23c7.33301 0 12 -1 14 -3s3 -6.66699 3 -14v-52c51.333 -3.33301 96 -15.333 134 -36c8 -4 12.5 -8 13.5 -12s-0.166992 -9.33301 -3.5 -16l-21 -51c-1.33301 -4 -2.83301 -6.83301 -4.5 -8.5s-4.16699 -2 -7.5 -1
s-5.66602 1.83301 -6.99902 2.5s-4.33301 2.33398 -9 5.00098c-29.333 16.667 -61 27 -95 31v-207c26.667 -12.667 48.167 -24 64.5 -34s33.166 -22.833 50.499 -38.5s30.166 -33.834 38.499 -54.501s12.5 -44 12.5 -70zM246.999 393.997v185.999
c-47.333 -9.33301 -71 -37.333 -71 -84c0 -22 5.33301 -40.667 16 -56s29 -30.666 55 -45.999zM368.999 169.996c0 23.333 -5.33301 43.332 -16 59.999s-29 33 -55 49v-204c22.667 5.33301 40.167 16.333 52.5 33s18.5 37.334 18.5 62.001z" />
    <glyph glyph-name="percent" unicode="%" horiz-adv-x="804" 
d="M762 167c0 -55.333 -12.832 -98.998 -38.499 -130.998s-61.167 -48 -106.5 -48c-44.667 0 -79.334 14.667 -104.001 44s-37 70.666 -37 123.999c0 55.333 13.167 99 39.5 131s61.833 48 106.5 48c43.333 0 77.5 -14.833 102.5 -44.5s37.5 -70.834 37.5 -123.501z
M579.001 650.002l-277.999 -665c-4 -10 -10.667 -15 -20 -15h-45c-9.33301 0 -14.833 1.83301 -16.5 5.5s-0.833984 9.16699 2.49902 16.5l277 664c3.33301 8.66699 9.66602 13 18.999 13h47c9.33301 0 14.833 -1.5 16.5 -4.5s0.833984 -7.83301 -2.49902 -14.5z
M328.002 490.002c0 -56 -12.667 -100 -38 -132s-61 -48 -107 -48c-44.667 0 -79.167 14.667 -103.5 44s-36.5 71 -36.5 125c0 55.333 13 99 39 131s61.333 48 106 48c43.333 0 77.5 -15 102.5 -45s37.5 -71 37.5 -123zM682.002 163.002
c0 72.667 -20.333 108.999 -61 108.999c-20.667 0 -36.5 -9.66699 -47.5 -29s-16.5 -46.666 -16.5 -81.999c0 -72.667 20 -109 60 -109c43.333 0 65 37 65 111zM248.002 484.001c0 73.333 -20.333 110.001 -61 110.001c-20 0 -35.667 -9.83301 -47 -29.5
s-17 -46.834 -17 -81.501c0 -72.667 20 -109 60 -109c43.333 0 65 36.667 65 110z" />
    <glyph glyph-name="ampersand" unicode="&#x26;" horiz-adv-x="619" 
d="M588 25l-45.999 -36.998c-4.66699 -4 -8.66699 -6 -12 -6s-7.33301 2.66699 -12 8l-58 65c-30 -26.667 -59.5 -45.334 -88.5 -56.001s-62.833 -16 -101.5 -16c-66 0 -118.667 16.667 -158 50s-59 78.333 -59 135c0 44 12 80.5 36 109.5s58.333 57.5 103 85.5
c-34 40 -57.333 72.5 -70 97.5s-19 50.167 -19 75.5c0 47.333 17.833 86.833 53.5 118.5s80.167 47.5 133.5 47.5c49.333 0 89.166 -14.167 119.499 -42.5s45.5 -65.5 45.5 -111.5c0 -40.667 -11.5 -75.334 -34.5 -104.001s-55.5 -58 -97.5 -88l136 -157
c4.66699 8 8.66699 17.167 12 27.5s5.83301 19.166 7.5 26.499s3.83398 18.5 6.50098 33.5s4.66699 25.5 6 31.5c0 1.33301 0.166992 3.33301 0.5 6s0.666016 4.5 0.999023 5.5s0.833008 2.33301 1.5 4s2 2.33398 4 2.00098s4.66699 -0.5 8 -0.5l62 -10
c7.33301 -0.666992 11 -6 11 -16c0 -26 -5.66699 -56 -17 -90s-25.333 -63.667 -42 -89l67 -81c8.66699 -9.33301 9 -17.333 1 -24zM358.001 541.002c0 24.667 -6.83301 44.168 -20.5 58.501s-32.167 21.5 -55.5 21.5s-42.833 -7.5 -58.5 -22.5s-23.5 -33.833 -23.5 -56.5
c0 -6 0.333008 -11.667 1 -17s2.16699 -11 4.5 -17l6 -15c1.66699 -4 4.5 -9.16699 8.5 -15.5s6.83301 -11 8.5 -14s5.16699 -7.66699 10.5 -14l10.5 -12.5l11.5 -13.5c6 -7 9.66699 -11.167 11 -12.5c31.333 24.667 53.5 46.667 66.5 66s19.5 40.666 19.5 63.999z
M401.001 122.003l-157 185.001c-30.667 -22.667 -52.167 -43.667 -64.5 -63s-18.5 -41.333 -18.5 -66c0 -32.667 11 -59.334 33 -80.001s50 -31 84 -31c45.333 0 86.333 18.333 123 55z" />
    <glyph glyph-name="quotesingle" unicode="'" horiz-adv-x="217" 
d="M163 670l-16 -242.001c-0.666992 -7.33301 -2 -12.166 -4 -14.499s-6.66699 -3.5 -14 -3.5h-41c-7.33301 0 -11.666 1 -12.999 3s-2.33301 7 -3 15l-17 242c-0.666992 6.66699 0.166016 11 2.49902 13s7.5 3 15.5 3h74c7.33301 0 12 -0.833008 14 -2.5
s2.66699 -6.16699 2 -13.5z" />
    <glyph glyph-name="parenleft" unicode="(" horiz-adv-x="415" 
d="M362 -215l-46 -30.001c-6.66699 -4.66699 -14.667 -1.66699 -24 9c-125.333 151.333 -188 312.333 -188 483c0 166 63 327 189 483c8 10 15.667 13 23 9l43 -24c9.33301 -5.33301 10.333 -13.333 3 -24c-55.333 -82.667 -94.333 -154.167 -117 -214.5
s-34 -136.833 -34 -229.5c0 -155.333 48.667 -300.666 146 -435.999c10 -13.333 11.667 -22 5 -26z" />
    <glyph glyph-name="parenright" unicode=")" horiz-adv-x="422" 
d="M320 247c0 -168.667 -63.333 -329.667 -190 -483c-9.33301 -10.667 -17 -13.667 -23 -9l-46 30c-6.66699 4 -5 12.667 5 26c98 136.667 147 282 147 436c0 92 -11.5 168 -34.5 228s-62.5 132 -118.5 216c-8 11.333 -7 19.333 3 24l45 24
c6.66699 3.33301 13.667 0.333008 21 -9c127.333 -157.333 191 -318.333 191 -483z" />
    <glyph glyph-name="asterisk" unicode="*" horiz-adv-x="531" 
d="M442 542c3.33301 -7.33301 4.66699 -12.999 4 -16.999s-5.33398 -6.66699 -14.001 -8l-120 -21l84 -88c5.33301 -4.66699 7.83301 -8.66699 7.5 -12s-3.5 -7.33301 -9.5 -12l-39 -29c-6.66699 -5.33301 -11.834 -8 -15.501 -8s-8.16699 3.66699 -13.5 11l-58 106
l-57 -106c-2.66699 -5.33301 -5.5 -8.66602 -8.5 -9.99902s-5.66699 -1.33301 -8 0s-6.5 4 -12.5 8l-39 28c-10 6.66699 -10.667 14.667 -2 24l83 88l-118 22c-13.333 2 -17.333 10.333 -12 25l16 47c2.66699 8 6.16699 12.333 10.5 13s9.5 -1 15.5 -5l105 -50l-15 120
c-1.33301 7.33301 -1.16602 12.166 0.500977 14.499s6.5 3.5 14.5 3.5h55c8.66699 0 13.667 -2 15 -6s1 -9.66699 -1 -17l-14 -116l105 51c6 4 11.333 5.66699 16 5s8.33398 -5.33398 11.001 -14.001z" />
    <glyph glyph-name="plus" unicode="+" horiz-adv-x="526" 
d="M491 227c0 -7.33301 -1 -12 -3 -14s-6.66699 -3 -14 -3h-166v-166c0 -7.33301 -1 -12 -3 -14s-6.66699 -3 -14 -3h-57c-6.66699 0 -11.167 1.16699 -13.5 3.5s-3.5 6.83301 -3.5 13.5v166h-165c-7.33301 0 -12 1 -14 3s-3 6.66699 -3 14v55c0 7.33301 1 12 3 14
s6.66699 3 14 3h165v167c0 7.33301 1 11.833 3 13.5s6.66699 2.5 14 2.5h57c7.33301 0 12 -0.833008 14 -2.5s3 -6.16699 3 -13.5v-167h166c7.33301 0 12 -1 14 -3s3 -6.66699 3 -14v-55z" />
    <glyph glyph-name="comma" unicode="," horiz-adv-x="285" 
d="M221 97l-116 -216c-4 -6.66699 -7.16699 -10.5 -9.5 -11.5s-6.5 -0.166992 -12.5 2.5l-32 11l-7.5 3c-1.66699 0.666992 -2.66699 2 -3 4s-0.333008 3.5 0 4.5s1.16602 3.83301 2.49902 8.5l59 203c2.66699 8.66699 9.33398 13 20.001 13h88c10 0 15.5 -2 16.5 -6
s-0.833008 -9.33301 -5.5 -16z" />
    <glyph glyph-name="hyphen" unicode="-" horiz-adv-x="369" 
d="M327 224c0 -7.33301 -0.832031 -11.833 -2.49902 -13.5s-6.16699 -2.5 -13.5 -2.5h-251c-8 0 -13 0.833008 -15 2.5s-3 6.16699 -3 13.5v64c0 6.66699 1.16699 11 3.5 13s7.16602 3 14.499 3h251c7.33301 0 11.833 -0.833008 13.5 -2.5s2.5 -6.16699 2.5 -13.5v-64z" />
    <glyph glyph-name="hyphen" unicode="&#xad;" horiz-adv-x="369" 
d="M327 224c0 -7.33301 -0.832031 -11.833 -2.49902 -13.5s-6.16699 -2.5 -13.5 -2.5h-251c-8 0 -13 0.833008 -15 2.5s-3 6.16699 -3 13.5v64c0 6.66699 1.16699 11 3.5 13s7.16602 3 14.499 3h251c7.33301 0 11.833 -0.833008 13.5 -2.5s2.5 -6.16699 2.5 -13.5v-64z" />
    <glyph glyph-name="period" unicode="." horiz-adv-x="304" 
d="M234 68c0 -22.667 -8 -42 -24 -58s-35.333 -24 -58 -24s-42 8 -58 24s-24 35.333 -24 58s8 42 24 58s35.333 24 58 24s42 -8 58 -24s24 -35.333 24 -58z" />
    <glyph glyph-name="slash" unicode="/" horiz-adv-x="513" 
d="M31 -66l331 824c4 8.66699 11 13 21 13h62c8 0 12.667 -1.5 14 -4.5s0.666016 -7.83301 -2.00098 -14.5l-331 -823c-3.33301 -9.33301 -10.666 -14 -21.999 -14h-62c-8 0 -12.667 1.5 -14 4.5s-0.333008 7.83301 3 14.5z" />
    <glyph glyph-name="zero" unicode="0" horiz-adv-x="518" 
d="M481 338c0 -235.333 -75 -353 -225 -353c-70 0 -124 29.333 -162 88s-57 142 -57 250c0 112.667 20.333 199 61 259s96.667 90 168 90c69.333 0 122.5 -29 159.5 -87s55.5 -140.333 55.5 -247zM375 323c0 93.333 -8.83301 160 -26.5 200s-46.167 60 -85.5 60
c-80 0 -120 -85.333 -120 -256c0 -168.667 38.667 -253 116 -253c42 0 71.833 20 89.5 60s26.5 103 26.5 189z" />
    <glyph glyph-name="one" unicode="1" horiz-adv-x="518" 
d="M434 17c0 -7.33301 -1.16797 -12 -3.50098 -14s-7.16602 -3 -14.499 -3h-278c-7.33301 0 -12.166 1 -14.499 3s-3.5 6.66699 -3.5 14v47c0 7.33301 1 12 3 14s6.66699 3 14 3h98v450l-121 -66c-6.66699 -3.33301 -10.667 -5 -12 -5c-2 0 -5.66699 3.66699 -11 11l-19 33
c-3.33301 6.66699 -5 10.667 -5 12c0 3.33301 3.33301 7.33301 10 12l183 128h61c7.33301 0 12 -1 14 -3s3 -6.66699 3 -14v-558h78c7.33301 0 12.166 -1 14.499 -3s3.5 -6.66699 3.5 -14v-47z" />
    <glyph glyph-name="two" unicode="2" horiz-adv-x="518" 
d="M458 486c0 -42.667 -9.5 -79.334 -28.5 -110.001s-51.5 -62.667 -97.5 -96c-52 -39.333 -87.833 -71.5 -107.5 -96.5s-31.167 -55.167 -34.5 -90.5h247c7.33301 0 12.166 -1.16699 14.499 -3.5s3.5 -7.16602 3.5 -14.499v-58c0 -7.33301 -1.16699 -12 -3.5 -14
s-7.16602 -3 -14.499 -3h-347c-6 -0 -9.83301 0.833008 -11.5 2.5s-2.5 5.83398 -2.5 12.501v27c0.666992 47.333 9.5 89.666 26.5 126.999s37 67.833 60 91.5s54.5 49.834 94.5 78.501c40 29.333 66.667 53.833 80 73.5s20 44.167 20 73.5s-8 52.333 -24 69s-38 25 -66 25
c-26 0 -47.167 -6.83301 -63.5 -20.5s-30.833 -37.167 -43.5 -70.5c-2.66699 -8.66699 -6.66699 -13 -12 -13c-0.666992 0 -3.66699 0.666992 -9 2l-55 19c-6 2 -9 6 -9 12c0 11.333 6.66699 29.666 20 54.999c38 72 97.667 108 179 108c57.333 0 102.333 -16.5 135 -49.5
s49 -78.5 49 -136.5z" />
    <glyph glyph-name="three" unicode="3" horiz-adv-x="518" 
d="M458 184c0 -58.667 -20.5 -106.332 -61.5 -142.999s-94.167 -55 -159.5 -55c-30 0 -66.833 5.16699 -110.5 15.5s-65.5 21.5 -65.5 33.5c0 2 0.333008 4 1 6l19 57c2 4.66699 6 7 12 7h2c0.666992 0 1.66699 0.333008 3 1c2 0 6.33301 -1.66699 13 -5
c40.667 -19.333 80.667 -29 120 -29c38.667 0 68.5 10.167 89.5 30.5s31.5 49.166 31.5 86.499c0 74 -44.667 111 -134 111h-34c-7.33301 0 -12 1.16699 -14 3.5s-3 7.16602 -3 14.499v53c0 7.33301 1 12.166 3 14.499s6.66699 3.5 14 3.5h35
c35.333 0 63.666 9.33301 84.999 28s32 45.334 32 80.001c0 26.667 -8.16699 48.334 -24.5 65.001s-37.833 25 -64.5 25c-20 0 -37.333 -4.33301 -52 -13s-30.334 -22.667 -47.001 -42c-5.33301 -5.33301 -9.66602 -8 -12.999 -8c-2.66699 0 -4.66699 0.666992 -6 2l-48 42
c-2.66699 2 -4 4.66699 -4 8c0 4.66699 2 9 6 13c44 55.333 100.333 83 169 83c54.667 0 98.834 -15.667 132.501 -47s50.5 -72.333 50.5 -123c0 -70 -32.667 -119.333 -98 -148c80.667 -26 121 -82.667 121 -170z" />
    <glyph glyph-name="four" unicode="4" horiz-adv-x="518" 
d="M490 154c0 -7.33301 -1.00098 -11.999 -3.00098 -13.999s-6.66699 -3 -14 -3h-69v-136c0 -7.33301 -0.833008 -11.833 -2.5 -13.5s-6.16699 -2.5 -13.5 -2.5h-67c-7.33301 0 -12 0.833008 -14 2.5s-3 6.16699 -3 13.5v136h-251c-7.33301 0 -11.833 0.833008 -13.5 2.5
s-2.5 6.16699 -2.5 13.5v83l252 426c4.66699 8 9 12 13 12c2 0 5 -1 9 -3l61 -24c10 -4 15 -8 15 -12c0 -2 -1.66699 -5.66699 -5 -11l-250 -404h173l13 161c0.666992 7.33301 1.83398 11.833 3.50098 13.5s6.16699 2.5 13.5 2.5h53c6.66699 0 11 -1 13 -3s3 -6.66699 3 -14
v-161h69c7.33301 0 12 -0.833008 14 -2.5s3 -6.83398 3 -15.501v-47z" />
    <glyph glyph-name="five" unicode="5" horiz-adv-x="518" 
d="M468 220c0 -74 -22.168 -132.998 -66.501 -176.998s-103.833 -66 -178.5 -66c-25.333 0 -57 3.66699 -95 11s-57 15.666 -57 24.999c0 3.33301 0.333008 6 1 8l12 62c0.666992 5.33301 4.33398 8 11.001 8c1.33301 0 6 -1 14 -3c40 -12.667 77.667 -19 113 -19
c46.667 0 83 13.167 109 39.5s39 62.833 39 109.5c0 38 -9.16699 67.333 -27.5 88s-43.833 31 -76.5 31c-40 0 -76.333 -17.667 -109 -53c-3.33301 -3.33301 -7 -5 -11 -5c-2.66699 0 -5 0.333008 -7 1l-53 16c-6 1.33301 -9 5.66602 -9 12.999l31 331
c0.666992 7.33301 2 11.833 4 13.5s6.33301 2.5 13 2.5h278c7.33301 0 12 -1 14 -3s3 -7.33301 3 -16v-54c0 -7.33301 -1 -12 -3 -14s-6.66699 -3 -14 -3h-209l-19 -178c31.333 23.333 68.333 35 111 35c54.667 0 98.667 -18.5 132 -55.5s50 -86.167 50 -147.5z" />
    <glyph glyph-name="six" unicode="6" horiz-adv-x="518" 
d="M468 224c0 -71.333 -19.0039 -129 -57.0039 -173s-87.333 -66 -148 -66c-65.333 0 -115.166 24.333 -149.499 73s-51.5 119 -51.5 211c0 122 26 219.5 78 292.5s121.333 109.5 208 109.5c24 0 45.667 -2.83301 65 -8.5s29 -11.5 29 -17.5v-1
c-0.666992 -1.33301 -1 -2.33301 -1 -3l-17 -62c-2 -4.66699 -4.66699 -7 -8 -7c-1.33301 0 -5 1 -11 3c-19.333 7.33301 -39 11 -59 11c-45.333 0 -83.166 -16.667 -113.499 -50s-51.166 -81 -62.499 -143c32.667 40 73.334 60 122.001 60
c56.667 0 100.167 -21.667 130.5 -65s45.5 -98 45.5 -164zM366.996 225c0 44.667 -8.5 79.167 -25.5 103.5s-41.167 36.5 -72.5 36.5c-32 0 -56.333 -12 -73 -36s-25 -58 -25 -102c0 -50 8.16699 -88.5 24.5 -115.5s39.833 -40.5 70.5 -40.5c31.333 0 56 13.5 74 40.5
s27 64.833 27 113.5z" />
    <glyph glyph-name="seven" unicode="7" horiz-adv-x="518" 
d="M459 608l-229.999 -609.001c-2.66699 -6 -5.16699 -9.5 -7.5 -10.5s-6.83301 -0.833008 -13.5 0.5l-64 11c-7.33301 1.33301 -11.333 3.33301 -12 6s0.333008 7.33398 3 14.001l208 542h-252c-7.33301 0 -12 0.833008 -14 2.5s-3 6.16699 -3 13.5v61c0 7.33301 1 12 3 14
s6.66699 3 14 3h350c7.33301 0 12.166 -1 14.499 -3s3.5 -6.66699 3.5 -14v-31z" />
    <glyph glyph-name="eight" unicode="8" horiz-adv-x="518" 
d="M481 171c0 -59.333 -21.332 -105.501 -63.999 -138.501s-95.667 -49.5 -159 -49.5c-67.333 0 -121 16.833 -161 50.5s-60 78.834 -60 135.501c0 82 48.333 140.667 145 176c-78 32 -117 84.667 -117 158c0 49.333 18.167 89.833 54.5 121.5s83.166 47.5 140.499 47.5
s104.333 -15.5 141 -46.5s55 -70.5 55 -118.5c0 -36 -9.33301 -66.5 -28 -91.5s-47.667 -47.833 -87 -68.5c43.333 -17.333 77.5 -41 102.5 -71s37.5 -65 37.5 -105zM353.001 496.999c-3.33301 59.333 -34.667 88.999 -94 88.999c-28 0 -50.5 -8 -67.5 -24
s-25.5 -37 -25.5 -63c0 -28 8.5 -50.167 25.5 -66.5s40.833 -32.166 71.5 -47.499c30 12.667 52.5 27.5 67.5 44.5s22.5 39.5 22.5 67.5zM374 171.998c0 32.667 -9.50098 58.3311 -28.501 76.998s-49.167 36.334 -90.5 53.001c-37.333 -16.667 -65.666 -34.667 -84.999 -54
s-29 -44.666 -29 -75.999c0 -30.667 11 -55.5 33 -74.5s50.667 -28.5 86 -28.5c34 0 61.5 9.66699 82.5 29s31.5 44 31.5 74z" />
    <glyph glyph-name="nine" unicode="9" horiz-adv-x="518" 
d="M466 387c0 -122.667 -24.667 -220.166 -74 -292.499s-115.666 -108.5 -198.999 -108.5c-21.333 0 -42.833 2 -64.5 6s-32.5 9.66699 -32.5 17l10 64c0.666992 6 3.66699 9 9 9c2 0 5 -0.666992 9 -2c22 -5.33301 43.667 -8 65 -8c90.667 0 148 65 172 195
c-37.333 -42.667 -78.333 -64 -123 -64c-54.667 0 -97.667 20.667 -129 62s-47 98 -47 170c0 71.333 18.667 128.666 56 171.999s86.666 65 147.999 65c65.333 0 115 -24 149 -72s51 -119 51 -213zM358 438.001c0 46.667 -8.16699 82.5 -24.5 107.5s-39.833 37.5 -70.5 37.5
c-31.333 0 -56 -13 -74 -39s-27 -62 -27 -108s8.66699 -81.833 26 -107.5s41.333 -38.5 72 -38.5c65.333 0 98 49.333 98 148z" />
    <glyph glyph-name="colon" unicode=":" horiz-adv-x="304" 
d="M234 406c0 -22.667 -8 -42 -24 -58s-35.333 -24 -58 -24s-42 8 -58 24s-24 35.333 -24 58c0 23.333 8 43 24 59s35.333 24 58 24s42 -8 58 -24s24 -35.667 24 -59zM234 68c0 -22.667 -8 -42 -24 -58s-35.333 -24 -58 -24s-42 8 -58 24s-24 35.333 -24 58s8 42 24 58
s35.333 24 58 24s42 -8 58 -24s24 -35.333 24 -58z" />
    <glyph glyph-name="semicolon" unicode=";" horiz-adv-x="308" 
d="M250 406c0 -22.667 -8 -42 -24 -58s-35.667 -24 -59 -24c-22.667 0 -42 8 -58 24s-24 35.333 -24 58s8 42.167 24 58.5s35.333 24.5 58 24.5s42.167 -8.16699 58.5 -24.5s24.5 -35.833 24.5 -58.5zM237 99l-117 -218c-3.33301 -6.66699 -6.16602 -10.5 -8.49902 -11.5
s-6.5 -0.166992 -12.5 2.5l-31 11c-10.667 3.33301 -14.334 10 -11.001 20l61 203c2.66699 8.66699 9 13 19 13h89c8.66699 0 13.667 -1.5 15 -4.5s0 -8.16699 -4 -15.5z" />
    <glyph glyph-name="less" unicode="&#x3c;" 
d="M484 100c0 -6.66699 -1 -10.667 -3 -12s-6.33301 -0.333008 -13 3l-413 200c-10 4.66699 -15.333 9.33398 -16 14.001c-0.666992 2 -1 4.66699 -1 8v57c0 6.66699 1 11.167 3 13.5s6.66699 5.16602 14 8.49902l413 200c6.66699 3.33301 11 4.33301 13 3s3 -5.33301 3 -12
v-67c0 -7.33301 -0.833008 -12 -2.5 -14s-6.16699 -4.66699 -13.5 -8l-324 -153l324 -153c7.33301 -3.33301 11.833 -6 13.5 -8s2.5 -6.66699 2.5 -14v-66z" />
    <glyph glyph-name="equal" unicode="=" 
d="M484 407c0 -7.33301 -0.833008 -11.833 -2.5 -13.5s-6.16699 -2.5 -13.5 -2.5h-413c-7.33301 0 -12 0.833008 -14 2.5s-3 6.16699 -3 13.5v53c0 7.33301 1 12 3 14s6.66699 3 14 3h413c7.33301 0 11.833 -1 13.5 -3s2.5 -6.66699 2.5 -14v-53zM484 244
c0 -8 -0.833008 -12.999 -2.5 -14.999s-6.16699 -3 -13.5 -3h-413c-7.33301 0 -12 1.16699 -14 3.5s-3 7.16602 -3 14.499v51c0 7.33301 1 12 3 14s6.66699 3 14 3h413c7.33301 0 11.833 -1 13.5 -3s2.5 -6.66699 2.5 -14v-51z" />
    <glyph glyph-name="greater" unicode="&#x3e;" 
d="M484 313c0 -4.66699 -0.666992 -8.33203 -2 -10.999s-2.83301 -4.5 -4.5 -5.5s-5.16699 -2.83301 -10.5 -5.5l-413 -200c-6.66699 -3.33301 -11 -4.33301 -13 -3s-3 5.33301 -3 12v67c0 7.33301 0.833008 12 2.5 14s6.16699 4.66699 13.5 8l324 152l-324 153
c-6.66699 3.33301 -11 6.16602 -13 8.49902s-3 7.16602 -3 14.499v66c0 6.66699 1 10.667 3 12s6.33301 0.333008 13 -3l413 -200c7.33301 -3.33301 12 -6.16602 14 -8.49902s3 -6.83301 3 -13.5v-57z" />
    <glyph glyph-name="question" unicode="?" horiz-adv-x="476" 
d="M412 530c0 -49.333 -13.668 -87.3311 -41.001 -113.998s-66.333 -47.334 -117 -62.001v-79c0 -7.33301 -1.16699 -12.166 -3.5 -14.499s-7.16602 -3.5 -14.499 -3.5h-55c-7.33301 0 -12.166 1.16699 -14.499 3.5s-3.5 7.16602 -3.5 14.499v124
c0 6.66699 1.33301 11.334 4 14.001s8 5 16 7c46 12 78.667 26.333 98 43s29 39 29 67c0 26 -8.5 46 -25.5 60s-41.167 21 -72.5 21c-30 0 -68.333 -9.66699 -115 -29c-8.66699 -4.66699 -14.667 -2.66699 -18 6l-19 54c-2 7.33301 -2.33301 12.666 -1 15.999
s6 6.66602 14 9.99902c48.667 22.667 99.667 34 153 34c57.333 0 102.666 -15.5 135.999 -46.5s50 -72.833 50 -125.5zM288.999 58.002c0 -21.333 -7.5 -39.833 -22.5 -55.5s-33.167 -23.5 -54.5 -23.5s-39.666 7.83301 -54.999 23.5s-23 34.167 -23 55.5
s7.66699 39.5 23 54.5s33.666 22.5 54.999 22.5s39.5 -7.5 54.5 -22.5s22.5 -33.167 22.5 -54.5z" />
    <glyph glyph-name="at" unicode="@" horiz-adv-x="980" 
d="M905 361c0 -84.667 -25.665 -157.836 -76.998 -219.503s-112.666 -92.5 -183.999 -92.5c-54.667 0 -84.667 27 -90 81c-39.333 -54 -82 -81 -128 -81c-27.333 0 -48.833 10.5 -64.5 31.5s-23.5 50.167 -23.5 87.5c0 36.667 6 74.167 18 112.5s32.333 72.833 61 103.5
s62 46 100 46c32.667 0 59.667 -12 81 -36c1.33301 2 2.83301 5.5 4.5 10.5s3.66699 8.83301 6 11.5s5.5 4 9.5 4h52c6 0 9 -3 9 -9c0 -2 -0.666992 -5 -2 -9l-47 -219c-1.33301 -5.33301 -2 -11.333 -2 -18v-10c0 -26 13.333 -39 40 -39c42.667 0 79.667 23.833 111 71.5
s47 103.834 47 168.501c0 73.333 -23.833 130.833 -71.5 172.5s-113.167 62.5 -196.5 62.5c-112.667 0 -205.834 -39 -279.501 -117s-110.5 -174.333 -110.5 -289c0 -95.333 27.333 -167.666 82 -216.999s130 -74 226 -74c58.667 0 110.667 6.16699 156 18.5
s93 29.833 143 52.5c3.33301 2 7 3 11 3c3.33301 0 5.33301 -1.33301 6 -4l17 -46c0.666992 -1.33301 1 -2.66602 1 -3.99902c0 -6 -5 -12 -15 -18c-38.667 -21.333 -87.834 -38.666 -147.501 -51.999s-118.5 -20 -176.5 -20c-120.667 0 -215.334 31.167 -284.001 93.5
s-103 151.5 -103 267.5c0 133.333 46.333 246.166 139 338.499s205.667 138.5 339 138.5c101.333 0 183.833 -26 247.5 -78s95.5 -126.333 95.5 -223zM579.002 335.998c-21.333 19.333 -41.332 29 -59.999 29c-16 0 -30.667 -7.83301 -44 -23.5s-23.333 -34.667 -30 -57
s-11.834 -43.666 -15.501 -63.999s-5.5 -37.833 -5.5 -52.5c0 -32 10.667 -48 32 -48c23.333 0 44.333 11.167 63 33.5s31.667 51.166 39 86.499z" />
    <glyph glyph-name="A" unicode="A" horiz-adv-x="562" 
d="M543 25c2 -4.66699 2.99805 -9.33301 2.99805 -14c0 -7.33301 -5.66699 -11 -17 -11h-86c-6 -0 -10.333 0.833008 -13 2.5s-4.66699 5.5 -6 11.5l-49 179h-186l-49 -179c-1.33301 -6 -3.33301 -9.83301 -6 -11.5s-7 -2.5 -13 -2.5h-80c-11.333 -0 -17 3.33301 -17 10
c0 5.33301 1 10.333 3 15l199 647c2 6.66699 3.83301 10.667 5.5 12s5.83398 2 12.501 2h82c6.66699 0 10.834 -0.666992 12.501 -2s3.5 -5.33301 5.5 -12zM351.998 275.001l-49.999 200.999c-6.66699 26.667 -14.334 63.334 -23.001 110.001
c-6.66699 -41.333 -14 -78 -22 -110l-52 -201h147z" />
    <glyph glyph-name="B" unicode="B" horiz-adv-x="573" 
d="M95 669c0 7.33301 0.831055 12.001 2.49805 14.001s6.16699 3 13.5 3h164c144 0 216 -56.667 216 -170c0 -73.333 -33 -125.666 -99 -156.999c82.667 -22.667 124 -78.334 124 -167.001c0 -46 -12.167 -85.833 -36.5 -119.5s-56.166 -54.834 -95.499 -63.501
c-25.333 -6 -63.666 -9 -114.999 -9h-158c-7.33301 0 -11.833 1 -13.5 3s-2.5 6.66699 -2.5 14v652zM199.998 603.001v-210.999h65c76 0 114 37.333 114 112c0 35.333 -8.33301 60.666 -25 75.999s-43.667 23 -81 23h-73zM199.998 308.002l-0.000976562 -220h73
c45.333 0 78.333 8.66699 99 26s31 45 31 83s-10.667 66 -32 84s-54.666 27 -99.999 27h-71z" />
    <glyph glyph-name="C" unicode="C" horiz-adv-x="471" 
d="M452 70c4 -5.33301 5.83203 -10.166 5.49902 -14.499s-4.16602 -9.16602 -11.499 -14.499c-46.667 -37.333 -98 -56 -154 -56c-78.667 0 -138.667 31.167 -180 93.5s-62 153.166 -62 272.499c0 33.333 2 65.333 6 96s11.5 62 22.5 94s25 59.5 42 82.5
s39.667 41.833 68 56.5s60.833 22 97.5 22c58 0 110.333 -20 157 -60c10 -9.33301 11.667 -19 5 -29l-32 -51c-4.66699 -8 -11.667 -8 -21 0c-40.667 32 -75.667 48 -105 48c-42 0 -73 -19.667 -93 -59s-30 -101 -30 -185c0 -193.333 45 -290 135 -290
c30.667 0 62.667 13.667 96 41c10.667 9.33301 18.667 9.66602 24 0.999023z" />
    <glyph glyph-name="D" unicode="D" horiz-adv-x="582" 
d="M532 353c0 -50.667 -3.83203 -95.668 -11.499 -135.001s-20.834 -76.166 -39.501 -110.499s-45.667 -60.833 -81 -79.5s-78.333 -28 -129 -28h-160c-7.33301 0 -11.833 1 -13.5 3s-2.5 6.66699 -2.5 14v652c0 7.33301 0.833008 12 2.5 14s6.16699 3 13.5 3h140
c99.333 0 171 -28 215 -84s66 -139 66 -249zM416.001 343.999c0 30.667 -1.00098 57.335 -3.00098 80.002s-6.33301 45.5 -13 68.5s-15.667 41.5 -27 55.5s-26.833 25.5 -46.5 34.5s-43.167 13.5 -70.5 13.5h-51v-505h56c28 0 51.833 5 71.5 15s34.834 22.167 45.501 36.5
s19 33.666 25 57.999s9.66699 46.666 11 66.999s2 45.833 2 76.5z" />
    <glyph glyph-name="E" unicode="E" horiz-adv-x="480" 
d="M447 666l-17.001 -56.001c-2.66699 -9.33301 -9 -14 -19 -14h-206v-195h181c7.33301 0 12 -1 14 -3s3 -6.66699 3 -14v-54c0 -6.66699 -1 -11 -3 -13s-6.66699 -3 -14 -3h-181v-223h223c7.33301 0 12 -1.16699 14 -3.5s3 -7.16602 3 -14.499v-56
c0 -7.33301 -1 -12 -3 -14s-6.66699 -3 -14 -3h-317c-7.33301 0 -11.833 1 -13.5 3s-2.5 6.66699 -2.5 14v652c0 7.33301 0.833008 12 2.5 14s6.16699 3 13.5 3h322c8.66699 0 13.834 -1.66699 15.501 -5s1.16699 -8.33301 -1.5 -15z" />
    <glyph glyph-name="F" unicode="F" horiz-adv-x="443" 
d="M448 671l-18.001 -61.001c-2.66699 -9.33301 -9 -14 -19 -14h-206v-198h181c7.33301 0 12 -1 14 -3s3 -6.66699 3 -14v-54c0 -7.33301 -1 -12 -3 -14s-6.66699 -3 -14 -3h-181v-293c0 -7.33301 -1.16699 -12 -3.5 -14s-7.16602 -3 -14.499 -3h-76
c-7.33301 0 -11.833 1 -13.5 3s-2.5 6.66699 -2.5 14v652c0 7.33301 0.833008 12 2.5 14s6.16699 3 13.5 3h322c8 0 13 -0.666992 15 -2s2 -5.66602 0 -12.999z" />
    <glyph glyph-name="G" unicode="G" horiz-adv-x="554" 
d="M493 50c0 -8 -5.33398 -15.335 -16.001 -22.002c-46.667 -28.667 -104.334 -43 -173.001 -43c-169.333 0 -254 117.667 -254 353c0 119.333 21.667 209.833 65 271.5s107 92.5 191 92.5c64.667 0 120.334 -17 167.001 -51c8 -5.33301 9.33301 -13.333 4 -24l-26 -51
c-4 -7.33301 -10.667 -8.66602 -20 -3.99902c-28 16.667 -50.333 27.834 -67 33.501s-35.334 8.5 -56.001 8.5c-49.333 0 -85.666 -21.333 -108.999 -64s-35 -109 -35 -199c0 -23.333 0.5 -43.5 1.5 -60.5s2.83301 -37.333 5.5 -61s7.33398 -43.667 14.001 -60
s15.334 -32.333 26.001 -48s24.667 -27.5 42 -35.5s37.333 -12 60 -12c25.333 0 51 6 77 18v173h-77c-7.33301 0 -12 1 -14 3s-3 6.66699 -3 14v54c0 7.33301 1 12.166 3 14.499s6.66699 3.5 14 3.5h162c7.33301 0 12.166 -1.16699 14.499 -3.5s3.5 -7.16602 3.5 -14.499
v-286z" />
    <glyph glyph-name="H" unicode="H" horiz-adv-x="628" 
d="M535 17c0 -7.33301 -1.16699 -12 -3.5 -14s-7.16602 -3 -14.499 -3h-75c-7.33301 0 -12 1 -14 3s-3 6.66699 -3 14v297h-220v-297c0 -7.33301 -1.16699 -12 -3.5 -14s-7.16602 -3 -14.499 -3h-76c-7.33301 0 -11.833 1 -13.5 3s-2.5 6.66699 -2.5 14v652
c0 7.33301 0.833008 12 2.5 14s6.16699 3 13.5 3h76c7.33301 0 12.166 -1 14.499 -3s3.5 -6.66699 3.5 -14v-270h220v270c0 7.33301 1 12 3 14s6.66699 3 14 3h75c7.33301 0 12.166 -1 14.499 -3s3.5 -6.66699 3.5 -14v-652z" />
    <glyph glyph-name="I" unicode="I" horiz-adv-x="351" 
d="M319 17c0 -7.33301 -1.16699 -12 -3.5 -14s-7.16602 -3 -14.499 -3h-252c-7.33301 0 -12 1 -14 3s-3 6.66699 -3 14v48c0 7.33301 1 12 3 14s6.66699 3 14 3h71v522h-71c-7.33301 0 -12 1 -14 3s-3 6.66699 -3 14v48c0 7.33301 1 12 3 14s6.66699 3 14 3h252
c7.33301 0 12.166 -1 14.499 -3s3.5 -6.66699 3.5 -14v-48c0 -7.33301 -1.16699 -12 -3.5 -14s-7.16602 -3 -14.499 -3h-71v-522h71c7.33301 0 12.166 -1 14.499 -3s3.5 -6.66699 3.5 -14v-48z" />
    <glyph glyph-name="J" unicode="J" horiz-adv-x="445" 
d="M366 230c0 -62.667 -3.33301 -106 -10 -130c-8 -26 -20.667 -48 -38 -66c-31.333 -32.667 -76.333 -49 -135 -49c-114.667 0 -173.667 64 -177 192v6v8.5c0 1.66699 0.333008 3.33398 1 5.00098s1.83398 2.66699 3.50098 3s3.83398 0.5 6.50098 0.5h77
c6.66699 0 10 -5.33301 10 -16c0 -46 9.33301 -77 28 -93c13.333 -11.333 30.666 -17 51.999 -17c8.66699 0 16.5 0.833008 23.5 2.5s13 4.66699 18 9l13 11.5c3.66699 3.33301 6.5 9 8.5 17s3.66699 14 5 18s2.33301 11.167 3 21.5s1 17.166 1 20.499v22v20v387h-155
c-8 0 -13 0.833008 -15 2.5s-3 6.16699 -3 13.5v50c0 7.33301 1.16699 12 3.5 14s7.16602 3 14.499 3h248c7.33301 0 12 -1 14 -3s3 -6.66699 3 -14v-439z" />
    <glyph glyph-name="K" unicode="K" horiz-adv-x="554" 
d="M542 52c4.66699 -6 7.00098 -9.83301 7.00098 -11.5s-2.66699 -4.5 -8 -8.5l-71 -41c-5.33301 -3.33301 -9.5 -4.83301 -12.5 -4.5s-6.5 3.5 -10.5 9.5l-242 317v-296c0 -7.33301 -1.16699 -12 -3.5 -14s-7.16602 -3 -14.499 -3h-76c-7.33301 0 -11.833 1 -13.5 3
s-2.5 6.66699 -2.5 14v652c0 7.33301 0.833008 12 2.5 14s6.16699 3 13.5 3h76c7.33301 0 12.166 -1 14.499 -3s3.5 -6.66699 3.5 -14v-304l236 321c6 8 12.333 10 19 6l64 -40c6 -3.33301 5.66699 -9 -1 -17c-0.666992 -1.33301 -1.33398 -2.33301 -2.00098 -3l-217 -286z
" />
    <glyph glyph-name="L" unicode="L" horiz-adv-x="471" 
d="M464 75l-16.999 -61c-2.66699 -9.33301 -8.66699 -14 -18 -14h-318c-7.33301 0 -11.833 1 -13.5 3s-2.5 6.66699 -2.5 14v652c0 7.33301 0.833008 12 2.5 14s6.16699 3 13.5 3h76c7.33301 0 12.166 -1 14.499 -3s3.5 -6.66699 3.5 -14v-571h244
c8.66699 0 14 -1.83301 16 -5.5s1.66699 -9.5 -1 -17.5z" />
    <glyph glyph-name="M" unicode="M" horiz-adv-x="694" 
d="M618 19c0.666992 -8 0.163086 -13.167 -1.50391 -15.5s-6.16699 -3.5 -13.5 -3.5h-74c-7.33301 0 -12.166 1 -14.499 3s-3.5 6.66699 -3.5 14l-10 406c-0.666992 20.667 0 65.667 2 135c-8.66699 -44.667 -19 -85.334 -31 -122.001l-90 -266c-2 -6 -4 -9.83301 -6 -11.5
s-6 -2.5 -12 -2.5h-45c-6.66699 0 -11 0.666992 -13 2s-4 5.33301 -6 12l-84 266c-8 28.667 -17.333 69.334 -28 122.001c1.33301 -62.667 1.66602 -107.667 0.999023 -135l-11 -406c0 -7.33301 -1.16699 -12 -3.5 -14s-7.16602 -3 -14.499 -3h-67
c-7.33301 0 -12 1.16699 -14 3.5s-2.66699 6.83301 -2 13.5l33 653c0.666992 7.33301 2 11.833 4 13.5s6.33301 2.5 13 2.5h80c6.66699 0 10.834 -0.666992 12.501 -2s3.5 -5 5.5 -11l99 -299c4.66699 -14 11.334 -43.333 20.001 -88c10.667 42.667 18.667 72 24 88l102 299
c2 6.66699 3.83301 10.5 5.5 11.5s5.83398 1.5 12.501 1.5h79c6.66699 0 11 -0.833008 13 -2.5s3.33301 -6.16699 4 -13.5z" />
    <glyph glyph-name="N" unicode="N" horiz-adv-x="600" 
d="M519 17c0 -7.33301 -1.00098 -11.999 -3.00098 -13.999s-6.66699 -3 -14 -3h-60c-9.33301 0 -16.333 4.66699 -21 14l-202 410c-16 31.333 -31.333 70.666 -46 117.999c4 -49.333 6 -86 6 -110v-415c0 -7.33301 -1.16699 -12 -3.5 -14s-7.16602 -3 -14.499 -3h-60
c-7.33301 0 -12 1 -14 3s-3 6.66699 -3 14v652c0 7.33301 1 12 3 14s6.66699 3 14 3h72c6 0 10.167 -0.666992 12.5 -2s4.83301 -5 7.5 -11l190 -381c16 -31.333 31.333 -70.666 46 -117.999c-2.66699 31.333 -4 66.666 -4 105.999v389c0 7.33301 1 12 3 14s6.66699 3 14 3
h60c7.33301 0 12 -1 14 -3s3 -6.66699 3 -14v-652z" />
    <glyph glyph-name="O" unicode="O" horiz-adv-x="573" 
d="M523 348c0 -242 -80.001 -363 -240.001 -363c-155.333 0 -233 120.667 -233 362c0 108 19.333 194.167 58 258.5s99.334 96.5 182.001 96.5c155.333 0 233 -118 233 -354zM405.999 343c0 180.667 -39.332 271.001 -117.999 271.001
c-41.333 0 -71.833 -21.833 -91.5 -65.5s-29.5 -111.834 -29.5 -204.501c0 -89.333 9.33301 -157 28 -203s49 -69 91 -69c41.333 0 71.666 21.833 90.999 65.5s29 112.167 29 205.5z" />
    <glyph glyph-name="P" unicode="P" horiz-adv-x="508" 
d="M488 500c0 -69.333 -20 -123 -60 -161s-92.667 -57 -158 -57h-65v-265c0 -7.33301 -1.16699 -12 -3.5 -14s-7.16602 -3 -14.499 -3h-76c-7.33301 0 -11.833 1 -13.5 3s-2.5 6.66699 -2.5 14v652c0 7.33301 0.833008 12 2.5 14s6.16699 3 13.5 3h158
c83.333 0 140.666 -15.5 171.999 -46.5s47 -77.5 47 -139.5zM380 495c0 40 -8.66699 67.667 -26 83s-48 23 -92 23h-57v-227h51c41.333 0 72.333 9.33301 93 28s31 49.667 31 93z" />
    <glyph glyph-name="Q" unicode="Q" horiz-adv-x="573" 
d="M556 -28l-61.998 -43.999c-4.66699 -2.66699 -8.66699 -4 -12 -4c-8 0 -22 7.83301 -42 23.5s-40.667 34.834 -62 57.501c-29.333 -13.333 -60.666 -20 -93.999 -20c-156 0 -234 118.667 -234 356c0 52.667 4.16699 100.167 12.5 142.5s21.666 80.166 39.999 113.499
s43.166 59.166 74.499 77.499s68.666 27.5 111.999 27.5c156 0 234 -117.333 234 -352c0 -131.333 -22.667 -227 -68 -287c28.667 -26 61 -50.333 97 -73c5.33301 -4 8 -8 8 -12c0 -2 -1.33301 -4 -4 -6zM406.002 344.001c0 180 -39.333 270.001 -118 270.001
c-41.333 0 -71.833 -21.833 -91.5 -65.5s-29.5 -111.834 -29.5 -204.501c0 -181.333 39.333 -272 118 -272c42 0 72.667 21.833 92 65.5s29 112.5 29 206.5z" />
    <glyph glyph-name="R" unicode="R" horiz-adv-x="545" 
d="M521 33c4 -8 5.99902 -13.333 5.99902 -16c0 -4.66699 -3.33301 -8 -10 -10l-78 -19c-5.33301 -1.33301 -8.33301 -2 -9 -2c-4 0 -7.66699 3.66699 -11 11l-152 299h-64v-279c0 -7.33301 -1.16699 -12 -3.5 -14s-7.16602 -3 -14.499 -3h-74
c-7.33301 0 -11.833 1.16699 -13.5 3.5s-2.5 7.5 -2.5 15.5v650c0 7.33301 0.833008 12 2.5 14s6.16699 3 13.5 3h159c80 0 136.167 -15.167 168.5 -45.5s48.5 -76.5 48.5 -138.5c0 -94 -40.333 -158.333 -121 -193zM376.999 499c0 38.667 -8.5 65.5 -25.5 80.5
s-46.833 22.5 -89.5 22.5h-59v-221h52c42.667 0 73.667 9.33301 93 28s29 48.667 29 90z" />
    <glyph glyph-name="S" unicode="S" horiz-adv-x="494" 
d="M453 188c0 -60.667 -19.665 -109.331 -58.998 -145.998s-91.333 -55 -156 -55c-31.333 0 -72 6.5 -122 19.5s-75 25.833 -75 38.5c0 3.33301 1 7.33301 3 12l25 65c2 4 4.66699 6 8 6s10 -3 20 -9c49.333 -26 96.666 -39 141.999 -39c32.667 0 58.5 8.66699 77.5 26
s28.5 41.333 28.5 72s-7.66699 54 -23 70s-51 39 -107 69c-28.667 15.333 -49.667 27.166 -63 35.499s-29.333 20.666 -48 36.999s-31.834 34.5 -39.501 54.5s-11.5 43 -11.5 69c0 56 19.167 101 57.5 135s88.833 51 151.5 51c64.667 0 121 -15 169 -45
c6.66699 -4.66699 10 -8.66699 10 -12c0 -0.666992 -0.666992 -3 -2 -7l-26 -60c-2 -5.33301 -5.33301 -8 -10 -8s-10.667 2.33301 -18 7c-44.667 23.333 -85.334 35 -122.001 35c-31.333 0 -55.833 -7.5 -73.5 -22.5s-26.5 -35.833 -26.5 -62.5
c0 -23.333 5.83301 -41.666 17.5 -54.999s36.834 -30.333 75.501 -51c64 -34.667 105.333 -59.334 124 -74.001c48.667 -39.333 73 -91.333 73 -156z" />
    <glyph glyph-name="T" unicode="T" horiz-adv-x="415" 
d="M434 663l-18 -57.999c-2.66699 -9.33301 -8.33398 -14 -17.001 -14h-135v-574c0 -7.33301 -0.833008 -12 -2.5 -14s-6.16699 -3 -13.5 -3h-76c-7.33301 0 -12.166 1 -14.499 3s-3.5 6.66699 -3.5 14v574h-136c-7.33301 0 -12 1.16699 -14 3.5s-3 7.16602 -3 14.499v60
c0 7.33301 1 12 3 14s6.66699 3 14 3h402c11.333 0 17 -3 17 -9c0 -3.33301 -1 -8 -3 -14z" />
    <glyph glyph-name="U" unicode="U" horiz-adv-x="610" 
d="M532 209c0 -75.333 -20.332 -131.5 -60.999 -168.5s-98.667 -55.5 -174 -55.5c-76 0 -131.333 18.5 -166 55.5s-52 92.5 -52 166.5v462c0 7.33301 1.16699 12 3.5 14s7.16602 3 14.499 3h75c7.33301 0 12 -1 14 -3s3 -6.66699 3 -14v-460
c0 -50.667 8.5 -86.167 25.5 -106.5s46.5 -30.5 88.5 -30.5c43.333 0 74.833 10.833 94.5 32.5s29.5 56.167 29.5 103.5v461c0 7.33301 1 12 3 14s6.66699 3 14 3h71c7.33301 0 12 -1 14 -3s3 -6.66699 3 -14v-460z" />
    <glyph glyph-name="V" unicode="V" horiz-adv-x="515" 
d="M503 655l-179.001 -648.002c-1.33301 -6 -3.16602 -9.66699 -5.49902 -11s-6.83301 -2 -13.5 -2h-92c-5.33301 0 -8.83301 0.166992 -10.5 0.5s-3.16699 1.33301 -4.5 3s-2.66602 4.83398 -3.99902 9.50098l-175 646c0 1.33301 -0.5 3.5 -1.5 6.5s-1.5 5.16699 -1.5 6.5
c0 6 5 10 15 12l79 16c6.66699 1.33301 10.667 2 12 2c5.33301 0 8.66602 -5 9.99902 -15l106 -468c4.66699 -22 12 -59.667 22 -113c10 54 17.667 91.667 23 113l112 466c2.66699 9.33301 6 14 10 14c2.66699 0 5 -0.333008 7 -1l85 -17c5.33301 -0.666992 8 -4 8 -10
c0 -1.33301 -0.666992 -4.66602 -2 -9.99902z" />
    <glyph glyph-name="W" unicode="W" horiz-adv-x="744" 
d="M722 655l-141.002 -647.002c-1.33301 -6 -3.16602 -9.83301 -5.49902 -11.5s-6.83301 -2.5 -13.5 -2.5h-77c-7.33301 0 -12 0.666992 -14 2s-3.33301 5.33301 -4 12l-62 355c-14.667 83.333 -23.334 142 -26.001 176c-1.33301 -16.667 -11.666 -75.334 -30.999 -176.001
l-73 -355c-1.33301 -6.66699 -3 -10.667 -5 -12s-6.33301 -2 -13 -2h-76c-7.33301 0 -12 0.666992 -14 2s-3.66699 5.33301 -5 12l-128 647c-1.33301 6.66699 -2 10.667 -2 12c0 5.33301 4.66699 9 14 11l71 12c2 0 4.33301 0.5 7 1.5s4.66699 1.5 6 1.5
c3.33301 0 6 -5 8 -15l73 -414c4.66699 -26.667 9.33398 -75.667 14.001 -147c10.667 82 18.667 134.667 24 158l83 395c1.33301 6.66699 3 10.834 5 12.501s6.33301 2.5 13 2.5h67c7.33301 0 12 -1 14 -3s3.66699 -6.66699 5 -14l74 -404
c8.66699 -47.333 15.667 -97.666 21 -150.999c4.66699 68.667 11 124.334 19 167.001l72 397c2 9.33301 5.66699 14 11 14l83 -16c5.33301 -0.666992 8 -3.66699 8 -9c0 -2 -0.666992 -5.66699 -2 -11z" />
    <glyph glyph-name="X" unicode="X" horiz-adv-x="512" 
d="M503 35c4 -6 6 -10.666 6 -13.999c0 -4.66699 -4.33301 -8 -13 -10l-76 -21c-6 -2 -10 -3 -12 -3c-2.66699 0 -6.33398 4 -11.001 12l-110 214c-12.667 25.333 -21.334 44 -26.001 56c-6 -14.667 -15 -33.334 -27 -56.001l-111 -213c-3.33301 -7.33301 -7 -11 -11 -11
c-2 0 -6 1 -12 3l-73 20c-8.66699 2.66699 -13 6.33398 -13 11.001c0 3.33301 2 8.66602 6 15.999l179 322l-164 289c-3.33301 6.66699 -5 11 -5 13c0 4.66699 3.66699 8 11 10l75 21c6.66699 1.33301 10.667 2 12 2c4.66699 0 8.66699 -4 12 -12l93 -178
c10 -18 19.667 -39.333 29 -64c12.667 32.667 21.334 54 26.001 64l90 179c4.66699 8 8.66699 12 12 12c2.66699 0 6.33398 -1 11.001 -3l72 -23c8 -2.66699 12 -5.66699 12 -9c0 -2.66699 -2.33301 -7.66699 -7 -15l-159 -286z" />
    <glyph glyph-name="Y" unicode="Y" horiz-adv-x="470" 
d="M481 648l-184 -362v-269c0 -7.33301 -1.16699 -12 -3.5 -14s-7.16602 -3 -14.499 -3h-75c-7.33301 0 -11.833 1 -13.5 3s-2.5 6.66699 -2.5 14v269l-193 366c-3.33301 6.66699 -5 11.667 -5 15c0 4.66699 2.66699 7.33398 8 8.00098l89 18
c2.66699 0.666992 5.66699 1 9 1c4 0 8 -3.66699 12 -11l99 -210c13.333 -28 25.666 -58.333 36.999 -91c3.33301 7.33301 8.5 20.666 15.5 39.999s12.833 34 17.5 44l104 216c4 8 7.66699 12 11 12l89 -22c4.66699 -0.666992 7 -3 7 -7c0 -2 -2.33301 -7.66699 -7 -17z" />
    <glyph glyph-name="Z" unicode="Z" horiz-adv-x="480" 
d="M460 82l-7.99902 -69c-0.666992 -8.66699 -5.33398 -13 -14.001 -13h-389c-7.33301 0 -11.833 1 -13.5 3s-2.5 6.66699 -2.5 14v67l283 511h-252c-12 0 -18 3 -18 9c0 2.66699 0.333008 4.66699 1 6l19 71c0.666992 3.33301 5.66699 5 15 5h339
c7.33301 0 11.833 -1 13.5 -3s2.5 -6.66699 2.5 -14v-69l-280 -503h289c10 0 15 -4.33301 15 -13v-2z" />
    <glyph glyph-name="bracketleft" unicode="[" horiz-adv-x="406" 
d="M345 -187c0 -7.33301 -1 -12.166 -3 -14.499s-6.66699 -3.5 -14 -3.5h-184c-7.33301 0 -12.166 1.16699 -14.499 3.5s-3.5 7.16602 -3.5 14.499v885c0 7.33301 1.16699 12 3.5 14s7.16602 3 14.499 3h184c7.33301 0 12 -1 14 -3s3 -6.66699 3 -14v-48
c0 -7.33301 -1 -12 -3 -14s-6.66699 -3 -14 -3h-100v-755h100c7.33301 0 12 -1 14 -3s3 -7 3 -15v-47z" />
    <glyph glyph-name="backslash" unicode="\" horiz-adv-x="527" 
d="M470 -66c2.66699 -6.66699 3.99902 -10.667 3.99902 -12c0 -4.66699 -5 -7 -15 -7h-62c-11.333 0 -18.666 4.66699 -21.999 14l-331 823c-2 5.33301 -3 9 -3 11c0 5.33301 5 8 15 8h62c10 0 17 -4.33301 21 -13z" />
    <glyph glyph-name="bracketright" unicode="]" horiz-adv-x="406" 
d="M280 -187c0 -7.33301 -1 -12.167 -3 -14.5s-6.66699 -3.5 -14 -3.5h-185c-7.33301 0 -11.833 1 -13.5 3s-2.5 7 -2.5 15v47c0 8 0.833008 13 2.5 15s6.16699 3 13.5 3h101v755h-101c-7.33301 0 -11.833 1 -13.5 3s-2.5 6.66699 -2.5 14v48c0 7.33301 0.833008 12 2.5 14
s6.16699 3 13.5 3h185c7.33301 0 12 -1 14 -3s3 -6.66699 3 -14v-885z" />
    <glyph glyph-name="asciicircum" unicode="^" horiz-adv-x="529" 
d="M500 380c2.66699 -4.66699 4 -8.33301 4 -11c0 -4 -4.33301 -6 -13 -6h-74c-6.66699 0 -11 0.833008 -13 2.5s-5 6.16699 -9 13.5l-127 231l-126 -231c-4 -7.33301 -7 -11.833 -9 -13.5s-6.66699 -2.5 -14 -2.5h-74c-8 0 -12 2 -12 6c0 2.66699 1.33301 6.33398 4 11.001
l157 292c5.33301 9.33301 10 14.666 14 15.999c2 0.666992 5 1 9 1h103c6.66699 0 11 -1 13 -3s5 -6.66699 9 -14z" />
    <glyph glyph-name="underscore" unicode="_" 
d="M518 -136h-514v68h514v-68z" />
    <glyph glyph-name="grave" unicode="`" horiz-adv-x="511" 
d="M305 591l-13.999 -24c-3.33301 -6 -6.33301 -9 -9 -9c-1.33301 0 -5.33301 1.66699 -12 5l-170 77c-8 3.33301 -12 7 -12 11c0 2 1.66699 6.33301 5 13l29 51c4 6.66699 8.33301 10 13 10c3.33301 0 8.66602 -2.33301 15.999 -7l149 -102c6.66699 -4 10 -8 10 -12
c0 -2 -1.66699 -6.33301 -5 -13z" />
    <glyph glyph-name="a" unicode="a" horiz-adv-x="480" 
d="M423 37c2 -6 2.99805 -9.33301 2.99805 -10c0 -3.33301 -1.66699 -5.66602 -5 -6.99902l-61 -30c-4 -2 -7.33301 -3 -10 -3c-11.333 0 -22.666 20.333 -33.999 61c-40 -40 -85 -60 -135 -60c-43.333 0 -77.833 13 -103.5 39s-38.5 61 -38.5 105
c0 28.667 5.5 53.667 16.5 75s24.667 38 41 50s36.833 21.667 61.5 29s48 12.166 70 14.499s46.333 3.5 73 3.5v32c0 30.667 -5.83301 52.167 -17.5 64.5s-32.167 18.5 -61.5 18.5c-31.333 0 -69.666 -9.66699 -114.999 -29c-4 -1.33301 -7 -2 -9 -2c-4 0 -7 2.33301 -9 7
l-16 49c-1.33301 4 -2 7 -2 9c0 14 20 25.667 60 35s74.333 14 103 14c56 0 97.5 -12 124.5 -36s40.5 -62.333 40.5 -115v-196c0 -48.667 8 -88 24 -118zM300.998 112l-0.000976562 118.999c-16.667 0 -30.667 -0.5 -42 -1.5s-25.333 -3.16699 -42 -6.5
s-30.167 -8 -40.5 -14s-19.333 -15 -27 -27s-11.5 -26.333 -11.5 -43c0 -21.333 6.5 -39.166 19.5 -53.499s29.167 -21.5 48.5 -21.5c30.667 0 62.334 16 95.001 48z" />
    <glyph glyph-name="b" unicode="b" horiz-adv-x="523" 
d="M478 267c0 -91.333 -16.833 -161.168 -50.5 -209.501s-80.167 -72.5 -139.5 -72.5c-41.333 0 -79.666 15.333 -114.999 46c-11.333 -28 -22.333 -42 -33 -42c-4 0 -7.33301 0.666992 -10 2l-56 21c-6 2.66699 -9 6.33398 -9 11.001c0 3.33301 1 6.33301 3 9
c14.667 24.667 22 58.667 22 102v558c0 8.66699 4.66699 14 14 16l71 15c2 0.666992 4.66699 1 8 1c4.66699 0 7 -4.33301 7 -13v-254c45.333 30.667 87.666 46 126.999 46c52 0 91.833 -20.333 119.5 -61s41.5 -99 41.5 -175zM374 257.998c0 107.333 -28.667 161 -86 161
c-27.333 0 -60 -13.333 -98 -40v-281c24 -19.333 51 -29 81 -29c68.667 0 103 63 103 189z" />
    <glyph glyph-name="c" unicode="c" horiz-adv-x="415" 
d="M405 435l-33 -53.999c-2 -2.66699 -4.33301 -4 -7 -4c-3.33301 0 -6.33301 1.33301 -9 4c-33.333 26.667 -64 40 -92 40c-73.333 0 -110 -58.667 -110 -176c0 -118.667 35.333 -178 106 -178c30.667 0 63.334 13.333 98.001 40c4.66699 3.33301 8 5 10 5
c2.66699 0 5 -2.33301 7 -7l20 -49c2.66699 -6.66699 4 -10.667 4 -12c0 -14 -19 -27.333 -57 -40s-69.333 -19 -94 -19c-64 0 -113.667 21.667 -149 65s-53 104.333 -53 183c0 83.333 19.333 149.166 58 197.499s91.667 72.5 159 72.5c27.333 0 58.166 -6.5 92.499 -19.5
s51.5 -27.167 51.5 -42.5c0 -1.33301 -0.666992 -3.33301 -2 -6z" />
    <glyph glyph-name="d" unicode="d" horiz-adv-x="516" 
d="M453 21l-63.002 -30.002c-2 -1.33301 -5 -2 -9 -2c-12 0 -22.333 18.333 -31 55c-50 -39.333 -98 -59 -144 -59c-50 0 -89.167 22.333 -117.5 67s-42.5 106.334 -42.5 185.001c0 84.667 16.333 150.167 49 196.5s77.334 69.5 134.001 69.5
c32.667 0 67.334 -10.333 104.001 -31v220c0 9.33301 3.66699 14.666 11 15.999l71 15c5.33301 1.33301 8.66602 2 9.99902 2c5.33301 0 8 -5 8 -15v-569c0 -26 1 -45.333 3 -58s7 -25.667 15 -39c0.666992 -1.33301 1.5 -2.83301 2.5 -4.5s1.83301 -3 2.5 -4
s1.33398 -2.16699 2.00098 -3.5s1 -2.66602 1 -3.99902c0 -3.33301 -2 -5.66602 -6 -6.99902zM332.998 114.998l0.000976562 278.999c-30.667 16.667 -59.667 25 -87 25c-34.667 0 -59.334 -13.167 -74.001 -39.5s-22 -70.166 -22 -131.499c0 -64 6.5 -109.833 19.5 -137.5
s34.833 -41.5 65.5 -41.5c34 0 66.667 15.333 98 46z" />
    <glyph glyph-name="e" unicode="e" horiz-adv-x="480" 
d="M444 255l-0.000976562 -6.99805c0 -7.33301 -0.333008 -12.833 -1 -16.5s-2.16699 -6.83398 -4.5 -9.50098s-5.83301 -4 -10.5 -4h-278c4 -98 44.333 -147 121 -147c14 0 27.667 1.5 41 4.5s23 5.5 29 7.5s15.833 6.33301 29.5 13l22.5 11
c2.66699 1.33301 4.33398 2 5.00098 2c3.33301 0 6 -2.66699 8 -8l23 -50c2 -4 3 -7.33301 3 -10c0 -13.333 -21 -26 -63 -38s-78 -18 -108 -18c-68 0 -120.833 22.5 -158.5 67.5s-56.5 108.167 -56.5 189.5c0 79.333 19 142.666 57 189.999s88.333 71 151 71
c61.333 0 108.333 -21.333 141 -64s49 -104 49 -184zM336.999 295.002c-2 88 -31.667 132 -89 132c-58 0 -90.333 -44 -97 -132h186z" />
    <glyph glyph-name="f" unicode="f" horiz-adv-x="304" 
d="M363 680l-18 -55.001c-0.666992 -4 -3.66699 -6 -9 -6c-4 0 -8 1 -12 3c-24 11.333 -45.333 17 -64 17c-23.333 0 -39 -6.16699 -47 -18.5s-12 -36.833 -12 -73.5v-59h131c7.33301 0 11 -2.33301 11 -7l-1 -1v-3l-16 -56c-2 -7.33301 -5.33301 -11 -10 -11h-115v-397
c0 -6 -0.833008 -9.66699 -2.5 -11s-5.5 -2 -11.5 -2h-72c-6.66699 0 -10.667 0.833008 -12 2.5s-2 5.5 -2 11.5v396h-71c-10 0 -15 3.66699 -15 11v54c0 5.33301 1.16699 8.83301 3.5 10.5s6.83301 2.5 13.5 2.5h69v59c0 62.667 12.5 107.834 37.5 135.501
s62.167 41.5 111.5 41.5c24 0 49.167 -3.66699 75.5 -11s39.5 -15.333 39.5 -24c0 -0.666992 -0.666992 -3.66699 -2 -9z" />
    <glyph glyph-name="g" unicode="g" horiz-adv-x="508" 
d="M459 459c-19.333 -33.333 -29 -71 -29 -113v-152c0 -28.667 0.666992 -65.334 2 -110.001s2 -78.667 2 -102c0 -64 -14.5 -112 -43.5 -144s-74.833 -48 -137.5 -48c-28.667 0 -66.834 5.83301 -114.501 17.5s-71.5 23.167 -71.5 34.5
c0 1.33301 0.666992 4.66602 2 9.99902l19 55c2 5.33301 5 8 9 8c2 0 6.33301 -1.33301 13 -4c52 -23.333 97.333 -35 136 -35c33.333 0 56.833 7.33301 70.5 22s20.5 39.334 20.5 74.001c0 38 -1.33301 66 -4 84c-40 -30.667 -82.333 -46 -127 -46
c-49.333 0 -88.333 20.833 -117 62.5s-43 97.834 -43 168.501c0 82.667 16.333 147 49 193s78.334 69 137.001 69c41.333 0 81 -14.667 119 -44c0.666992 1.33301 2.33398 5 5.00098 11l6 13.5c1.33301 3 3.16602 6.5 5.49902 10.5s4.83301 7 7.5 9s5.66699 3 9 3
c0.666992 0 3 -0.666992 7 -2l63 -28c5.33301 -2 8 -5 8 -9c0 -2 -1 -4.66699 -3 -8zM331 136v254c-31.333 19.333 -59 29 -83 29c-31.333 0 -55.5 -14.167 -72.5 -42.5s-25.5 -68.833 -25.5 -121.5c0 -107.333 27.333 -161 82 -161c30 0 63 14 99 42z" />
    <glyph glyph-name="h" unicode="h" horiz-adv-x="532" 
d="M455 14c0 -6 -1 -9.83203 -3 -11.499s-6 -2.5 -12 -2.5h-71c-6.66699 0 -10.667 1 -12 3s-2 6.33301 -2 13v319c0 31.333 -4.66699 53.166 -14 65.499s-25.333 18.5 -48 18.5c-32.667 0 -69 -17.333 -109 -52v-353c0 -6 -0.833008 -9.83301 -2.5 -11.5
s-5.5 -2.5 -11.5 -2.5h-70c-6.66699 -0 -11 0.833008 -13 2.5s-3 5.5 -3 11.5v678c0 8.66699 4.66699 14 14 16l67 14c5.33301 1.33301 9 2 11 2c5.33301 0 8 -4.66699 8 -14v-270c44.667 42 92.667 63 144 63c48.667 0 82 -13.167 100 -39.5s27 -64.5 27 -114.5v-335z" />
    <glyph glyph-name="i" unicode="i" horiz-adv-x="286" 
d="M201 14c0 -6 -0.666992 -9.83496 -2 -11.502s-5 -2.5 -11 -2.5h-73c-6.66699 0 -10.667 0.833008 -12 2.5s-2 5.83398 -2 12.501v395h-77c-6.66699 0 -10.834 0.833008 -12.501 2.5s-2.5 5.83398 -2.5 12.501v48c0 6.66699 0.833008 10.834 2.5 12.501
s5.83398 2.5 12.501 2.5h163c6 0 9.83301 -0.833008 11.5 -2.5s2.5 -5.83398 2.5 -12.501v-459zM217 648.998c0 -20 -6.83301 -36.833 -20.5 -50.5s-30.5 -20.5 -50.5 -20.5c-19.333 0 -36 6.83301 -50 20.5s-21 30.5 -21 50.5c0 19.333 7 36 21 50s30.667 21 50 21
s36 -7 50 -21s21 -30.667 21 -50z" />
    <glyph glyph-name="j" unicode="j" horiz-adv-x="292" 
d="M207 -21c0 -77.333 -12.8311 -130.331 -38.498 -158.998s-65.5 -43 -119.5 -43c-20 0 -44.5 3.33301 -73.5 10s-43.5 14 -43.5 22c0 2 1 5.33301 3 10l20 58c2 4 4.66699 6 8 6c2 0 5.66699 -1 11 -3c27.333 -12 50.666 -18 69.999 -18
c25.333 0 42.166 8.33301 50.499 25s12.5 50.334 12.5 101.001v422h-80c-6 0 -9.5 0.666992 -10.5 2s-1.5 5.66602 -1.5 12.999v48c0 7.33301 0.833008 11.666 2.5 12.999s5.83398 2 12.501 2h165c5.33301 0 8.66602 -0.833008 9.99902 -2.5s2 -5.83398 2 -12.501v-494z
M223.002 649.002c0 -20 -7 -36.833 -21 -50.5s-30.667 -20.5 -50 -20.5c-20 0 -36.833 6.83301 -50.5 20.5s-20.5 30.5 -20.5 50.5c0 19.333 6.83301 36 20.5 50s30.5 21 50.5 21c19.333 0 36 -7 50 -21s21 -30.667 21 -50z" />
    <glyph glyph-name="k" unicode="k" horiz-adv-x="480" 
d="M463 30l-60.998 -37c-3.33301 -2.66699 -6.33301 -4 -9 -4c-3.33301 0 -6.33301 2 -9 6l-198 245v-226c0 -6 -0.833008 -9.83301 -2.5 -11.5s-5.5 -2.5 -11.5 -2.5h-72c-6.66699 -0 -11 0.833008 -13 2.5s-3 5.5 -3 11.5v678c0 8.66699 4.66699 14 14 16l69 14
c5.33301 1.33301 8.66602 2 9.99902 2c6 0 9 -4.66699 9 -14v-426l198 210c3.33301 3.33301 6.66602 5 9.99902 5c2.66699 0 8 -2.66699 16 -8l40 -30c4.66699 -4 7 -7.33301 7 -10c0 -3.33301 -2.33301 -7.33301 -7 -12l-166 -172l179 -215c5.33301 -6.66699 8 -11 8 -13
c0 -3.33301 -2.66699 -6.33301 -8 -9z" />
    <glyph glyph-name="l" unicode="l" horiz-adv-x="276" 
d="M284 22c0 -0.666992 0.500977 -2.16797 1.50098 -4.50098s1.5 -4.16602 1.5 -5.49902c0 -6.66699 -11.667 -12.5 -35 -17.5s-43.333 -7.5 -60 -7.5c-16 0 -30.333 1.66699 -43 5s-23 8 -31 14s-14.833 13.167 -20.5 21.5s-9.83398 18 -12.501 29s-4.66699 22.833 -6 35.5
s-2 26.167 -2 40.5v44.5v25v490c0 8.66699 4.33301 14 13 16l75 16c2 0.666992 4.33301 1 7 1c5.33301 0 8 -5 8 -15v-591c0 -28.667 11.333 -43 34 -43c12.667 0 24.667 2.66699 36 8c4 2 7 3 9 3c3.33301 0 6 -2.33301 8 -7z" />
    <glyph glyph-name="m" unicode="m" horiz-adv-x="769" 
d="M692 14c0 -6 -1.00293 -9.83398 -3.00293 -11.501s-6 -2.5 -12 -2.5h-71c-6 0 -9.83301 0.833008 -11.5 2.5s-2.5 5.5 -2.5 11.5v331c0 27.333 -4.16699 46.833 -12.5 58.5s-22.166 17.5 -41.499 17.5c-25.333 0 -56.666 -14.667 -93.999 -44v-364
c0 -6 -0.666992 -9.66699 -2 -11s-5.33301 -2 -12 -2h-71c-6 0 -10 0.833008 -12 2.5s-3 5.5 -3 11.5v325c0 28.667 -4.33301 49.167 -13 61.5s-22.667 18.5 -42 18.5c-26.667 0 -57.667 -14.333 -93 -43v-362c0 -6 -0.833008 -9.83301 -2.5 -11.5s-5.5 -2.5 -11.5 -2.5h-71
c-6.66699 0 -10.834 0.666992 -12.501 2s-2.5 5.33301 -2.5 12v348c0 34.667 -4 61.667 -12 81c-4.66699 10.667 -7 18 -7 22c0 4.66699 2.33301 8 7 10l61 25c4 1.33301 6.66699 2 8 2c12.667 0 23.334 -21.333 32.001 -64c28 23.333 52.833 40 74.5 50
s44.834 15 69.501 15c48.667 0 83 -21.667 103 -65c53.333 43.333 103 65 149 65c23.333 0 42.833 -4 58.5 -12s27 -19.667 34 -35s11.833 -31.166 14.5 -47.499s4 -35.833 4 -58.5v-336z" />
    <glyph glyph-name="n" unicode="n" horiz-adv-x="540" 
d="M463 14c0 -6 -1.00098 -9.83398 -3.00098 -11.501s-6 -2.5 -12 -2.5h-72c-6 0 -9.66699 0.666992 -11 2s-2 5.33301 -2 12v321c0 29.333 -5 50.666 -15 63.999s-26 20 -48 20c-34.667 0 -71 -17.333 -109 -52v-353c0 -6 -0.833008 -9.83301 -2.5 -11.5
s-5.5 -2.5 -11.5 -2.5h-72c-6 0 -9.83301 0.833008 -11.5 2.5s-2.5 5.5 -2.5 11.5v341c0 38.667 -6.33301 71.667 -19 99c-2 4 -3 7.33301 -3 10s2.33301 5.33398 7 8.00098l66 30c1.33301 0.666992 3.33301 1 6 1c8.66699 0 20.334 -22.667 35.001 -68
c21.333 16.667 37.333 28.667 48 36s25.167 14.333 43.5 21s37.166 10 56.499 10c46.667 0 80.334 -11.667 101.001 -35s31 -62.666 31 -117.999v-335z" />
    <glyph glyph-name="o" unicode="o" horiz-adv-x="508" 
d="M463 245c0 -80.667 -18.833 -144.167 -56.5 -190.5s-89.167 -69.5 -154.5 -69.5s-116 22.667 -152 68s-54 108.666 -54 189.999s18.667 145 56 191s89 69 155 69c64.667 0 115.167 -22.667 151.5 -68s54.5 -108.666 54.5 -189.999zM355 247c0 116 -33.333 174 -100 174
c-67.333 0 -101 -58 -101 -174c0 -62 8.16699 -107.5 24.5 -136.5s41.833 -43.5 76.5 -43.5s60 14.5 76 43.5s24 74.5 24 136.5z" />
    <glyph glyph-name="p" unicode="p" 
d="M477 254c0 -86.667 -14.999 -153.166 -44.999 -199.499s-73.333 -69.5 -130 -69.5c-36.667 0 -73.334 11.667 -110.001 35v-198c0 -8 -4 -13 -12 -15l-73 -18c-2 -0.666992 -4.66699 -1 -8 -1c-5.33301 0 -8 5 -8 15v546c0 36 -5.66699 65.333 -17 88
c-5.33301 13.333 -8 20.666 -8 21.999c0 4 2 7 6 9l65 33c3.33301 2 6 3 8 3c10.667 0 21.667 -19 33 -57c46 37.333 90.667 56 134 56c110 0 165 -83 165 -249zM373.001 251.001c0 59.333 -6.50098 102.167 -19.501 128.5s-34.5 39.5 -64.5 39.5
c-27.333 0 -59.666 -14.333 -96.999 -43v-277c33.333 -20 63.333 -30 90 -30c34 0 57.667 13.5 71 40.5s20 74.167 20 141.5z" />
    <glyph glyph-name="q" unicode="q" horiz-adv-x="508" 
d="M450 446c-12 -27.333 -18 -60.667 -18 -100v-521c0 -10 -4 -15.667 -12 -17l-75 -18c-2.66699 -0.666992 -5.33398 -1 -8.00098 -1c-4.66699 0 -7 4.66699 -7 14v230c-37.333 -32 -77.666 -48 -120.999 -48c-50.667 0 -90.5 22.167 -119.5 66.5
s-43.5 105.833 -43.5 184.5c0 84 15.833 149.5 47.5 196.5s75.5 70.5 131.5 70.5c42 0 83.333 -15.667 124 -47c13.333 32 25 48 35 48c2 0 5 -0.666992 9 -2l57 -25c5.33301 -2.66699 8 -6 8 -10c0 -2.66699 -1.33301 -6.66699 -4 -12s-4 -8.33301 -4 -9zM330 115.999v269
c-30 22.667 -59.333 34 -88 34c-60.667 0 -91 -58 -91 -174c0 -117.333 28 -176 84 -176c31.333 0 63 15.667 95 47z" />
    <glyph glyph-name="r" unicode="r" horiz-adv-x="358" 
d="M359 474l-25.998 -63.999c-2.66699 -6.66699 -6 -10 -10 -10h-2c-18.667 5.33301 -31 8 -37 8c-23.333 0 -52.666 -20.333 -87.999 -61v-333c0 -6.66699 -0.666992 -10.667 -2 -12s-5.33301 -2 -12 -2h-71c-6 0 -10 0.833008 -12 2.5s-3 5.5 -3 11.5v303
c0 56 -6.66699 97.667 -20 125c-0.666992 1.33301 -1.83398 3.5 -3.50098 6.5s-3 5.66699 -4 8s-1.5 4.5 -1.5 6.5c0 4 2.33301 7 7 9l60 28c4 1.33301 7 2 9 2c8.66699 0 17.167 -10.833 25.5 -32.5s12.833 -37.5 13.5 -47.5c1.33301 2 3.66602 4.66699 6.99902 8
c14.667 16.667 26.167 29 34.5 37s20.166 16 35.499 24s31.333 12 48 12c13.333 0 25.833 -2 37.5 -6s17.5 -9 17.5 -15c0 -2.66699 -1 -5.33398 -3 -8.00098z" />
    <glyph glyph-name="s" unicode="s" horiz-adv-x="421" 
d="M381 137c0 -45.333 -15.1689 -81.9971 -45.502 -109.997s-70.166 -42 -119.499 -42c-62 0 -116.667 14.333 -164 43c-6.66699 4 -10 7 -10 9c0 0.666992 0.5 2.16699 1.5 4.5s1.83301 4.5 2.5 6.5l21 51c2 4.66699 4.33301 7 7 7c1.33301 0 5.33301 -1.66699 12 -5
c49.333 -24 91.333 -36 126 -36c20.667 0 37.334 5.66699 50.001 17s19 26.666 19 45.999c0 9.33301 -1.66699 17.166 -5 23.499s-9.83301 12.833 -19.5 19.5s-20 12.5 -31 17.5s-27.167 13.167 -48.5 24.5s-42 23 -62 35c-37.333 23.333 -56 58 -56 104
c0 44 15.5 80.167 46.5 108.5s70.833 42.5 119.5 42.5c24.667 0 54.167 -4.66699 88.5 -14s51.5 -20 51.5 -32c0 -2.66699 -1 -6 -3 -10l-21 -44c-2.66699 -5.33301 -6 -8 -10 -8c-2.66699 0 -6 1 -10 3c-36.667 16.667 -68 25 -94 25c-22.667 0 -40 -5.16699 -52 -15.5
s-18 -24.833 -18 -43.5c0 -14 4.16699 -25.333 12.5 -34s24.5 -19.334 48.5 -32.001c71.333 -38.667 113 -63 125 -73c23.333 -18 36 -42.667 38 -74v-14z" />
    <glyph glyph-name="t" unicode="t" horiz-adv-x="359" 
d="M356 34c1.33301 -5.33301 2.00098 -8.66797 2.00098 -10.001c0 -9.33301 -16.5 -17.833 -49.5 -25.5s-60.167 -11.5 -81.5 -11.5c-48.667 0 -82.167 12.833 -100.5 38.5s-27.5 63.167 -27.5 112.5v272h-69c-6.66699 0 -11 1 -13 3s-3 6 -3 12v48c0 6 1 10 3 12
s6.33301 3 13 3h69v131c0 8 4.33301 13 13 15l67 13c6.66699 1.33301 10.667 2 12 2c5.33301 0 8 -4.66699 8 -14v-147h132c8.66699 0 13 -2.66699 13 -8c0 -1.33301 -0.666992 -4.66602 -2 -9.99902l-11 -47c-2 -8.66699 -7 -13 -15 -13h-117v-262
c0 -29.333 3.16699 -48.833 9.5 -58.5s19.5 -14.5 39.5 -14.5c19.333 0 44.666 6.66699 75.999 20c2.66699 1.33301 5.66699 2 9 2c4 0 7 -4 9 -12z" />
    <glyph glyph-name="u" unicode="u" horiz-adv-x="523" 
d="M465 30c2.66699 -4 3.99707 -7 3.99707 -9c0 -3.33301 -2.33301 -6 -7 -8l-63 -24c-4 -1.33301 -6.66699 -2 -8 -2c-13.333 0 -24.666 19 -33.999 57c-44.667 -39.333 -91.667 -59 -141 -59c-52.667 0 -89.667 13.833 -111 41.5s-32 68.5 -32 122.5v319
c0 8 4.33301 13 13 15l68 17c2 0.666992 5 1 9 1c6.66699 0 10 -4.33301 10 -13v-316c0 -38.667 4.83301 -65.5 14.5 -80.5s26.834 -22.5 51.501 -22.5c34.667 0 69.334 14.667 104.001 44v355c0 8 4.33301 13 13 15l69 17c5.33301 1.33301 9 2 11 2
c4.66699 0 7 -4.66699 7 -14v-358c0 -42 7.33301 -75.333 22 -100z" />
    <glyph glyph-name="v" unicode="v" horiz-adv-x="449" 
d="M442 462l-172.002 -464.001c-2.66699 -7.33301 -8 -11 -16 -11h-60c-5.33301 0 -8.66602 0.5 -9.99902 1.5s-3 4.16699 -5 9.5l-166 465c-2 4.66699 -3 8.66699 -3 12c0 4.66699 4 7.33398 12 8.00098l76 12c0.666992 0 1.66699 0.166992 3 0.5s2.33301 0.5 3 0.5
c6 0 10 -4 12 -12l86 -277c8.66699 -28 17.334 -63 26.001 -105c10.667 48 19.667 82.667 27 104l94 278c2.66699 7.33301 6.66699 11 12 11c4 0 7 -0.333008 9 -1l64 -12c7.33301 -2 11 -4.66699 11 -8c0 -2 -1 -6 -3 -12z" />
    <glyph glyph-name="w" unicode="w" horiz-adv-x="650" 
d="M633 462l-134 -458.002c-2 -7.33301 -6.66699 -11 -14 -11h-59c-4.66699 0 -8 0.166992 -10 0.5s-3.83301 1.33301 -5.5 3s-2.83398 4.5 -3.50098 8.5l-63 279c-1.33301 6 -5.66602 38 -12.999 96c-5.33301 -43.333 -10.666 -75 -15.999 -95l-78 -280
c-1.33301 -5.33301 -2.83301 -8.66602 -4.5 -9.99902s-4.5 -2 -8.5 -2h-62c-8 0 -13 4 -15 12l-117 459c-0.666992 2 -1 4.66699 -1 8c0 4.66699 4 8 12 10l69 14c2.66699 0.666992 5.33398 1 8.00098 1c3.33301 0 6 -4.33301 8 -13l52 -244
c0.666992 -1.33301 8 -48.666 22 -141.999c5.33301 53.333 11 90.333 17 111l71 267c1.33301 6 2.66602 9.66699 3.99902 11s4.66602 2 9.99902 2h66c4.66699 0 7.83398 -0.666992 9.50098 -2s3.16699 -5 4.5 -11l64 -281c3.33301 -14 8 -46 14 -96
c5.33301 48 11.333 86.667 18 116l65 269c1.33301 8 4.66602 12 9.99902 12c1.33301 0 5.33301 -0.666992 12 -2l60 -13c7.33301 -2 11 -4.33301 11 -7s-1 -6.66699 -3 -12z" />
    <glyph glyph-name="x" unicode="x" horiz-adv-x="469" 
d="M452 29c2.66699 -3.33301 4.00293 -6.66699 4.00293 -10c0 -4 -4 -7 -12 -9l-66 -21c-5.33301 -1.33301 -8.33301 -2 -9 -2c-4.66699 0 -8.66699 2.66699 -12 8l-86 132c-16 23.333 -26.667 40 -32 50c-10.667 -18 -21 -34.333 -31 -49l-91 -133
c-4 -6 -7.66699 -9 -11 -9c-2.66699 0 -6 1.33301 -10 4l-64 24c-8.66699 4 -13 7.33301 -13 10c0 2 1.66699 5.33301 5 10l159 214l-138 197c-4 4.66699 -6 9 -6 13s2.66699 7 8 9l69 27l8 2c3.33301 0 6.66602 -2.66699 9.99902 -8l72 -114
c3.33301 -6 8.66602 -15 15.999 -27s12.666 -21 15.999 -27c6.66699 10.667 18.667 28.667 36 54l77 113c4 6 7.66699 9 11 9c1.33301 0 5.33301 -1.33301 12 -4l63 -25c5.33301 -2 8 -5 8 -9c0 -3.33301 -2.33301 -8 -7 -14l-141 -192z" />
    <glyph glyph-name="y" unicode="y" horiz-adv-x="446" 
d="M441 462l-115.998 -414.002l-10.5 -39.5l-12 -44.5c-3 -10.667 -7.5 -25 -13.5 -43s-12 -32.333 -18 -43s-13.667 -22.667 -23 -36s-19.166 -23.666 -29.499 -30.999s-22.833 -13.666 -37.5 -18.999s-30.334 -8 -47.001 -8c-21.333 0 -48.333 5.16699 -81 15.5
s-49 21.166 -49 32.499c0 2 0.333008 3.66699 1 5l28 57c2 3.33301 4 5 6 5c0.666992 0 3.66699 -1.33301 9 -4c30 -18.667 56.667 -28 80 -28c19.333 0 35 6.33301 47 19s22.667 33.334 32 62.001l16 52h-40c-8.66699 0 -14.334 3.66699 -17.001 11l-156 447
c-2 5.33301 -3 9.33301 -3 12c0 4 4 7 12 9l75 15c1.33301 0 2.66602 0.166992 3.99902 0.5s2.33301 0.5 3 0.5c6.66699 0 11.334 -4 14.001 -12l97 -312c6 -18.667 16 -59.667 30 -123c1.33301 8.66699 3.16602 19.834 5.49902 33.501l6.5 37c2 11 4.33301 21.167 7 30.5
l82 334c2 8.66699 5.33301 13 10 13c0.666992 0 1.5 -0.166992 2.5 -0.5s1.83301 -0.5 2.5 -0.5l77 -19c4.66699 -0.666992 7 -3.33398 7 -8.00098c0 -2.66699 -0.333008 -4.66699 -1 -6z" />
    <glyph glyph-name="z" unicode="z" horiz-adv-x="425" 
d="M403 68l-24 -57c-2.66699 -7.33301 -8 -11 -16 -11h-316c-6.66699 0 -10.667 0.666992 -12 2s-2 5.33301 -2 12v55l242 337h-207c-6.66699 0 -10.834 0.833008 -12.501 2.5s-2.5 5.83398 -2.5 12.501v52c0 6 0.833008 10 2.5 12s5.83398 3 12.501 3h308c6 0 10 -1 12 -3
s3 -6 3 -12v-57l-238 -331h239c10 0 15 -2 15 -6c0 -0.666992 -1.33301 -4.33398 -4 -11.001z" />
    <glyph glyph-name="braceleft" unicode="{" 
d="M400 -179c0 -2.66699 -0.336914 -4.99512 -1.00391 -6.99512s-2 -3.66699 -4 -5s-3.66699 -2.33301 -5 -3s-3.66602 -1.16699 -6.99902 -1.5s-5.66602 -0.5 -6.99902 -0.5h-8h-7h-19c-51.333 0.666992 -87.833 12.667 -109.5 36s-32.5 61.333 -32.5 114v165
c0 21.333 -3 38.666 -9 51.999s-12.5 22.166 -19.5 26.499s-13.5 8.83301 -19.5 13.5s-9 10 -9 16v52c0 6 3 11.5 9 16.5s12.5 9.5 19.5 13.5s13.5 12.167 19.5 24.5s9 28.166 9 47.499v171c0 51.333 11.833 88.166 35.5 110.499s62.167 33.5 115.5 33.5h11
c12.667 0 21.167 -0.166992 25.5 -0.5s7.5 -1.66602 9.5 -3.99902s3 -6.5 3 -12.5v-55c0 -7.33301 -1 -11.833 -3 -13.5s-6.66699 -2.5 -14 -2.5c-33.333 -0.666992 -55.666 -6 -66.999 -16s-17 -31.667 -17 -65v-154c0 -34 -4.16699 -59.333 -12.5 -76
s-24.833 -32.334 -49.5 -47.001c22.667 -13.333 38.667 -29.333 48 -48s14 -44.667 14 -78v-149c0 -34.667 5.33301 -57.334 16 -68.001s33.334 -16 68.001 -16c7.33301 0 12 -0.833008 14 -2.5s3 -6.16699 3 -13.5v-54z" />
    <glyph glyph-name="bar" unicode="|" 
d="M312 -154c0 -7.33301 -1.16699 -12 -3.5 -14s-7.16602 -3 -14.499 -3h-66c-7.33301 0 -11.833 1 -13.5 3s-2.5 6.66699 -2.5 14v824c0 7.33301 0.833008 11.833 2.5 13.5s6.16699 2.5 13.5 2.5h66c7.33301 0 12.166 -1 14.499 -3s3.5 -6.33301 3.5 -13v-824z" />
    <glyph glyph-name="braceright" unicode="}" 
d="M396 221c0 -6 -3.00098 -11.499 -9.00098 -16.499s-12.667 -9.5 -20 -13.5s-14 -12.167 -20 -24.5s-9 -28.166 -9 -47.499v-171c0 -51.333 -11.667 -88.166 -35 -110.499s-61.666 -33.5 -114.999 -33.5h-11c-12.667 0 -21.167 0.166992 -25.5 0.5
s-7.5 1.66602 -9.5 3.99902s-3 6.5 -3 12.5v54c0 7.33301 0.833008 11.666 2.5 12.999s6.5 2.33301 14.5 3c34.667 1.33301 57.334 6.83301 68.001 16.5s16 31.5 16 65.5v154c0 34 4.16699 59.333 12.5 76s24.5 32.334 48.5 47.001
c-22.667 13.333 -38.5 29.166 -47.5 47.499s-13.5 44.166 -13.5 77.499v150c0 34.667 -5.33301 57.167 -16 67.5s-33.334 15.5 -68.001 15.5c-7.33301 0 -12 1 -14 3s-3 6.66699 -3 14v54c0 2.66699 0.333008 5 1 7s2 3.5 4 4.5s3.83301 1.83301 5.5 2.5s4 1.16699 7 1.5
s5.33301 0.5 7 0.5h8h6.5h18c51.333 -0.666992 87.833 -12.5 109.5 -35.5s32.5 -60.833 32.5 -113.5v-165c0 -21.333 3 -38.833 9 -52.5s12.667 -22.5 20 -26.5s14 -8.5 20 -13.5s9 -10.5 9 -16.5v-51z" />
    <glyph glyph-name="asciitilde" unicode="~" horiz-adv-x="701" 
d="M594 707c-36 -72 -84.6689 -108 -146.002 -108c-22.667 0 -53.667 8 -93 24l-54 22c-22 9.33301 -40.333 14 -55 14c-16 0 -29.667 -4.16699 -41 -12.5s-23 -22.5 -35 -42.5c-4 -6.66699 -7.66699 -10 -11 -10c-4 0 -8 1.66699 -12 5l-29 19c-6 3.33301 -9 7 -9 11
c0 2.66699 1.33301 6.66699 4 12c20 42 40.333 71.5 61 88.5s47 25.5 79 25.5c23.333 0 60.666 -10.667 111.999 -32c32 -13.333 52.667 -21.5 62 -24.5s20 -4.5 32 -4.5c32.667 0 58.334 16 77.001 48c4.66699 7.33301 8.33398 11 11.001 11s6.33398 -1.33301 11.001 -4
l32 -19c6.66699 -4 10 -7.33301 10 -10c0 -0.666992 -2 -5 -6 -13z" />
    <glyph glyph-name="sterling" unicode="&#xa3;" horiz-adv-x="526" 
d="M513 68l-16 -53.998c-2.66699 -9.33301 -9 -14 -19 -14h-424c-7.33301 0 -12 1 -14 3s-3 6.66699 -3 14v54c0 7.33301 1 12 3 14s6.66699 3 14 3h79c8 34.667 12 68.667 12 102c0 34 -4.66699 70.667 -14 110h-86c-7.33301 0 -11.833 1.16699 -13.5 3.5
s-2.5 7.16602 -2.5 14.499v44c0 7.33301 0.833008 12 2.5 14s6.16699 3 13.5 3h69c-9.33301 36 -14 68.333 -14 97c0 58 19.833 104.333 59.5 139s92.5 52 158.5 52c29.333 0 63.833 -5.33301 103.5 -16s59.5 -22 59.5 -34c0 -2 -1.33301 -5.66699 -4 -11l-27 -51
c-2.66699 -4.66699 -5.66699 -7 -9 -7c-2.66699 0 -6.66699 1.33301 -12 4c-4 1.33301 -10.167 3.83301 -18.5 7.5s-14.333 6.16699 -18 7.5s-9.16699 3.16602 -16.5 5.49902s-13.5 4 -18.5 5s-11.167 2 -18.5 3s-15 1.5 -23 1.5c-36.667 0 -65.667 -10 -87 -30
s-32 -46.667 -32 -80c0 -18 5.33301 -48.667 16 -92h136c7.33301 0 11.833 -1 13.5 -3s2.5 -6.66699 2.5 -14v-45c0 -7.33301 -0.833008 -12.166 -2.5 -14.499s-6.16699 -3.5 -13.5 -3.5h-121c11.333 -47.333 17 -84.333 17 -111c0 -24.667 -4.33301 -58.334 -13 -101.001
h267c10.667 0 16 -3 16 -9c0 -4 -0.666992 -7.66699 -2 -11z" />
    <glyph glyph-name="currency" unicode="&#xa4;" horiz-adv-x="698" 
d="M642 120l-29.998 -29.002c-6.66699 -5.33301 -11 -8 -13 -8c-2.66699 0 -6.66699 2.66699 -12 8l-88 88c-45.333 -32.667 -94 -49 -146 -49c-50 0 -99.333 16 -148 48l-88 -89c-4.66699 -5.33301 -8.66699 -8 -12 -8c-4 0 -8.33301 2.66699 -13 8l-31 31
c-4.66699 4.66699 -7 8.66699 -7 12c0 2.66699 3 7 9 13l88 88c-32.667 44.667 -49 93.334 -49 146.001c0 50 16 97.667 48 143l-90 88c-5.33301 5.33301 -8 9.33301 -8 12c0 2 2.66699 6.33301 8 13l31 32c5.33301 5.33301 9.33301 8 12 8s6.66699 -2.66699 12 -8l89 -90
c47.333 32.667 96.666 49 147.999 49c49.333 0 97.666 -16 144.999 -48l88 88c5.33301 5.33301 9.33301 8 12 8s6.66699 -2.66699 12 -8l31 -31c5.33301 -5.33301 8 -9.66602 8 -12.999c0 -2.66699 -2.66699 -6.66699 -8 -12l-89 -87c34 -49.333 51 -98 51 -146
c0 -46.667 -16.333 -94 -49 -142l89 -90c5.33301 -6.66699 8 -11 8 -13c0 -2.66699 -2.66699 -6.66699 -8 -12zM510.002 376.998c0 44 -15.333 81.833 -46 113.5s-68 47.5 -112 47.5s-81.667 -15.833 -113 -47.5s-47 -69.5 -47 -113.5s15.667 -81.5 47 -112.5
s69 -46.5 113 -46.5c43.333 0 80.5 15.5 111.5 46.5s46.5 68.5 46.5 112.5z" />
    <glyph glyph-name="section" unicode="&#xa7;" horiz-adv-x="529" 
d="M453 219c0 -60 -36.6699 -109.667 -110.003 -149c32 -18 54.833 -36.667 68.5 -56s20.5 -42.666 20.5 -69.999c0 -43.333 -17 -80.166 -51 -110.499s-75.667 -45.5 -125 -45.5c-58 0 -111.333 15.667 -160 47c-11.333 7.33301 -17 12.666 -17 15.999
c0 1.33301 1.33301 4.66602 4 9.99902l27 52c2.66699 4.66699 5.66699 7 9 7c2 0 6.33301 -2 13 -6c46.667 -30 89.334 -45 128.001 -45c20.667 0 37.5 5.83301 50.5 17.5s19.5 26.5 19.5 44.5c0 15.333 -4 28 -12 38s-23.667 21 -47 33l-95 50
c-32 16.667 -56 35.167 -72 55.5s-24 47.166 -24 80.499c0 34 8.83301 62.833 26.5 86.5s45.834 44.834 84.501 63.501c-30 15.333 -51.5 32.166 -64.5 50.499s-19.5 40.5 -19.5 66.5c0 42 16.167 76.833 48.5 104.5s73.166 41.5 122.499 41.5
c25.333 0 55.833 -5.83301 91.5 -17.5s53.5 -23.834 53.5 -36.501c0 -1.33301 -0.666992 -3.33301 -2 -6l-28 -52c-2 -4.66699 -5 -7 -9 -7c-3.33301 0 -7.66602 1.66699 -12.999 5c-1.33301 0.666992 -4.66602 2.5 -9.99902 5.5s-8.83301 4.83301 -10.5 5.5
s-4.83398 2.16699 -9.50098 4.5s-8.16699 4 -10.5 5l-9.5 4c-4 1.66699 -7.5 2.66699 -10.5 3s-6.66699 1 -11 2s-8.5 1.66699 -12.5 2s-8.33301 0.5 -13 0.5c-21.333 0 -38.666 -4.66699 -51.999 -14s-20 -22 -20 -38c0 -11.333 2.83301 -20.666 8.5 -27.999
s17.167 -15.666 34.5 -24.999l109 -57c66 -34 99 -80 99 -138zM353.997 207c0 18 -6.33301 33.3291 -19 45.9961s-37 28.667 -73 48c-55.333 -29.333 -83 -63 -83 -101c0 -8 1.33301 -15.5 4 -22.5s5.5 -12.667 8.5 -17s8.33301 -9.16602 16 -14.499
s13.667 -9.16602 18 -11.499l23.5 -12.5l23 -12c29.333 16.667 50.333 32.334 63 47.001s19 31.334 19 50.001z" />
    <glyph glyph-name="dieresis" unicode="&#xa8;" horiz-adv-x="508" 
d="M409 648c0 -17.333 -5.83301 -31.833 -17.5 -43.5s-26.167 -17.5 -43.5 -17.5c-16.667 0 -31 6 -43 18s-18 26.333 -18 43c0 17.333 6 32.166 18 44.499s26.333 18.5 43 18.5s31 -6.16699 43 -18.5s18 -27.166 18 -44.499zM222 648c0 -16.667 -6.16699 -31 -18.5 -43
s-26.833 -18 -43.5 -18s-30.834 6 -42.501 18s-17.5 26.333 -17.5 43c0 17.333 5.83301 32.166 17.5 44.499s25.834 18.5 42.501 18.5s31.167 -6.16699 43.5 -18.5s18.5 -27.166 18.5 -44.499z" />
    <glyph glyph-name="copyright" unicode="&#xa9;" horiz-adv-x="731" 
d="M693 343c0 -98 -31.832 -181.833 -95.499 -251.5s-140.834 -104.5 -231.501 -104.5c-90 0 -167.167 34.833 -231.5 104.5s-96.5 153.167 -96.5 250.5c0 100 32.167 184.5 96.5 253.5s142.833 103.5 235.5 103.5c88 0 163.833 -35.167 227.5 -105.5
s95.5 -153.833 95.5 -250.5zM626.001 342c0 83.333 -25.5 154 -76.5 212s-113.167 87 -186.5 87c-70.667 0 -131.167 -29.167 -181.5 -87.5s-75.5 -128.5 -75.5 -210.5s25.333 -152.167 76 -210.5s112 -87.5 184 -87.5c71.333 0 132.5 29 183.5 87s76.5 128 76.5 210z
M483.001 178c0 -11.333 -12.1689 -22.498 -36.502 -33.498s-49.166 -16.5 -74.499 -16.5c-52 0 -91.5 18.833 -118.5 56.5s-40.5 92.167 -40.5 163.5c0 67.333 13.5 119.166 40.5 155.499s65.167 54.5 114.5 54.5c24 0 48.833 -5.83301 74.5 -17.5
s38.5 -22.834 38.5 -33.501c0 -2.66699 -0.666992 -4.66699 -2 -6c-18.667 -27.333 -30 -41 -34 -41l-5 3c-4 2 -8.66699 4.66699 -14 8s-11.166 6.5 -17.499 9.5s-12.833 5.5 -19.5 7.5s-12.667 3 -18 3c-47.333 0 -71 -45 -71 -135c0 -107.333 26 -161 78 -161
c16 0 36 8.33301 60 25c3.33301 2.66699 7 4 11 4c3.33301 0 7 -2.66699 11 -8l20 -29c2 -3.33301 3 -6.33301 3 -9z" />
    <glyph glyph-name="guillemotleft" unicode="&#xab;" horiz-adv-x="552" 
d="M489 431l-124 -189l123 -186c4 -6 6 -10.333 6 -13c0 -3.33301 -3.66699 -7 -11 -11l-38 -23c-6.66699 -3.33301 -10.667 -5 -12 -5c-3.33301 0 -7.33301 3 -12 9l-168 220c-3.33301 3.33301 -5 7.33301 -5 12s1.66699 8.66699 5 12l168 216c4.66699 6 8.66699 9 12 9
c2.66699 0 6.66699 -1.66699 12 -5l38 -22c7.33301 -3.33301 11 -7.33301 11 -12c0 -2.66699 -1.66699 -6.66699 -5 -12zM282 56c3.33301 -5.33301 5.00098 -9.33301 5.00098 -12c0 -3.33301 -3.66699 -7.33301 -11 -12l-39 -23c-6.66699 -3.33301 -10.334 -5 -11.001 -5
c-2.66699 0 -6.33398 3 -11.001 9l-169 220c-3.33301 3.33301 -5 7.33301 -5 12c0 4 1.66699 8 5 12l169 216c4.66699 6 8.33398 9 11.001 9c2 0 5.66699 -1.66699 11 -5l39 -22c7.33301 -3.33301 11 -7.33301 11 -12c0 -2.66699 -1.66699 -6.66699 -5 -12l-125 -189z" />
    <glyph glyph-name="logicalnot" unicode="&#xac;" 
d="M484 17c0 -7.33301 -0.833008 -11.999 -2.5 -13.999s-6.16699 -3 -13.5 -3h-66c-7.33301 0 -12 1 -14 3s-3 6.66699 -3 14v168h-330c-7.33301 0 -12 1.16699 -14 3.5s-3 7.16602 -3 14.499v55c0 7.33301 1 12 3 14s6.66699 3 14 3h413c7.33301 0 11.833 -1 13.5 -3
s2.5 -6.66699 2.5 -14v-241z" />
    <glyph glyph-name="registered" unicode="&#xae;" horiz-adv-x="731" 
d="M693 343c0 -98 -31.832 -181.833 -95.499 -251.5s-140.834 -104.5 -231.501 -104.5c-90 0 -167.167 34.833 -231.5 104.5s-96.5 153.167 -96.5 250.5c0 100 32.167 184.5 96.5 253.5s142.833 103.5 235.5 103.5c88 0 163.833 -35.167 227.5 -105.5
s95.5 -153.833 95.5 -250.5zM626.001 342c0 83.333 -25.5 154 -76.5 212s-113.167 87 -186.5 87c-70.667 0 -131.167 -29.167 -181.5 -87.5s-75.5 -128.5 -75.5 -210.5s25.333 -152.167 76 -210.5s112 -87.5 184 -87.5c71.333 0 132.5 29 183.5 87s76.5 128 76.5 210z
M518.001 163c0 -6 -4.66699 -10.001 -14 -12.001l-43 -10c-2 -1.33301 -4.33301 -2 -7 -2c-5.33301 0 -10 3.33301 -14 10l-90 165h-33v-151c0 -10.667 -5.66699 -16 -17 -16h-44c-6.66699 0 -11.167 1.16699 -13.5 3.5s-3.5 6.83301 -3.5 13.5v367
c0 10.667 5.66699 16 17 16h97c49.333 0 85 -8.83301 107 -26.5s33 -45.5 33 -83.5c0 -53.333 -23.667 -91 -71 -113l92 -151c2.66699 -3.33301 4 -6.66602 4 -9.99902zM414.001 434.999c0 19.333 -4.83301 32.834 -14.5 40.501s-27.167 11.5 -52.5 11.5h-30v-112h26
c25.333 0 43.5 4.66699 54.5 14s16.5 24.666 16.5 45.999z" />
    <glyph glyph-name="degree" unicode="&#xb0;" 
d="M412 537c0 -40.667 -14.833 -75.5 -44.5 -104.5s-65.167 -43.5 -106.5 -43.5s-76.833 14.5 -106.5 43.5s-44.5 63.833 -44.5 104.5s14.833 75.5 44.5 104.5s65.167 43.5 106.5 43.5s76.833 -14.5 106.5 -43.5s44.5 -63.833 44.5 -104.5zM351 537
c0 24.667 -8.83203 45.667 -26.499 63s-38.834 26 -63.501 26s-45.667 -8.83301 -63 -26.5s-26 -38.5 -26 -62.5c0 -24.667 8.66699 -46 26 -64s38.333 -27 63 -27c24 0 45 9.16699 63 27.5s27 39.5 27 63.5z" />
    <glyph glyph-name="plusminus" unicode="&#xb1;" horiz-adv-x="526" 
d="M491 227c0 -7.33301 -1 -12 -3 -14s-6.66699 -3 -14 -3h-166v-131c0 -7.33301 -1 -12.166 -3 -14.499s-6.66699 -3.5 -14 -3.5h-57c-7.33301 0 -12 1.16699 -14 3.5s-3 7.16602 -3 14.499v131h-165c-7.33301 0 -12 1 -14 3s-3 6.66699 -3 14v55c0 7.33301 1 12 3 14
s6.66699 3 14 3h165v167c0 7.33301 1 11.833 3 13.5s6.66699 2.5 14 2.5h57c7.33301 0 12 -0.833008 14 -2.5s3 -6.16699 3 -13.5v-167h166c7.33301 0 12 -1 14 -3s3 -6.66699 3 -14v-55zM494 -42c0 -7.33301 -1.16699 -12 -3.5 -14s-7.16602 -3 -14.499 -3h-426
c-7.33301 0 -12 1 -14 3s-3 6.66699 -3 14v53c0 7.33301 1 12 3 14s6.66699 3 14 3h426c7.33301 0 12.166 -1 14.499 -3s3.5 -6.66699 3.5 -14v-53z" />
    <glyph glyph-name="acute" unicode="&#xb4;" horiz-adv-x="513" 
d="M426 663c3.33301 -5.33301 5.00098 -9 5.00098 -11c0 -4 -5 -8 -15 -12l-171 -78c-4.66699 -2 -8.33398 -3 -11.001 -3s-5 2 -7 6l-17 32c-2 4 -3 7 -3 9s3.33301 5.33301 10 10l154 105c4.66699 4 8.66699 6 12 6c2.66699 0 6 -3.66699 10 -11z" />
    <glyph glyph-name="mu" unicode="&#xb5;" horiz-adv-x="526" 
d="M468 27c2 -3.33301 3 -6.00195 3 -8.00195s-2.33301 -4 -7 -6l-63 -24c-4.66699 -2 -7.66699 -3 -9 -3c-4.66699 0 -10.167 5.66699 -16.5 17s-11.833 25 -16.5 41c-40 -39.333 -81 -59 -123 -59c-22 0 -43 5 -63 15v-178c0 -9.33301 -4 -14.666 -12 -15.999l-72 -17
c-1.33301 -0.666992 -3 -1 -5 -1c-7.33301 0 -11 4.66699 -11 14v666c0 8 4.33301 13 13 15l71 17c2 0.666992 4.33301 1 7 1c6 0 9 -4.33301 9 -13v-311c0 -42 4.83301 -70.667 14.5 -86s27.167 -23 52.5 -23c35.333 0 70.333 14.667 105 44v356c0 8 4.33301 13 13 15
l72 17c2 0.666992 4.33301 1 7 1c6 0 9 -4.33301 9 -13v-358c0 -45.333 7.33301 -79.666 22 -102.999z" />
    <glyph glyph-name="mu" unicode="&#x3bc;" horiz-adv-x="526" 
d="M468 27c2 -3.33301 3 -6.00195 3 -8.00195s-2.33301 -4 -7 -6l-63 -24c-4.66699 -2 -7.66699 -3 -9 -3c-4.66699 0 -10.167 5.66699 -16.5 17s-11.833 25 -16.5 41c-40 -39.333 -81 -59 -123 -59c-22 0 -43 5 -63 15v-178c0 -9.33301 -4 -14.666 -12 -15.999l-72 -17
c-1.33301 -0.666992 -3 -1 -5 -1c-7.33301 0 -11 4.66699 -11 14v666c0 8 4.33301 13 13 15l71 17c2 0.666992 4.33301 1 7 1c6 0 9 -4.33301 9 -13v-311c0 -42 4.83301 -70.667 14.5 -86s27.167 -23 52.5 -23c35.333 0 70.333 14.667 105 44v356c0 8 4.33301 13 13 15
l72 17c2 0.666992 4.33301 1 7 1c6 0 9 -4.33301 9 -13v-358c0 -45.333 7.33301 -79.666 22 -102.999z" />
    <glyph glyph-name="paragraph" unicode="&#xb6;" horiz-adv-x="647" 
d="M595 625c0 -7.33301 -1.00098 -11.833 -3.00098 -13.5s-6.66699 -2.5 -14 -2.5h-62v-778c0 -7.33301 -0.833008 -12 -2.5 -14s-6.16699 -3 -13.5 -3h-52c-7.33301 0 -12 1 -14 3s-3 6.66699 -3 14v778h-65v-778c0 -7.33301 -0.833008 -12 -2.5 -14s-6.16699 -3 -13.5 -3
h-53c-7.33301 0 -11.833 1 -13.5 3s-2.5 6.66699 -2.5 14v338c-22.667 -4.66699 -44.667 -7 -66 -7c-67.333 0 -118.166 23 -152.499 69s-51.5 110.333 -51.5 193c0 96.667 20.5 164.5 61.5 203.5s109.5 58.5 205.5 58.5h300c7.33301 0 12 -1 14 -3s3 -6.66699 3 -14v-44z
M280.999 245v364.001h-8c-26 0 -47.333 -1.83301 -64 -5.5s-32.667 -11.167 -48 -22.5s-26.5 -29.333 -33.5 -54s-10.5 -56.334 -10.5 -95.001c0 -28.667 1.5 -53.5 4.5 -74.5s8.5 -41 16.5 -60s20.167 -33.333 36.5 -43s36.5 -14.5 60.5 -14.5c12 0 27.333 1.66699 46 5z
" />
    <glyph glyph-name="guillemotright" unicode="&#xbb;" horiz-adv-x="549" 
d="M511 233l-169 -220c-5.33301 -6 -9 -9 -11 -9c-1.33301 0 -5.33301 1.66699 -12 5l-39 23c-7.33301 4.66699 -11 8.66699 -11 12c0 2.66699 1.66699 6.66699 5 12l125 186l-125 189c-3.33301 5.33301 -5 9 -5 11c0 4 4 8.33301 12 13l38 22
c5.33301 3.33301 9.33301 5 12 5c2 0 5.66699 -3 11 -9l169 -216c3.33301 -5.33301 5 -9.33301 5 -12c0 -3.33301 -1.66699 -7.33301 -5 -12zM303 233l-168 -220.001c-5.33301 -6 -9 -9 -11 -9c-1.33301 0 -5.33301 1.66699 -12 5l-39 23
c-7.33301 4.66699 -11 8.33398 -11 11.001s2 7 6 13l124 186l-124 189c-3.33301 4 -5 8.33301 -5 13c0 3.33301 3.33301 7 10 11l39 22c5.33301 3.33301 9.33301 5 12 5c2 0 5.66699 -3 11 -9l168 -216c3.33301 -4.66699 5 -8.66699 5 -12s-1.66699 -7.33301 -5 -12z" />
    <glyph glyph-name="divide" unicode="&#xf7;" 
d="M323 437c0 -16.667 -6.16699 -31.167 -18.5 -43.5s-26.833 -18.5 -43.5 -18.5s-31.167 6.16699 -43.5 18.5s-18.5 26.833 -18.5 43.5s6.16699 31 18.5 43s26.833 18 43.5 18s31.167 -6 43.5 -18s18.5 -26.333 18.5 -43zM484 226c0 -8 -0.833008 -12.999 -2.5 -14.999
s-6.16699 -3 -13.5 -3h-413c-7.33301 0 -12 1.16699 -14 3.5s-3 7.16602 -3 14.499v57c0 7.33301 1 12.166 3 14.499s6.66699 3.5 14 3.5h413c7.33301 0 11.833 -1.16699 13.5 -3.5s2.5 -7.16602 2.5 -14.499v-57zM323 73.001c0 -16.667 -6.16699 -31 -18.5 -43
s-26.833 -18 -43.5 -18s-31.167 6 -43.5 18s-18.5 26.333 -18.5 43s6 31 18 43s26.667 18 44 18c16.667 0 31.167 -6 43.5 -18s18.5 -26.333 18.5 -43z" />
    <glyph glyph-name="dotlessi" unicode="&#x131;" horiz-adv-x="286" 
d="M201 14c0 -6 -0.666992 -9.83496 -2 -11.502s-5 -2.5 -11 -2.5h-73c-6.66699 0 -10.667 0.833008 -12 2.5s-2 5.83398 -2 12.501v395h-77c-6.66699 0 -10.834 0.833008 -12.501 2.5s-2.5 5.83398 -2.5 12.501v48c0 6.66699 0.833008 10.834 2.5 12.501
s5.83398 2.5 12.501 2.5h163c6 0 9.83301 -0.833008 11.5 -2.5s2.5 -5.83398 2.5 -12.501v-459z" />
    <glyph glyph-name="florin" unicode="&#x192;" horiz-adv-x="529" 
d="M551 682l-21 -57.001c-1.33301 -3.33301 -4 -5 -8 -5c-2.66699 0 -5.33398 0.666992 -8.00098 2c-26.667 11.333 -48.667 17 -66 17c-22 0 -38.167 -6.16699 -48.5 -18.5s-19.166 -35.166 -26.499 -68.499l-13 -63h120c10 0 15 -2.66699 15 -8
c0 -4 -0.666992 -7.33301 -2 -10l-16 -44c-2.66699 -8.66699 -8.66699 -13 -18 -13h-116l-88 -431c-12.667 -61.333 -33.5 -107.833 -62.5 -139.5s-72.5 -47.5 -130.5 -47.5c-22 0 -41.167 1.66699 -57.5 5s-24.5 7.33301 -24.5 12c0 3.33301 0.333008 6 1 8l19 61
c0.666992 3.33301 2.66699 5 6 5c5.33301 0 13.5 -0.666992 24.5 -2s19.5 -2 25.5 -2c28.667 0 50.667 8 66 24s27.333 44.667 36 86l88 421h-67c-9.33301 0 -14 3 -14 9c0 3.33301 0.333008 6 1 8l10 44c1.33301 6.66699 2.83301 10.667 4.5 12s5.5 2 11.5 2h72l17 78
c12.667 59.333 31.667 99.5 57 120.5s62 31.5 110 31.5c19.333 0 41.833 -3.16699 67.5 -9.5s38.5 -12.5 38.5 -18.5c0 -0.666992 -0.5 -2 -1.5 -4s-1.5 -3.66699 -1.5 -5z" />
    <glyph glyph-name="dotaccent" unicode="&#x2d9;" horiz-adv-x="508" 
d="M324 633c0 -19.333 -6.83301 -35.833 -20.5 -49.5s-30.167 -20.5 -49.5 -20.5s-35.833 6.83301 -49.5 20.5s-20.5 30.167 -20.5 49.5s6.83301 35.833 20.5 49.5s30.167 20.5 49.5 20.5s35.833 -6.83301 49.5 -20.5s20.5 -30.167 20.5 -49.5z" />
    <glyph glyph-name="Delta" unicode="&#x394;" horiz-adv-x="572" 
d="M239 686h94c6 0 9.66699 -3 11 -9l203 -663c0.666992 -1.33301 1 -3 1 -5c0 -6 -3 -9 -9 -9h-503c-8 -0 -12 3.33301 -12 10v2l1 2l202 660c2.66699 8 6.66699 12 12 12zM412 89l-125 457h-3l-125 -457h253z" />
    <glyph glyph-name="Delta" unicode="&#x2206;" horiz-adv-x="572" 
d="M239 686h94c6 0 9.66699 -3 11 -9l203 -663c0.666992 -1.33301 1 -3 1 -5c0 -6 -3 -9 -9 -9h-503c-8 -0 -12 3.33301 -12 10v2l1 2l202 660c2.66699 8 6.66699 12 12 12zM412 89l-125 457h-3l-125 -457h253z" />
    <glyph glyph-name="afii10023" unicode="&#x401;" horiz-adv-x="477" 
d="M105 686l327.999 -0.000976562c11.333 0 17 -2.66699 17 -8c0 -2 -0.333008 -3.66699 -1 -5l-19 -63c-0.666992 -2.66699 -1.33398 -4.66699 -2.00098 -6s-1.66699 -2.66602 -3 -3.99902s-3.16602 -2.33301 -5.49902 -3s-5.16602 -1 -8.49902 -1h-206v-195h187
c7.33301 0 11 -3.33301 11 -10v-66c0 -7.33301 -3.66699 -11 -11 -11h-187v-224h230c6.66699 0 10 -3.66699 10 -11v-68c0 -7.33301 -3.66699 -11 -11 -11h-329c-6.66699 -0 -10 3.33301 -10 10v666c0 6.66699 3.33301 10 10 10zM113.999 811.999
c0 18 5.83301 32.833 17.5 44.5s26.5 17.5 44.5 17.5c17.333 0 32 -5.83301 44 -17.5s18 -26.5 18 -44.5c0 -17.333 -6 -32 -18 -44s-26.667 -18 -44 -18c-18 0 -32.833 6 -44.5 18s-17.5 26.667 -17.5 44zM313.999 811.999c0 18 5.83301 32.833 17.5 44.5
s26.5 17.5 44.5 17.5c17.333 0 32 -5.83301 44 -17.5s18 -26.5 18 -44.5c0 -17.333 -6 -32 -18 -44s-26.667 -18 -44 -18c-18 0 -32.833 6 -44.5 18s-17.5 26.667 -17.5 44z" />
    <glyph glyph-name="afii10051" unicode="&#x402;" horiz-adv-x="613" 
d="M243 591v-189c42 20 85 30 129 30c32.667 0 61 -5.5 85 -16.5s42.333 -24 55 -39s22.667 -33.333 30 -55s11.833 -40.167 13.5 -55.5s2.5 -32 2.5 -50c0 -154.667 -57.667 -232 -173 -232c-19.333 0 -39.666 3.16699 -60.999 9.5s-32 13.166 -32 20.499
c0 0.666992 0.166992 1.5 0.5 2.5s0.5 1.83301 0.5 2.5l13 58c1.33301 6.66699 4.66602 10 9.99902 10s14 -2.66699 26 -8s22 -8 30 -8c30.667 0 51 11.333 61 34s15 57.334 15 104.001c0 18 -1 33.667 -3 47s-6.16699 27.333 -12.5 42s-16.666 26 -30.999 34
s-32.5 12 -54.5 12c-34.667 0 -69.334 -9.33301 -104.001 -28v-300c0 -10.667 -5.33301 -16 -16 -16h-78c-10.667 0 -16 5 -16 15v576h-126c-9.33301 0 -14 4.66699 -14 14v68c0 8.66699 4.66699 13 14 13h411c8.66699 0 13 -3.33301 13 -10c0 -3.33301 -0.333008 -6 -1 -8
l-19 -63c-2.66699 -9.33301 -9 -14 -19 -14h-149z" />
    <glyph glyph-name="afii10052" unicode="&#x403;" horiz-adv-x="474" 
d="M414 590h-209v-574c0 -10.667 -5.33301 -16 -16 -16h-78c-10.667 -0 -16 5.33301 -16 16v656c0 9.33301 4.66699 14 14 14h328c8.66699 0 13 -3.66699 13 -11c0 -0.666992 -0.166992 -1.5 -0.5 -2.5s-0.5 -1.83301 -0.5 -2.5l-20 -69
c-2.66699 -7.33301 -7.66699 -11 -15 -11zM401 832c3.33301 -5.33301 5 -9 5 -11c0 -4 -5 -8 -15 -12l-171 -78c-5.33301 -2 -9 -3 -11 -3c-2.66699 0 -5 2 -7 6l-17 32c-2 4 -3 7 -3 9s3.33301 5.33301 10 10l154 105c5.33301 4 9.33301 6 12 6s6 -3.66699 10 -11z" />
    <glyph glyph-name="afii10053" unicode="&#x404;" horiz-adv-x="478" 
d="M420 113l30.9971 -49c1.33301 -2.66699 2 -4.66699 2 -6c0 -6 -6.16699 -14.5 -18.5 -25.5s-32.166 -21.667 -59.499 -32s-57.666 -15.5 -90.999 -15.5c-159.333 0 -239 119.333 -239 358c0 18.667 0.333008 36.5 1 53.5s2.83398 38.167 6.50098 63.5
s8.66699 48.333 15 69s15.333 42.167 27 64.5s25.667 41 42 56s36.833 27.5 61.5 37.5s52.334 15 83.001 15c35.333 0 71.833 -8.66699 109.5 -26s56.5 -34.666 56.5 -51.999c0 -3.33301 -0.666992 -5.66602 -2 -6.99902l-33 -48c-3.33301 -5.33301 -6.33301 -8 -9 -8
c-3.33301 0 -10 4 -20 12c-34 27.333 -65 41 -93 41c-32 0 -57.833 -10.333 -77.5 -31s-32.834 -45.5 -39.501 -74.5s-10.667 -64.5 -12 -106.5h175c11.333 0 17 -5.66699 17 -17v-57c0 -10.667 -5.33301 -16 -16 -16h-176c0 -16.667 0.333008 -32.167 1 -46.5
s3.5 -34.333 8.5 -60s11.833 -47.334 20.5 -65.001s22 -33.334 40 -47.001s39 -20.5 63 -20.5c26.667 0 58 12 94 36l9 6c6.66699 4 10.667 6 12 6c4 0 7.66699 -2.66699 11 -8z" />
    <glyph glyph-name="afii10054" unicode="&#x405;" horiz-adv-x="484" 
d="M448 188c0 -60.667 -19.665 -109.331 -58.998 -145.998s-91.333 -55 -156 -55c-31.333 0 -72 6.5 -122 19.5s-75 25.833 -75 38.5c0 3.33301 1 7.33301 3 12l25 65c2 4 4.66699 6 8 6s10 -3 20 -9c49.333 -26 96.666 -39 141.999 -39c32.667 0 58.5 8.66699 77.5 26
s28.5 41.333 28.5 72s-7.66699 54 -23 70s-51 39 -107 69c-28.667 15.333 -49.667 27.166 -63 35.499s-29.333 20.666 -48 36.999s-31.834 34.5 -39.501 54.5s-11.5 43 -11.5 69c0 56 19.167 101 57.5 135s88.833 51 151.5 51c64.667 0 121 -15 169 -45
c6.66699 -4.66699 10 -8.66699 10 -12c0 -0.666992 -0.666992 -3 -2 -7l-26 -60c-2 -5.33301 -5.33301 -8 -10 -8s-10.667 2.33301 -18 7c-44.667 23.333 -85.334 35 -122.001 35c-31.333 0 -55.833 -7.5 -73.5 -22.5s-26.5 -35.833 -26.5 -62.5
c0 -23.333 5.83301 -41.666 17.5 -54.999s36.834 -30.333 75.501 -51c64 -34.667 105.333 -59.334 124 -74.001c48.667 -39.333 73 -91.333 73 -156z" />
    <glyph glyph-name="afii10055" unicode="&#x406;" horiz-adv-x="341" 
d="M314 17c0 -7.33301 -1.16699 -12 -3.5 -14s-7.16602 -3 -14.499 -3h-252c-7.33301 0 -12 1 -14 3s-3 6.66699 -3 14v48c0 7.33301 1 12 3 14s6.66699 3 14 3h71v522h-71c-7.33301 0 -12 1 -14 3s-3 6.66699 -3 14v48c0 7.33301 1 12 3 14s6.66699 3 14 3h252
c7.33301 0 12.166 -1 14.499 -3s3.5 -6.66699 3.5 -14v-48c0 -7.33301 -1.16699 -12 -3.5 -14s-7.16602 -3 -14.499 -3h-71v-522h71c7.33301 0 12.166 -1 14.499 -3s3.5 -6.66699 3.5 -14v-48z" />
    <glyph glyph-name="afii10056" unicode="&#x407;" horiz-adv-x="351" 
d="M319 17c0 -7.33301 -1.16699 -12 -3.5 -14s-7.16602 -3 -14.499 -3h-252c-7.33301 0 -12 1 -14 3s-3 6.66699 -3 14v48c0 7.33301 1 12 3 14s6.66699 3 14 3h71v522h-71c-7.33301 0 -12 1 -14 3s-3 6.66699 -3 14v48c0 7.33301 1 12 3 14s6.66699 3 14 3h252
c7.33301 0 12.166 -1 14.499 -3s3.5 -6.66699 3.5 -14v-48c0 -7.33301 -1.16699 -12 -3.5 -14s-7.16602 -3 -14.499 -3h-71v-522h71c7.33301 0 12.166 -1 14.499 -3s3.5 -6.66699 3.5 -14v-48zM329 817c0 -16.667 -5.83301 -31 -17.5 -43s-26.167 -18 -43.5 -18
c-16.667 0 -31 6 -43 18s-18 26.333 -18 43c0 17.333 6 32.166 18 44.499s26.333 18.5 43 18.5s31 -6.16699 43 -18.5s18 -27.166 18 -44.499zM142 817c0 -16.667 -6.16699 -31 -18.5 -43s-26.833 -18 -43.5 -18s-30.834 6 -42.501 18s-17.5 26.333 -17.5 43
c0 17.333 5.83301 32.166 17.5 44.499s25.834 18.5 42.501 18.5s31.167 -6.16699 43.5 -18.5s18.5 -27.166 18.5 -44.499z" />
    <glyph glyph-name="afii10057" unicode="&#x408;" horiz-adv-x="435" 
d="M361 230l0.00390625 -28.002c0 -22 -1.16699 -42.167 -3.5 -60.5s-7.33301 -37.666 -15 -57.999s-18 -37.333 -31 -51s-30.833 -25 -53.5 -34s-49.334 -13.5 -80.001 -13.5c-114.667 0 -173.667 64 -177 192v11c0 4.66699 0.666992 7.83398 2 9.50098s4.33301 2.5 9 2.5
h77c6.66699 0 10 -5.33301 10 -16v-10c0 -66.667 26.667 -100 80 -100c16 0 29.167 3 39.5 9s17.666 15 21.999 27s7.16602 23.5 8.49902 34.5s2 24.5 2 40.5v418h-155c-8 0 -13 0.833008 -15 2.5s-3 6.16699 -3 13.5v50c0 7.33301 1.16699 12 3.5 14s7.16602 3 14.499 3
h248c7.33301 0 12 -1 14 -3s3 -6.66699 3 -14v-439z" />
    <glyph glyph-name="afii10058" unicode="&#x409;" horiz-adv-x="843" 
d="M395 15l-0.00292969 581.001h-154l-1 -97c-1.33301 -95.333 -5.66602 -177.333 -12.999 -246c-2.66699 -22.667 -6.16699 -44.334 -10.5 -65.001s-11.5 -44 -21.5 -70s-21.833 -48.167 -35.5 -66.5s-32.167 -34 -55.5 -47s-49.666 -19.5 -78.999 -19.5
c-11.333 0 -18 4.66699 -20 14l-15 59c0 0.666992 -0.166992 1.66699 -0.5 3s-0.5 2.33301 -0.5 3c0 8.66699 4.66699 13.667 14 15l15 2c27.333 3.33301 50 13.333 68 30c18 17.333 31.667 53 41 107s14.5 101.833 15.5 143.5s1.5 99.5 1.5 173.5v32v104c0 10 5 15 15 15
h330c10.667 0 16 -5.33301 16 -16v-266h91c71.333 0 126.333 -19.333 165 -58c34.667 -34.667 52 -81 52 -139c0 -66 -18.667 -117 -56 -153s-93.666 -54 -168.999 -54h-177c-10.667 0 -16 5 -16 15zM504.997 90.001l71 -0.000976562c33.333 0 62.166 9.33301 86.499 28
s36.5 46.667 36.5 84c0 22.667 -4.16699 41.834 -12.5 57.501s-19.166 27.167 -32.499 34.5s-26 12.5 -38 15.5s-24 4.5 -36 4.5h-75v-224z" />
    <glyph glyph-name="afii10059" unicode="&#x40a;" horiz-adv-x="868" 
d="M436 686h77.999c10.667 0 16 -5.33301 16 -16v-266h91c71.333 0 126.333 -19.333 165 -58c34.667 -34.667 52 -81 52 -139c0 -66 -18.667 -117 -56 -153s-93.666 -54 -168.999 -54h-177c-10.667 0 -16 5 -16 15v299h-220v-297c0 -11.333 -5 -17 -15 -17h-84
c-7.33301 0 -11 3.66699 -11 11v663c0 8 4.33301 12 13 12h82c6 0 10 -1.16699 12 -3.5s3 -6.5 3 -12.5v-266h220v266c0 10.667 5.33301 16 16 16zM529.999 90l71 -0.000976562c33.333 0 62.166 9.33301 86.499 28s36.5 46.667 36.5 84
c0 22.667 -4.16699 41.834 -12.5 57.501s-19.166 27.167 -32.499 34.5s-26 12.5 -38 15.5s-24 4.5 -36 4.5h-75v-224z" />
    <glyph glyph-name="afii10060" unicode="&#x40b;" horiz-adv-x="619" 
d="M243 591l0.000976562 -189c42 20 86.667 30 134 30c60 0 106 -16 138 -48c29.333 -29.333 44 -69.333 44 -120v-248c0 -10.667 -5.33301 -16 -16 -16h-78c-10.667 -0 -16 5.33301 -16 16v236c0 61.333 -31 92 -93 92c-38 0 -75.667 -9.33301 -113 -28v-300
c0 -10.667 -5.33301 -16 -16 -16h-78c-10.667 -0 -16 5.33301 -16 16v575h-128c-8 0 -12 3.66699 -12 11v71c0 8.66699 3.66699 13 11 13h414c8.66699 0 13 -3.33301 13 -10c0 -3.33301 -0.333008 -6 -1 -8l-19 -63c-2.66699 -9.33301 -8.33398 -14 -17.001 -14h-151z" />
    <glyph glyph-name="afii10061" unicode="&#x40c;" horiz-adv-x="581" 
d="M188 0l-77.001 0.000976562c-10.667 0 -16 5.33301 -16 16v659c0 7.33301 3.33301 11 10 11h87c8 0 12 -4.33301 12 -13v-271h51c44.667 0 72.334 26.667 83.001 80l17 79c10.667 48 25 81 43 99c13.333 13.333 29.833 23.5 49.5 30.5s36.167 10.5 49.5 10.5
c9.33301 0 15.333 -4 18 -12l17 -58c0.666992 -1.33301 1 -3.33301 1 -6c0 -6.66699 -4.33301 -11 -13 -13l-20 -4c-12 -2 -22 -7.33301 -30 -16s-13.333 -17.334 -16 -26.001s-5.66699 -21 -9 -37l-14 -63c-12 -56 -37.333 -92 -76 -108c20 -6.66699 37.833 -20 53.5 -40
s26.5 -41.667 32.5 -65l24 -101c2.66699 -10 5.16699 -18.833 7.5 -26.5s5 -14 8 -19s5.5 -9 7.5 -12s5 -5.33301 9 -7s6.66699 -2.83398 8 -3.50098s4.33301 -1.33398 9 -2.00098s7.66699 -1 9 -1l19 -3c10 -3.33301 15 -7.33301 15 -12
c0 -2.66699 -0.333008 -4.66699 -1 -6l-21 -63c-1.33301 -5.33301 -3.16602 -8.66602 -5.49902 -9.99902s-6.83301 -2 -13.5 -2c-44.667 0 -78.334 10 -101.001 30s-39.334 54.333 -50.001 103l-23 107c-7.33301 34.667 -17.666 57.834 -30.999 69.501
s-32.333 17.5 -57 17.5h-50v-296c0 -10.667 -5.33301 -16 -16 -16zM455.999 832.001c3.33301 -5.33301 5.00098 -9 5.00098 -11c0 -4 -5 -8 -15 -12l-171 -78c-4.66699 -2 -8.33398 -3 -11.001 -3s-5 2 -7 6l-17 32c-2 4 -3 7 -3 9s3.33301 5.33301 10 10l154 105
c4.66699 4 8.66699 6 12 6c2.66699 0 6 -3.66699 10 -11z" />
    <glyph glyph-name="afii10062" unicode="&#x40e;" horiz-adv-x="527" 
d="M402 853c0 -31.333 -13.333 -58.501 -40 -81.501s-58 -34.5 -94 -34.5c-38 0 -70.167 11.167 -96.5 33.5s-39.5 49.5 -39.5 81.5c0 8 4 12.667 12 14l57 7c4 0 7 -3.66699 9 -11v-2c6.66699 -38 25.667 -57 57 -57c32 0 51.333 19 58 57c2 9.33301 5 14 9 14
c0.666992 0 1.66699 -0.166992 3 -0.5s2.33301 -0.5 3 -0.5l51 -7c7.33301 -1.33301 11 -5.66602 11 -12.999zM502 670.999l-162 -550.997c-26 -90 -78.667 -135 -158 -135c-30 0 -57.333 4.66699 -82 14c-32 12 -48 23.667 -48 35c0 0.666992 0.666992 3 2 7l26 59
c2 4.66699 5.33301 7 10 7c2 0 4.33301 -0.666992 7 -2l10 -6c28 -17.333 51 -26 69 -26c8 0 14.667 0.666992 20 2s12 4.33301 20 9s15.5 13.334 22.5 26.001s13.167 29 18.5 49l9 34h-48c-6.66699 0 -11.667 4 -15 12l-177 460c-0.666992 1.33301 -1 3 -1 5
c0 5.33301 3 8.66602 9 9.99902l78 13c2.66699 0.666992 6 1 10 1c7.33301 0 12 -3 14 -9l105 -288c21.333 -61.333 35 -105 41 -131h4c2 17.333 5.16699 35.166 9.5 53.499s9 35.333 14 51s7.83301 25.167 8.5 28.5l79 286c2.66699 6.66699 6 10 10 10l89 -12
c4.66699 -1.33301 7 -4 7 -8c0 -0.666992 -0.166992 -1.33398 -0.5 -2.00098s-0.5 -1.33398 -0.5 -2.00098z" />
    <glyph glyph-name="afii10145" unicode="&#x40f;" horiz-adv-x="608" 
d="M200 90h210v580c0 10.667 5.33301 16 16 16h78c10.667 0 16 -5.33301 16 -16v-654c0 -10.667 -5.33301 -16 -16 -16h-147v-167c0 -10.667 -5.33301 -16 -16 -16h-72c-10.667 0 -16 5.33301 -16 16v167h-147c-10.667 -0 -16 5.33301 -16 16v654c0 10.667 5.33301 16 16 16
h78c10.667 0 16 -5.33301 16 -16v-580z" />
    <glyph glyph-name="afii10017" unicode="&#x410;" horiz-adv-x="562" 
d="M543 25c2 -4.66699 2.99805 -9.33301 2.99805 -14c0 -7.33301 -5.66699 -11 -17 -11h-86c-6 -0 -10.333 0.833008 -13 2.5s-4.66699 5.5 -6 11.5l-49 179h-186l-49 -179c-1.33301 -6 -3.33301 -9.83301 -6 -11.5s-7 -2.5 -13 -2.5h-80c-11.333 -0 -17 3.33301 -17 10
c0 5.33301 1 10.333 3 15l199 647c2 6.66699 3.83301 10.667 5.5 12s5.83398 2 12.501 2h82c6.66699 0 10.834 -0.666992 12.501 -2s3.5 -5.33301 5.5 -12zM351.998 275.001l-49.999 200.999c-6.66699 26.667 -14.334 63.334 -23.001 110.001
c-6.66699 -41.333 -14 -78 -22 -110l-52 -201h147z" />
    <glyph glyph-name="afii10018" unicode="&#x411;" horiz-adv-x="569" 
d="M205 596l0.00488281 -187.999h84c18 0 35.167 -1 51.5 -3s35.666 -7 57.999 -15s41.166 -18.833 56.499 -32.5s28.666 -33.667 39.999 -60s17 -57.5 17 -93.5c0 -62.667 -17.333 -111.334 -52 -146.001c-38.667 -38.667 -99.334 -58 -182.001 -58h-167
c-10.667 -0 -16 5.33301 -16 16v655c0 10 5 15 15 15h352c7.33301 0 11 -3 11 -9c0 -2.66699 -0.333008 -5 -1 -7l-17 -60c-2.66699 -9.33301 -9.33398 -14 -20.001 -14h-230zM205.005 88.001h66c44.667 0 77.667 10.667 99 32c20 20 30 47.333 30 82
c0 38.667 -10 67.667 -30 87c-21.333 20.667 -53.333 31 -96 31h-69v-232z" />
    <glyph glyph-name="afii10019" unicode="&#x412;" horiz-adv-x="573" 
d="M516 192c0 -46 -12.1689 -85.8311 -36.502 -119.498s-56.166 -54.834 -95.499 -63.501c-25.333 -6 -63.666 -9 -114.999 -9h-158c-7.33301 0 -11.833 1 -13.5 3s-2.5 6.66699 -2.5 14v652c0 7.33301 0.833008 12 2.5 14s6.16699 3 13.5 3h164
c48 0 83.5 -2.83301 106.5 -8.5s42.833 -16.834 59.5 -33.501c33.333 -32 50 -74.667 50 -128c0 -73.333 -33 -125.666 -99 -156.999c82.667 -22.667 124 -78.334 124 -167.001zM378.998 504.002c0 35.333 -8.33301 60.667 -25 76s-43.667 23 -81 23h-73v-211h65
c76 0 114 37.333 114 112zM402.998 197.003c0 38 -10.668 66 -32.001 84s-54.666 27 -99.999 27h-71v-220h73c45.333 0 78.333 8.66699 99 26s31 45 31 83z" />
    <glyph glyph-name="afii10020" unicode="&#x413;" horiz-adv-x="474" 
d="M414 590h-209v-574c0 -10.667 -5.33301 -16 -16 -16h-78c-10.667 -0 -16 5.33301 -16 16v656c0 9.33301 4.66699 14 14 14h328c8.66699 0 13 -3.66699 13 -11c0 -0.666992 -0.166992 -1.5 -0.5 -2.5s-0.5 -1.83301 -0.5 -2.5l-20 -69
c-2.66699 -7.33301 -7.66699 -11 -15 -11z" />
    <glyph glyph-name="afii10021" unicode="&#x414;" horiz-adv-x="600" 
d="M465 0h-350v-152c0 -10.667 -5.33301 -16 -16 -16h-68c-10.667 0 -16 5.33301 -16 16v227c0 10 4 15 12 15h35c30.667 60.667 52 128 64 202c8.66699 54 13 126.333 13 217v160c0 11.333 5.33301 17 16 17h331c10 0 15 -5.33301 15 -16v-580h49c10 0 15 -5.66699 15 -17
v-225c0 -10.667 -5.33301 -16 -16 -16h-68c-10.667 0 -16 5.33301 -16 16v152zM391 90v508h-152v-77c0 -182 -24 -325.667 -72 -431h224z" />
    <glyph glyph-name="afii10022" unicode="&#x415;" horiz-adv-x="480" 
d="M447 666l-17 -56.001c-2.66699 -9.33301 -9 -14 -19 -14h-206v-195h181c7.33301 0 12 -1 14 -3s3 -6.66699 3 -14v-54c0 -6.66699 -1 -11 -3 -13s-6.66699 -3 -14 -3h-181v-223h223c7.33301 0 12 -1.16699 14 -3.5s3 -7.16602 3 -14.499v-56c0 -7.33301 -1 -12 -3 -14
s-6.66699 -3 -14 -3h-317c-7.33301 0 -11.833 1 -13.5 3s-2.5 6.66699 -2.5 14v652c0 7.33301 0.833008 12 2.5 14s6.16699 3 13.5 3h322c10.667 0 16 -3 16 -9c0 -2 -0.666992 -5.66699 -2 -11z" />
    <glyph glyph-name="afii10024" unicode="&#x416;" horiz-adv-x="829" 
d="M456 0h-82.002c-9.33301 -0 -14 5.33301 -14 16v295h-42c-42.667 0 -70.667 -28 -84 -84l-26 -119c-9.33301 -41.333 -21 -69.333 -35 -84c-24.667 -26 -64 -39 -118 -39c-6.66699 0 -11 2.66699 -13 8l-22 67c-0.666992 1.33301 -1 3 -1 5c0 6.66699 4.33301 11 13 13
l19 3c10.667 1.33301 18.834 3.33301 24.501 6s11.834 9.66699 18.501 21s12.667 27.666 18 48.999l21 84c9.33301 40 23.666 69.333 42.999 88c8 8 23.333 17.667 46 29c-38 17.333 -63.333 53.333 -76 108l-15 63c-6.66699 27.333 -13.5 46.333 -20.5 57
s-20.5 18.334 -40.5 23.001l-15 3c-8.66699 2 -13 6.33301 -13 13c0 2.66699 0.333008 4.66699 1 6l18 58c2 8 8.66699 12 20 12c22 0 41.5 -4 58.5 -12s30.667 -19 41 -33s18.5 -27.833 24.5 -41.5s10.667 -28.5 14 -44.5l19 -83c7.33301 -34 16.333 -56.333 27 -67
c12.667 -12.667 34.667 -19 66 -19h29v273c0 8 3.66699 12 11 12h87c7.33301 0 11 -5.33301 11 -16v-269h29c31.333 0 53.333 6.33301 66 19c10.667 10.667 19.667 33 27 67l19 83c3.33301 16 8 30.833 14 44.5s14.167 27.5 24.5 41.5s24 25 41 33s36.5 12 58.5 12
c11.333 0 18 -4 20 -12l18 -58c0.666992 -1.33301 1 -3.33301 1 -6c0 -6.66699 -4.33301 -11 -13 -13l-15 -3c-20 -4.66699 -33.5 -12.334 -40.5 -23.001s-13.833 -29.667 -20.5 -57l-15 -63c-12.667 -54.667 -38 -90.667 -76 -108c22.667 -11.333 38 -21 46 -29
c19.333 -18.667 33.666 -48 42.999 -88l21 -84c5.33301 -21.333 11.333 -37.666 18 -48.999s12.834 -18.333 18.501 -21s13.834 -4.66699 24.501 -6l19 -3c8.66699 -2 13 -6.33301 13 -13c0 -2 -0.333008 -3.66699 -1 -5l-22 -67c-2 -5.33301 -6.33301 -8 -13 -8
c-54 0 -93.333 13 -118 39c-14 14.667 -25.667 42.667 -35 84l-26 119c-13.333 56 -41.333 84 -84 84h-42v-295c0 -10.667 -4.33301 -16 -13 -16z" />
    <glyph glyph-name="afii10025" unicode="&#x417;" horiz-adv-x="499" 
d="M149 325l-0.00195312 56.001c0 10.667 5.33301 16 16 16h28c39.333 0 69 9.66699 89 29c19.333 19.333 29 45.666 29 78.999c0 29.333 -9.16699 54.5 -27.5 75.5s-43.833 31.5 -76.5 31.5c-34 0 -67 -13 -99 -39l-11 -9c-2.66699 -2.66699 -6.33398 -4 -11.001 -4
c-5.33301 0 -9.33301 2 -12 6l-28 40c-3.33301 5.33301 -5 9.33301 -5 12c0 4.66699 3 10 9 16c43.333 45.333 101.666 68 174.999 68c39.333 0 72.833 -6.5 100.5 -19.5s47.834 -30 60.501 -51s21.334 -40.667 26.001 -59s7 -36.833 7 -55.5
c0 -80 -33.667 -131.333 -101 -154c80.667 -26.667 121 -83.334 121 -170.001c0 -62 -17.667 -111.333 -53 -148c-38.667 -40 -94 -60 -166 -60c-51.333 0 -93.666 7.66699 -126.999 23c-16.667 7.33301 -32.167 16.333 -46.5 27s-21.5 20.334 -21.5 29.001
c0 3.33301 0.666992 6 2 8l31 54c2 2.66699 4.66699 4 8 4c4.66699 0 9 -1.66699 13 -5l10 -7c41.333 -28.667 80 -43 116 -43c80.667 0 121 40.333 121 121c0 39.333 -12.167 68 -36.5 86s-53.166 27 -86.499 27h-38c-10.667 0 -16 5.33301 -16 16z" />
    <glyph glyph-name="afii10026" unicode="&#x418;" horiz-adv-x="642" 
d="M549 670l0.000976562 -654.001c0 -10.667 -5.33301 -16 -16 -16h-78c-10.667 0 -16 5.33301 -16 16v403c0 30.667 2.33301 64 7 100h-3c-8.66699 -32 -22.334 -67 -41.001 -105l-192 -400c-4 -9.33301 -10.333 -14 -19 -14h-80c-10.667 0 -16 5.33301 -16 16v654
c0 10.667 5.33301 16 16 16h78c10.667 0 16 -5.33301 16 -16v-377c0 -11.333 -2.33301 -49.666 -7 -114.999h3l12 31l19 49c6 15.333 11 27 15 35l181 382c4 7.33301 9.33301 11 16 11h89c10.667 0 16 -5.33301 16 -16z" />
    <glyph glyph-name="afii10027" unicode="&#x419;" horiz-adv-x="642" 
d="M549 670l0.000976562 -654.001c0 -10.667 -5.33301 -16 -16 -16h-78c-10.667 0 -16 5.33301 -16 16v403c0 30.667 2.33301 64 7 100h-3c-8.66699 -32 -22.334 -67 -41.001 -105l-192 -400c-4 -9.33301 -10.333 -14 -19 -14h-80c-10.667 0 -16 5.33301 -16 16v654
c0 10.667 5.33301 16 16 16h78c10.667 0 16 -5.33301 16 -16v-377c0 -11.333 -2.33301 -49.666 -7 -114.999h3l12 31l19 49c6 15.333 11 27 15 35l181 382c4 7.33301 9.33301 11 16 11h89c10.667 0 16 -5.33301 16 -16zM254.001 862.999l2.00195 -8.99805
c8 -39.333 31.333 -59 70 -59c16 0 29.667 5.66699 41 17s18.666 25 21.999 41l2 10c1.33301 6 4.66602 9 9.99902 9h2l64 -7c6.66699 -0.666992 10 -5.33398 10 -14.001c0 -40 -16.333 -71.167 -49 -93.5s-66 -33.5 -100 -33.5c-50 0 -89.167 13.167 -117.5 39.5
s-42.5 55.166 -42.5 86.499c0 9.33301 3.33301 14.333 10 15l67 7c4.66699 0 7.66699 -3 9 -9z" />
    <glyph glyph-name="afii10028" unicode="&#x41a;" horiz-adv-x="581" 
d="M188 0l-77.001 0.000976562c-10.667 0 -16 5.33301 -16 16v659c0 7.33301 3.33301 11 10 11h87c8 0 12 -4.33301 12 -13v-271h51c44.667 0 72.334 26.667 83.001 80l17 79c10.667 48 25 81 43 99c13.333 13.333 29.833 23.5 49.5 30.5s36.167 10.5 49.5 10.5
c9.33301 0 15.333 -4 18 -12l17 -58c0.666992 -1.33301 1 -3.33301 1 -6c0 -6.66699 -4.33301 -11 -13 -13l-20 -4c-12 -2 -22 -7.33301 -30 -16s-13.333 -17.334 -16 -26.001s-5.66699 -21 -9 -37l-14 -63c-12 -56 -37.333 -92 -76 -108c20 -6.66699 37.833 -20 53.5 -40
s26.5 -41.667 32.5 -65l24 -101c2.66699 -10 5.16699 -18.833 7.5 -26.5s5 -14 8 -19s5.5 -9 7.5 -12s5 -5.33301 9 -7s6.66699 -2.83398 8 -3.50098s4.33301 -1.33398 9 -2.00098s7.66699 -1 9 -1l19 -3c10 -3.33301 15 -7.33301 15 -12
c0 -2.66699 -0.333008 -4.66699 -1 -6l-21 -63c-1.33301 -5.33301 -3.16602 -8.66602 -5.49902 -9.99902s-6.83301 -2 -13.5 -2c-44.667 0 -78.334 10 -101.001 30s-39.334 54.333 -50.001 103l-23 107c-7.33301 34.667 -17.666 57.834 -30.999 69.501
s-32.333 17.5 -57 17.5h-50v-296c0 -10.667 -5.33301 -16 -16 -16z" />
    <glyph glyph-name="afii10029" unicode="&#x41b;" horiz-adv-x="603" 
d="M510 670l-0.00195312 -653.999c0 -10.667 -5.33301 -16 -16 -16h-78c-10.667 0 -16 5.33301 -16 16v580h-154l-1 -97c-1.33301 -95.333 -5.66602 -177.333 -12.999 -246c-2.66699 -22.667 -6.16699 -44.334 -10.5 -65.001s-11.5 -44 -21.5 -70
s-21.833 -48.167 -35.5 -66.5s-32.167 -34 -55.5 -47s-49.666 -19.5 -78.999 -19.5c-11.333 0 -18 4.66699 -20 14l-15 59c0 0.666992 -0.166992 1.66699 -0.5 3s-0.5 2.33301 -0.5 3c0 8.66699 4.66699 13.667 14 15l15 2c27.333 3.33301 50 13.333 68 30
c18 17.333 31.667 53 41 107s14.5 101.833 15.5 143.5s1.5 99.5 1.5 173.5v32v104c0 10 5 15 15 15h330c10.667 0 16 -5.33301 16 -16z" />
    <glyph glyph-name="afii10030" unicode="&#x41c;" horiz-adv-x="694" 
d="M618 19l-0.00390625 -8c0 -4.66699 -0.833008 -7.66699 -2.5 -9s-5.83398 -2 -12.501 -2h-74c-7.33301 0 -12.166 1 -14.499 3s-3.5 6.66699 -3.5 14l-10 430c0 34 0.666992 71 2 111c-8.66699 -44.667 -19 -85.334 -31 -122.001l-90 -266c-2 -6 -4 -9.83301 -6 -11.5
s-6 -2.5 -12 -2.5h-45c-6.66699 0 -11 0.666992 -13 2s-4 5.33301 -6 12l-84 266c-8 28.667 -17.333 69.334 -28 122.001c0.666992 -21.333 1 -54.333 1 -99l-11 -442c0 -7.33301 -1.16699 -12 -3.5 -14s-7.16602 -3 -14.499 -3h-67c-10.667 0 -16 4 -16 12l33 658
c0.666992 7.33301 2 11.833 4 13.5s6.33301 2.5 13 2.5h80c6.66699 0 10.834 -0.666992 12.501 -2s3.5 -5 5.5 -11l99 -299c4.66699 -14 11.334 -43.333 20.001 -88c10.667 42.667 18.667 72 24 88l102 299c2 6.66699 3.83301 10.5 5.5 11.5s5.83398 1.5 12.501 1.5h79
c6.66699 0 11 -0.833008 13 -2.5s3.33301 -6.16699 4 -13.5z" />
    <glyph glyph-name="afii10031" unicode="&#x41d;" horiz-adv-x="628" 
d="M535 17c0 -7.33301 -1.16699 -12 -3.5 -14s-7.16602 -3 -14.499 -3h-75c-7.33301 0 -12 1 -14 3s-3 6.66699 -3 14v297h-220v-297c0 -7.33301 -1.16699 -12 -3.5 -14s-7.16602 -3 -14.499 -3h-76c-7.33301 0 -11.833 1 -13.5 3s-2.5 6.66699 -2.5 14v652
c0 7.33301 0.833008 12 2.5 14s6.16699 3 13.5 3h76c7.33301 0 12.166 -1 14.499 -3s3.5 -6.66699 3.5 -14v-270h220v270c0 7.33301 1 12 3 14s6.66699 3 14 3h75c7.33301 0 12.166 -1 14.499 -3s3.5 -6.66699 3.5 -14v-652z" />
    <glyph glyph-name="afii10032" unicode="&#x41e;" horiz-adv-x="573" 
d="M523 348c0 -242 -80.001 -363 -240.001 -363c-155.333 0 -233 120.667 -233 362c0 108 19.333 194.167 58 258.5s99.334 96.5 182.001 96.5c155.333 0 233 -118 233 -354zM405.999 344c0 180 -39.332 270 -117.999 270c-41.333 0 -71.833 -21.833 -91.5 -65.5
s-29.5 -111.5 -29.5 -203.5c0 -89.333 9.33301 -157 28 -203s49 -69 91 -69c41.333 0 71.666 21.833 90.999 65.5s29 112.167 29 205.5z" />
    <glyph glyph-name="afii10033" unicode="&#x41f;" horiz-adv-x="622" 
d="M205 596v-580c0 -6.66699 -1 -11 -3 -13s-6.33301 -3 -13 -3h-78c-6.66699 0 -11 1 -13 3s-3 6.33301 -3 13v654c0 10.667 5.33301 16 16 16h402c10.667 0 16 -5.33301 16 -16v-654c0 -10.667 -5.33301 -16 -16 -16h-78c-10.667 -0 -16 5.33301 -16 16v580h-214z" />
    <glyph glyph-name="afii10034" unicode="&#x420;" horiz-adv-x="508" 
d="M488 500c0 -69.333 -20 -123 -60 -161s-92.667 -57 -158 -57h-65v-265c0 -7.33301 -1.16699 -12 -3.5 -14s-7.16602 -3 -14.499 -3h-76c-7.33301 0 -11.833 1 -13.5 3s-2.5 6.66699 -2.5 14v652c0 7.33301 0.833008 12 2.5 14s6.16699 3 13.5 3h158
c83.333 0 140.666 -15.5 171.999 -46.5s47 -77.5 47 -139.5zM380 495c0 40 -8.66699 67.667 -26 83s-48 23 -92 23h-57v-227h51c41.333 0 72.333 9.33301 93 28s31 49.667 31 93z" />
    <glyph glyph-name="afii10035" unicode="&#x421;" horiz-adv-x="471" 
d="M452 70c3.33301 -5.33301 5 -9.66699 5 -13c0 -4 -3.66699 -9.33301 -11 -16c-46.667 -37.333 -98 -56 -154 -56c-78.667 0 -138.667 31.167 -180 93.5s-62 153.166 -62 272.499c0 33.333 2 65.333 6 96s11.5 62 22.5 94s25 59.5 42 82.5s39.667 41.833 68 56.5
s60.833 22 97.5 22c58 0 110.333 -20 157 -60c6.66699 -6 10 -11.333 10 -16c0 -3.33301 -1.66699 -7.66602 -5 -12.999l-32 -51c-1.33301 -3.33301 -4.33301 -5 -9 -5s-8.66699 1.66699 -12 5c-40.667 32 -75.667 48 -105 48c-42 0 -73 -19.667 -93 -59s-30 -101 -30 -185
c0 -192 45 -288 135 -288c30 0 62 13 96 39c6 4.66699 10.667 7 14 7c4 0 7.33301 -2 10 -6z" />
    <glyph glyph-name="afii10036" unicode="&#x422;" horiz-adv-x="415" 
d="M434 663l-18 -57.999c-2.66699 -9.33301 -8.33398 -14 -17.001 -14h-135v-574c0 -7.33301 -0.833008 -12 -2.5 -14s-6.16699 -3 -13.5 -3h-76c-7.33301 0 -12.166 1 -14.499 3s-3.5 6.66699 -3.5 14v574h-136c-7.33301 0 -12 1.16699 -14 3.5s-3 7.16602 -3 14.499v60
c0 7.33301 1 12 3 14s6.66699 3 14 3h402c11.333 0 17 -3 17 -9c0 -3.33301 -1 -8 -3 -14z" />
    <glyph glyph-name="afii10037" unicode="&#x423;" horiz-adv-x="527" 
d="M502 671l-162 -550.997c-26 -90 -78.667 -135 -158 -135c-30 0 -57.333 4.66699 -82 14c-32 12 -48 23.667 -48 35c0 0.666992 0.666992 3 2 7l26 59c2 4.66699 5.33301 7 10 7c2 0 4.33301 -0.666992 7 -2l10 -6c28 -17.333 51 -26 69 -26c8 0 14.667 0.666992 20 2
s12 4.33301 20 9s15.5 13.334 22.5 26.001s13.167 29 18.5 49l9 34h-48c-6.66699 0 -11.667 4 -15 12l-177 460c-0.666992 1.33301 -1 3 -1 5c0 5.33301 3 8.66602 9 9.99902l78 13c2.66699 0.666992 6 1 10 1c7.33301 0 12 -3 14 -9l105 -288
c21.333 -61.333 35 -105 41 -131h4c2 17.333 5.16699 35.166 9.5 53.499s9 35.333 14 51s7.83301 25.167 8.5 28.5l79 286c2.66699 6.66699 6 10 10 10l89 -12c4.66699 -1.33301 7 -4 7 -8c0 -0.666992 -0.166992 -1.33398 -0.5 -2.00098s-0.5 -1.33398 -0.5 -2.00098z" />
    <glyph glyph-name="afii10038" unicode="&#x424;" horiz-adv-x="664" 
d="M387 712v-86h7c70 0 124 -19.333 162 -58c42 -42.667 63 -109 63 -199c0 -90.667 -21 -157.667 -63 -201c-38 -38.667 -92 -58 -162 -58h-7v-95c0 -10 -5.66699 -15 -17 -15h-76c-7.33301 0 -12 1.16699 -14 3.5s-3 6.83301 -3 13.5v93h-7c-70 0 -124 19.333 -162 58
c-42 43.333 -63 110.333 -63 201c0 90 21 156.333 63 199c38 38.667 92 58 162 58h7v88c0 7.33301 3.66699 11 11 11h88c7.33301 0 11 -4.33301 11 -13zM383 541v-346h9c36.667 0 65.667 11 87 33c25.333 26 38 74 38 144c0 64 -12.667 109.333 -38 136
c-21.333 22 -52 33 -92 33h-4zM281 541h-9c-36.667 0 -65.667 -11 -87 -33c-25.333 -26 -38 -71.333 -38 -136c0 -70 12.667 -118 38 -144c21.333 -22 50.333 -33 87 -33h9v346z" />
    <glyph glyph-name="afii10039" unicode="&#x425;" horiz-adv-x="512" 
d="M503 35c4 -6 6 -10.666 6 -13.999c0 -4.66699 -4.33301 -8 -13 -10l-76 -21c-6 -2 -10 -3 -12 -3c-2.66699 0 -6.33398 4 -11.001 12l-110 214c-12.667 25.333 -21.334 44 -26.001 56c-6 -14.667 -15 -33.334 -27 -56.001l-111 -213c-3.33301 -7.33301 -7 -11 -11 -11
c-2 0 -6 1 -12 3l-73 20c-8.66699 2.66699 -13 6.33398 -13 11.001c0 3.33301 2 8.66602 6 15.999l179 322l-164 289c-3.33301 6.66699 -5 11 -5 13c0 4.66699 3.66699 8 11 10l75 21c6.66699 1.33301 10.667 2 12 2c4.66699 0 8.66699 -4 12 -12l93 -178
c10 -18 19.667 -39.333 29 -64c12.667 32.667 21.334 54 26.001 64l90 179c4.66699 8 8.66699 12 12 12c2.66699 0 6.33398 -1 11.001 -3l72 -23c8 -2.66699 12 -5.66699 12 -9c0 -2.66699 -2.33301 -7.66699 -7 -15l-159 -286z" />
    <glyph glyph-name="afii10040" unicode="&#x426;" horiz-adv-x="626" 
d="M526 670v-580h54c7.33301 0 11 -4.66699 11 -14v-228c0 -10.667 -5.33301 -16 -16 -16h-68c-10.667 0 -16 5.33301 -16 16v152h-380c-10.667 -0 -16 5.33301 -16 16v654c0 10.667 5.33301 16 16 16h78c10.667 0 16 -5.33301 16 -16v-580h211v580
c0 10.667 5.33301 16 16 16h78c10.667 0 16 -5.33301 16 -16z" />
    <glyph glyph-name="afii10041" unicode="&#x427;" horiz-adv-x="586" 
d="M493 670l0.000976562 -653.998c0 -10.667 -5.33301 -16 -16 -16h-78c-10.667 0 -16 5.33301 -16 16v276c-50 -20 -97.333 -30 -142 -30c-62 0 -109 16.667 -141 50c-26.667 27.333 -40 66.666 -40 117.999v240c0 10.667 5.33301 16 16 16h78c10.667 0 16 -5.33301 16 -16
v-228c0 -30.667 7.66699 -53.334 23 -68.001c16 -16 41 -24 75 -24c37.333 0 75.666 9.33301 114.999 28v294c0 9.33301 5.33301 14 16 14h78c10.667 0 16 -5.33301 16 -16z" />
    <glyph glyph-name="afii10042" unicode="&#x428;" horiz-adv-x="848" 
d="M205 90h165v580c0 10.667 5.33301 16 16 16h78c10.667 0 16 -5.33301 16 -16v-580h165v580c0 10.667 5.33301 16 16 16h78c10.667 0 16 -5.33301 16 -16v-654c0 -10.667 -5.33301 -16 -16 -16h-628c-10.667 -0 -16 5.33301 -16 16v654c0 10.667 5.33301 16 16 16h78
c10.667 0 16 -5.33301 16 -16v-580z" />
    <glyph glyph-name="afii10043" unicode="&#x429;" horiz-adv-x="855" 
d="M720 0h-609c-10.667 -0 -16 5.33301 -16 16v654c0 10.667 5.33301 16 16 16h78c10.667 0 16 -5.33301 16 -16v-580h165v580c0 10.667 5.33301 16 16 16h78c10.667 0 16 -5.33301 16 -16v-580h165v580c0 10.667 5.33301 16 16 16h78c10.667 0 16 -5.33301 16 -16v-580h51
c9.33301 0 14 -4 14 -12v-230c0 -10.667 -5.33301 -16 -16 -16h-68c-10.667 0 -16 5.33301 -16 16v152z" />
    <glyph glyph-name="afii10044" unicode="&#x42a;" horiz-adv-x="626" 
d="M283 404h90.999c71.333 0 126.333 -19.333 165 -58c34.667 -34.667 52 -81 52 -139c0 -66 -18.667 -117 -56 -153s-93.666 -54 -168.999 -54h-177c-10.667 0 -16 5 -16 15v575h-158c-7.33301 0 -11 3.33301 -11 10c0 3.33301 0.333008 6 1 8l19 64
c2.66699 9.33301 10 14 22 14h221c10.667 0 16 -5.33301 16 -16v-266zM282.999 90h71.001c33.333 0 62.166 9.33301 86.499 28s36.5 46.667 36.5 84c0 74.667 -43.333 112 -130 112h-64v-224z" />
    <glyph glyph-name="afii10045" unicode="&#x42b;" horiz-adv-x="803" 
d="M111 686h77.999c10.667 0 16 -5.33301 16 -16v-266h91c71.333 0 126.333 -19.333 165 -58c34.667 -34.667 52 -81 52 -139c0 -66 -18.667 -117 -56 -153s-93.666 -54 -168.999 -54h-177c-10.667 0 -16 5 -16 15v655c0 10.667 5.33301 16 16 16zM709.999 670v-654
c0 -10.667 -5.33301 -16 -16 -16h-78c-10.667 -0 -16 5.33301 -16 16v654c0 10.667 5.33301 16 16 16h78c10.667 0 16 -5.33301 16 -16zM204.999 90h71.001c33.333 0 62.166 9.33301 86.499 28s36.5 46.667 36.5 84c0 74.667 -43.333 112 -130 112h-64v-224z" />
    <glyph glyph-name="afii10046" unicode="&#x42c;" horiz-adv-x="548" 
d="M111 686h77.999c10.667 0 16 -5.33301 16 -16v-266h91c71.333 0 126.333 -19.333 165 -58c34.667 -34.667 52 -81 52 -139c0 -66 -18.667 -117 -56 -153s-93.666 -54 -168.999 -54h-177c-10.667 0 -16 5 -16 15v655c0 10.667 5.33301 16 16 16zM204.999 90
l71 -0.000976562c33.333 0 62.166 9.33301 86.499 28s36.5 46.667 36.5 84c0 22.667 -4.16699 41.834 -12.5 57.501s-19.166 27.167 -32.499 34.5s-26 12.5 -38 15.5s-24 4.5 -36 4.5h-75v-224z" />
    <glyph glyph-name="afii10047" unicode="&#x42d;" horiz-adv-x="489" 
d="M32 65l30.999 49.0029c3.33301 5.33301 7 8 11 8s7.33301 -1.33301 10 -4l11 -8c34 -24.667 65.667 -37 95 -37c24 0 44.833 6.33301 62.5 19s30.834 27.5 39.501 44.5s15.5 37.333 20.5 61s8 42.667 9 57s1.5 28.833 1.5 43.5v13h-181c-10.667 0 -16 5.33301 -16 16v57
c0 11.333 5.66699 17 17 17h180v10c0 23.333 -1.83301 45.666 -5.5 66.999s-9.66699 42.833 -18 64.5s-21.166 39 -38.499 52s-38 19.5 -62 19.5c-30 0 -62.333 -14 -97 -42l-12 -9c-2.66699 -2 -5 -3 -7 -3c-3.33301 0 -6.66602 2.66699 -9.99902 8l-32 45
c-2.66699 4 -4 7.33301 -4 10c0 6 4.33301 12.333 13 19c46 40 99.333 60 160 60c41.333 0 77.166 -9.33301 107.499 -28s54.166 -44.834 71.499 -78.501s30 -71.5 38 -113.5s12 -89 12 -141c0 -124.667 -22.667 -216.334 -68 -275.001c-41.333 -54 -99 -81 -173 -81
c-70 0 -123.333 19.667 -160 59c-5.33301 5.33301 -8 10 -8 14c0 2 0.666992 4.33301 2 7z" />
    <glyph glyph-name="afii10048" unicode="&#x42e;" horiz-adv-x="827" 
d="M205 400l101.002 -0.00292969c1.33301 18 3.33301 35.833 6 53.5s7.16699 38.834 13.5 63.501s15.333 47.167 27 67.5s25.667 39.666 42 57.999s37.333 32.833 63 43.5s54.167 16 85.5 16c35.333 0 66.666 -6.66699 93.999 -20s49 -31.666 65 -54.999
s29.5 -47.333 40.5 -72s18.833 -52.167 23.5 -82.5s7.66699 -54.833 9 -73.5s2 -37.667 2 -57c0 -20 -0.833008 -40.167 -2.5 -60.5s-5 -45.166 -10 -74.499s-13 -56.166 -24 -80.499s-24.667 -47.666 -41 -69.999s-38 -39.833 -65 -52.5s-57.5 -19 -91.5 -19
c-35.333 0 -66.833 6.83301 -94.5 20.5s-50.167 31.5 -67.5 53.5s-31.833 47.667 -43.5 77s-19.834 58.166 -24.501 86.499s-7.33398 57.5 -8.00098 87.5h-100v-293c0 -11.333 -4.66699 -17 -14 -17h-79c-11.333 0 -17 5 -17 15v655c0 6.66699 1.33301 11 4 13
s7.33398 3 14.001 3h75c11.333 0 17 -5.33301 17 -16v-270zM539.002 72.9971c27.333 0 49.667 8.33398 67 25.001c36 34 54 115.667 54 245c0 126.667 -18 208 -54 244c-18 18 -40.333 27 -67 27c-27.333 0 -50 -9 -68 -27c-36 -36 -54 -117 -54 -243
c0 -126.667 16.667 -207.334 50 -242.001c18.667 -19.333 42.667 -29 72 -29z" />
    <glyph glyph-name="afii10049" unicode="&#x42f;" horiz-adv-x="571" 
d="M478 675l0.00390625 -658.998c0 -10.667 -5.33301 -16 -16 -16h-78c-10.667 0 -16 5.33301 -16 16v279h-54c-42 0 -68.667 -24.333 -80 -73l-26 -107c-13.333 -53.333 -31.5 -88.333 -54.5 -105s-53.167 -25 -90.5 -25c-12 0 -19 4 -21 12l-21 63
c-0.666992 1.33301 -1 3.33301 -1 6c0 6.66699 4.33301 10.667 13 12l19 3c26.667 4 44.667 23.333 54 58l26 102c4.66699 18 13.667 36.333 27 55s28.666 31.667 45.999 39c-42.667 9.33301 -73.5 29.166 -92.5 59.499s-28.5 64.166 -28.5 101.499c0 32 5.16699 60 15.5 84
s23.166 42.5 38.499 55.5s33.166 23.5 53.499 31.5s38.666 13.167 54.999 15.5s32.833 3.5 49.5 3.5h172c6.66699 0 10 -3.66699 10 -11zM368.004 383.002v213h-69c-6.66699 0 -13.5 -0.5 -20.5 -1.5s-16 -3.5 -27 -7.5s-20.667 -9.5 -29 -16.5s-15.5 -17.5 -21.5 -31.5
s-9 -30 -9 -48c0 -72 37 -108 111 -108h65z" />
    <glyph glyph-name="afii10065" unicode="&#x430;" horiz-adv-x="480" 
d="M423 37c2 -6 2.99805 -9.33301 2.99805 -10c0 -3.33301 -1.66699 -5.66602 -5 -6.99902l-61 -30c-4 -2 -7.33301 -3 -10 -3c-11.333 0 -22.666 20.333 -33.999 61c-40 -40 -85 -60 -135 -60c-43.333 0 -77.833 13 -103.5 39s-38.5 61 -38.5 105
c0 28.667 5.5 53.667 16.5 75s24.667 38 41 50s36.833 21.667 61.5 29s48 12.166 70 14.499s46.333 3.5 73 3.5v32c0 30.667 -5.83301 52.167 -17.5 64.5s-32.167 18.5 -61.5 18.5c-31.333 0 -69.666 -9.66699 -114.999 -29c-4 -1.33301 -7 -2 -9 -2c-4 0 -7 2.33301 -9 7
l-16 49c-1.33301 4 -2 7 -2 9c0 14 20 25.667 60 35s74.333 14 103 14c56 0 97.5 -12 124.5 -36s40.5 -62.333 40.5 -115v-196c0 -48.667 8 -88 24 -118zM300.998 112l-0.000976562 118.999c-16.667 0 -30.667 -0.5 -42 -1.5s-25.333 -3.16699 -42 -6.5
s-30.167 -8 -40.5 -14s-19.333 -15 -27 -27s-11.5 -26.333 -11.5 -43c0 -21.333 6.5 -39.166 19.5 -53.499s29.167 -21.5 48.5 -21.5c30.667 0 62.334 16 95.001 48z" />
    <glyph glyph-name="afii10066" unicode="&#x431;" horiz-adv-x="516" 
d="M432 744l28.002 -58.999c1.33301 -2.66699 2 -4.66699 2 -6c0 -4.66699 -4.33301 -9.33398 -13 -14.001l-201 -89c-27.333 -12.667 -50 -28 -68 -46c-30.667 -30.667 -48.334 -69.667 -53.001 -117l-2 -21h5c13.333 30.667 33.5 53.667 60.5 69s56.5 23 88.5 23
c48 0 89 -15.667 123 -47c46 -44.667 69 -111 69 -199c0 -26 -3.33301 -52.667 -10 -80s-17.334 -54.5 -32.001 -81.5s-36.5 -49.167 -65.5 -66.5s-62.833 -26 -101.5 -26c-141.333 0 -212 104.333 -212 313c0 46 2 85.167 6 117.5s11.667 65.5 23 99.5s29.5 63.667 54.5 89
s56.5 46.333 94.5 63l183 82c2.66699 1.33301 5.66699 2 9 2c6 0 10 -2 12 -6zM264.002 403.001c-66.667 0 -100 -55.667 -100 -167c0 -113.333 33.333 -170 100 -170c26 0 47.333 8.66699 64 26c23.333 26 35 74.667 35 146c0 110 -33 165 -99 165z" />
    <glyph glyph-name="afii10067" unicode="&#x432;" horiz-adv-x="500" 
d="M87 488h179.003c16.667 0 32.667 -1.5 48 -4.5s31.666 -8.5 48.999 -16.5s31.166 -20.833 41.499 -38.5s15.5 -39.167 15.5 -64.5c0 -22.667 -6.16699 -43.667 -18.5 -63s-29.833 -33.666 -52.5 -42.999c60.667 -16.667 91 -55.334 91 -116.001
c0 -22.667 -3.33301 -42.5 -10 -59.5s-16.167 -30.5 -28.5 -40.5s-24.333 -18 -36 -24s-26.167 -10.167 -43.5 -12.5s-30.333 -3.83301 -39 -4.5s-19.334 -1 -32.001 -1h-164c-6.66699 0 -10 3.66699 -10 11v467c0 6.66699 3.33301 10 10 10zM177.003 410v-119.999h72
c20 0 37.167 5.66699 51.5 17s21.5 27.666 21.5 48.999c0 36 -21 54 -63 54h-82zM177.003 214.001v-136h79c54.667 0 82 22.667 82 68c0 24.667 -7.83301 42.167 -23.5 52.5s-32.5 15.5 -50.5 15.5h-87z" />
    <glyph glyph-name="afii10068" unicode="&#x433;" horiz-adv-x="396" 
d="M376 474l-12 -58c-2 -8.66699 -7 -13 -15 -13h-170v-390c0 -8.66699 -4.33301 -13 -13 -13h-76c-8.66699 -0 -13 4.33301 -13 13v463c0 8 3.66699 12 11 12h276c8 0 12 -3.33301 12 -10v-4z" />
    <glyph glyph-name="afii10069" unicode="&#x434;" horiz-adv-x="499" 
d="M413 478v-396h52c6 0 9 -3 9 -9v-194c0 -8.66699 -4 -13 -12 -13h-68c-6.66699 0 -10 3.33301 -10 10v124h-289v-121c0 -8.66699 -4.33301 -13 -13 -13h-68c-6 0 -9 3.66699 -9 11v196c0 6 3 9 9 9h38c22.667 41.333 38 83 46 125c7.33301 36.667 11 82 11 136v136
c0 6 2.66699 9 8 9h287c6 0 9 -3.33301 9 -10zM313 82v324h-113v-46c0 -120 -16.667 -212.667 -50 -278h163z" />
    <glyph glyph-name="afii10070" unicode="&#x435;" horiz-adv-x="480" 
d="M444 255l-0.000976562 -6.99805c0 -7.33301 -0.333008 -12.833 -1 -16.5s-2.16699 -6.83398 -4.5 -9.50098s-5.83301 -4 -10.5 -4h-278c4 -98 44.333 -147 121 -147c14 0 27.667 1.5 41 4.5s23 5.5 29 7.5s15.833 6.33301 29.5 13l22.5 11
c2.66699 1.33301 4.33398 2 5.00098 2c3.33301 0 6 -2.66699 8 -8l23 -50c2 -4 3 -7.33301 3 -10c0 -13.333 -21 -26 -63 -38s-78 -18 -108 -18c-68 0 -120.833 22.5 -158.5 67.5s-56.5 108.167 -56.5 189.5c0 79.333 19 142.666 57 189.999s88.333 71 151 71
c61.333 0 108.333 -21.333 141 -64s49 -104 49 -184zM336.999 295.002c-2 88 -31.667 132 -89 132c-58 0 -90.333 -44 -97 -132h186z" />
    <glyph glyph-name="afii10072" unicode="&#x436;" horiz-adv-x="684" 
d="M389 294l31.999 -0.00195312c12 0 22.167 1.66699 30.5 5s14.666 8.83301 18.999 16.5s7.16602 13.834 8.49902 18.501s3 11.667 5 21l10 46c14.667 68 53.334 102 116.001 102c12.667 0 19.667 -3 21 -9l16 -59c0 -0.666992 0.333008 -2 1 -4c0 -4.66699 -5 -8 -15 -10
l-17 -3c-20 -4.66699 -33 -19 -39 -43l-12 -47c-11.333 -42 -32.666 -66 -63.999 -72c34 -7.33301 57 -31 69 -71l21 -64c2 -6 4 -11.333 6 -16l5 -12c1.33301 -3.33301 3.33301 -6.16602 6 -8.49902s4.33398 -4.16602 5.00098 -5.49902s2.66699 -2.5 6 -3.5
s5.33301 -1.66699 6 -2s3.16699 -0.833008 7.5 -1.5s6.83301 -1 7.5 -1l12 -2c8.66699 -2 13 -5 13 -9c0 -2.66699 -0.333008 -4.66699 -1 -6l-16 -57c-2.66699 -8 -9 -12 -19 -12c-31.333 0 -58 6.83301 -80 20.5s-38 40.167 -48 79.5l-16 61
c-6 25.333 -14.833 42.666 -26.5 51.999s-27.834 14 -48.501 14h-21v-201c0 -7.33301 -3.66699 -11 -11 -11h-72c-7.33301 0 -11 3.66699 -11 11v201h-21c-20.667 0 -36.834 -4.66699 -48.501 -14s-20.5 -26.666 -26.5 -51.999l-16 -61c-10 -39.333 -26 -65.833 -48 -79.5
s-48.667 -20.5 -80 -20.5c-10 0 -16.333 4 -19 12l-16 57c-0.666992 1.33301 -1 3.33301 -1 6c0 4 4.33301 7 13 9l12 2c1.33301 0 3.33301 0.333008 6 1c7.33301 1.33301 12.833 2.83301 16.5 4.5s7.83398 6 12.501 13s9.33398 17.5 14.001 31.5l21 64
c12 40 35 63.667 69 71c-31.333 6 -52.666 30 -63.999 72l-12 47c-6 24 -19 38.333 -39 43l-17 3c-10 2 -15 5.33301 -15 10v2l1 2l16 59c1.33301 6 8.33301 9 21 9c62.667 0 101.334 -34 116.001 -102l10 -46c2 -9.33301 3.66699 -16.333 5 -21
s4.16602 -10.834 8.49902 -18.501s10.666 -13.167 18.999 -16.5s18.5 -5 30.5 -5h32v177c0 8 3 12.667 9 14l76 18c6 0 9 -3.33301 9 -10v-199z" />
    <glyph glyph-name="afii10073" unicode="&#x437;" horiz-adv-x="427" 
d="M68 387l-26.999 42.999c-1.33301 2 -2 4.66699 -2 8c0 18.667 18.5 34.167 55.5 46.5s71.5 18.5 103.5 18.5c24 0 47.333 -3.66699 70 -11s43.5 -22 62.5 -44s28.5 -50 28.5 -84c0 -50.667 -23.667 -86 -71 -106c27.333 -6.66699 48.166 -22.667 62.499 -48
s21.5 -50.333 21.5 -75c0 -42 -12 -75.667 -36 -101c-31.333 -32.667 -79 -49 -143 -49c-42 0 -77.667 6.33301 -107 19c-35.333 16 -53 29.667 -53 41c0 2.66699 0.333008 4.66699 1 6l20 50c1.33301 3.33301 3.66602 5 6.99902 5c4 0 7 -1 9 -3
c1.33301 -0.666992 5.83301 -3.16699 13.5 -7.5l14 -8c1.66699 -1 5.83398 -3.16699 12.501 -6.5s11.167 -5.5 13.5 -6.5s6.33301 -2.5 12 -4.5s10.5 -3.33301 14.5 -4s8.66699 -1.33398 14 -2.00098s10.666 -1 15.999 -1c24.667 0 45.5 6.83301 62.5 20.5
s25.5 32.834 25.5 57.501s-8.83301 42.667 -26.5 54s-39.834 17 -66.501 17h-35c-5.33301 0 -9 1 -11 3s-3 5.66699 -3 11v50c0 5.33301 1 9 3 11s5.66699 3 11 3h28c60.667 0 91 23 91 69c0 24.667 -8 41.834 -24 51.501s-33.667 14.5 -53 14.5
c-32 0 -61.667 -10.667 -89 -32l-8 -6c-3.33301 -2.66699 -6.66602 -4 -9.99902 -4s-5.66602 1.33301 -6.99902 4z" />
    <glyph glyph-name="afii10074" unicode="&#x438;" horiz-adv-x="535" 
d="M458 495l0.000976562 -482.001c0 -8.66699 -3.33301 -13 -10 -13h-77c-8.66699 0 -13 4.33301 -13 13v222c0 23.333 1.33301 57.333 4 102l-3 1c-12.667 -27.333 -31.334 -63 -56.001 -107l-126 -225c-2.66699 -4 -7 -6 -13 -6h-74c-8.66699 0 -13 3 -13 9v468
c0 4.66699 2.66699 7.33398 8 8.00098l84 18c5.33301 0 8 -2.66699 8 -8v-243c0 -36.667 -1.33301 -71 -4 -103h4c23.333 48 41.666 83.667 54.999 107l126 220c2.66699 4.66699 6.33398 7.66699 11.001 9l73 17c2 0.666992 4.33301 1 7 1c6 0 9 -2.66699 9 -8z" />
    <glyph glyph-name="afii10075" unicode="&#x439;" horiz-adv-x="535" 
d="M337 702l61 -8c6 -0.666992 9 -4.66699 9 -12c0 -38 -14.833 -67.833 -44.5 -89.5s-61.167 -32.5 -94.5 -32.5c-18 0 -35.167 2.16699 -51.5 6.5s-33.333 15 -51 32s-29.5 39.833 -35.5 68.5l-2 14c0 7.33301 3.33301 11.666 10 12.999l60 8
c4.66699 0 7.66699 -3.33301 9 -10l2 -8c10 -36 29.667 -54 59 -54c15.333 0 28 4.83301 38 14.5s16.667 21.834 20 36.501l3 14c1.33301 4.66699 4 7 8 7zM458 495l0.000976562 -482.001c0 -8.66699 -3.33301 -13 -10 -13h-77c-8.66699 0 -13 4.33301 -13 13v222
c0 23.333 1.33301 57.333 4 102l-3 1c-12.667 -27.333 -31.334 -63 -56.001 -107l-126 -225c-2.66699 -4 -7 -6 -13 -6h-74c-8.66699 0 -13 3 -13 9v468c0 4.66699 2.66699 7.33398 8 8.00098l84 18c5.33301 0 8 -2.66699 8 -8v-243c0 -36.667 -1.33301 -71 -4 -103h4
c23.333 48 41.666 83.667 54.999 107l126 220c2.66699 4.66699 6.33398 7.66699 11.001 9l73 17c2 0.666992 4.33301 1 7 1c6 0 9 -2.66699 9 -8z" />
    <glyph glyph-name="afii10076" unicode="&#x43a;" horiz-adv-x="488" 
d="M432 494l15.0039 -58.998v-4c0 -5.33301 -2.66699 -8.33301 -8 -9l-23 -5c-19.333 -4 -32.333 -19 -39 -45l-9 -35c-3.33301 -13.333 -6.5 -23.833 -9.5 -31.5s-9.33301 -16.834 -19 -27.501s-22.167 -17.667 -37.5 -21c34.667 -10.667 57.667 -36 69 -76l21 -66
c4 -13.333 9.16699 -23.333 15.5 -30s17.166 -11.334 32.499 -14.001l15 -3c6 -0.666992 9 -3.33398 9 -8.00098c0 -2 -0.666992 -5 -2 -9l-15 -55c-2 -7.33301 -9.66699 -11 -23 -11c-30 0 -55.5 6.66699 -76.5 20s-36.833 40 -47.5 80l-19 71
c-4.66699 18 -11.834 31.5 -21.501 40.5s-17.5 13.833 -23.5 14.5s-15.667 1 -29 1h-30v-200c0 -8 -4 -12 -12 -12h-77c-7.33301 0 -11 3.66699 -11 11v462c0 6.66699 2.33301 10.334 7 11.001l81 19c0.666992 0 1.66699 0.333008 3 1c6 0 9 -4 9 -12v-198h34
c10 0 17.667 0.5 23 1.5s11.666 3.5 18.999 7.5s13.5 11.167 18.5 21.5s9.5 24.166 13.5 41.499l8 35c6 28.667 20.167 52.834 42.5 72.501s48.166 29.5 77.499 29.5c10.667 0 17 -3 19 -9z" />
    <glyph glyph-name="afii10077" unicode="&#x43b;" horiz-adv-x="499" 
d="M322 406l-114.001 -0.000976562v-19c0 -59.333 -3 -122.666 -9 -189.999c-2 -22 -5.5 -43.167 -10.5 -63.5s-13.167 -42.833 -24.5 -67.5s-28.333 -44.334 -51 -59.001s-49.667 -22 -81 -22c-9.33301 0 -15.333 4 -18 12l-13 50c-0.666992 2 -1 4.66699 -1 8
c0 6 4.66699 10.333 14 13l10 1c52.667 4 82.334 51.667 89.001 143c4 56.667 6 126.334 6 209.001v49c0 12 5 18 15 18h275c8.66699 0 13 -4.66699 13 -14v-461c0 -8.66699 -3.33301 -13 -10 -13h-82c-5.33301 -0 -8 3.33301 -8 10v396z" />
    <glyph glyph-name="afii10078" unicode="&#x43c;" horiz-adv-x="593" 
d="M503 476l25.001 -464.999c0 -7.33301 -3.33301 -11 -10 -11h-69c-6.66699 0 -10 4 -10 12l-9 297c-0.666992 15.333 -1 33.333 -1 54h-3c-3.33301 -18.667 -10.333 -43.667 -21 -75l-69 -196c-2.66699 -7.33301 -6.33398 -11 -11.001 -11h-57
c-4.66699 0 -8.33398 3.66699 -11.001 11l-72 203c-8.66699 25.333 -14.667 48 -18 68h-3c0 -18.667 -0.333008 -37.334 -1 -56.001l-9 -295c0 -8 -3 -12 -9 -12h-70c-6.66699 0 -10 4 -10 12l25 464c0.666992 8 5.33398 12 14.001 12h82c4 0 7.33301 -3.33301 10 -10
l77 -216c12.667 -38.667 20 -67.667 22 -87h3c2 19.333 9.33301 48.333 22 87l77 216c2 6.66699 5.66699 10 11 10h85c6.66699 0 10 -4 10 -12z" />
    <glyph glyph-name="afii10079" unicode="&#x43d;" horiz-adv-x="523" 
d="M346 296v178.001c0 5.33301 3 9 9 11l76 17c2 0.666992 4.33301 1 7 1c5.33301 0 8 -3 8 -9v-481c0 -8.66699 -4.33301 -13 -13 -13h-74c-6 0 -9.66699 0.833008 -11 2.5s-2 5.16699 -2 10.5v201h-169v-201c0 -6 -0.833008 -9.66699 -2.5 -11s-5.16699 -2 -10.5 -2h-74
c-8.66699 0 -13 4.33301 -13 13v461c0 5.33301 2.33301 8.66602 7 9.99902l78 18c2 0.666992 4.33301 1 7 1c5.33301 0 8 -2.66699 8 -8v-199h169z" />
    <glyph glyph-name="afii10080" unicode="&#x43e;" horiz-adv-x="508" 
d="M463 245c0 -80.667 -18.833 -144.167 -56.5 -190.5s-89.167 -69.5 -154.5 -69.5s-116 22.667 -152 68s-54 108.666 -54 189.999s18.667 145 56 191s89 69 155 69c64.667 0 115.167 -22.667 151.5 -68s54.5 -108.666 54.5 -189.999zM355 247c0 116 -33.333 174 -100 174
c-67.333 0 -101 -58 -101 -174c0 -62 8.16699 -107.5 24.5 -136.5s41.833 -43.5 76.5 -43.5s60 14.5 76 43.5s24 74.5 24 136.5z" />
    <glyph glyph-name="afii10081" unicode="&#x43f;" horiz-adv-x="517" 
d="M340 406h-163v-393c0 -8.66699 -4.33301 -13 -13 -13h-74c-8.66699 -0 -13 4.33301 -13 13v465c0 6.66699 3 10 9 10h346c5.33301 0 8 -3 8 -9v-466c0 -8.66699 -3.33301 -13 -10 -13h-77c-8.66699 -0 -13 4.33301 -13 13v393z" />
    <glyph glyph-name="afii10082" unicode="&#x440;" 
d="M477 254c0 -86.667 -14.999 -153.166 -44.999 -199.499s-73.333 -69.5 -130 -69.5c-36.667 0 -73.334 11.667 -110.001 35v-198c0 -8 -4 -13 -12 -15l-73 -18c-2 -0.666992 -4.66699 -1 -8 -1c-5.33301 0 -8 5 -8 15v546c0 36 -5.66699 65.333 -17 88
c-5.33301 13.333 -8 20.666 -8 21.999c0 4 2 7 6 9l65 33c3.33301 2 6 3 8 3c10.667 0 21.667 -19 33 -57c46 37.333 90.667 56 134 56c110 0 165 -83 165 -249zM373.001 249.001c0 60 -6.50098 103.333 -19.501 130s-34.5 40 -64.5 40
c-27.333 0 -59.666 -14.333 -96.999 -43v-279c33.333 -20 63.333 -30 90 -30c34 0 57.667 13.5 71 40.5s20 74.167 20 141.5z" />
    <glyph glyph-name="afii10083" unicode="&#x441;" horiz-adv-x="415" 
d="M405 435l-33 -53.999c-2 -2.66699 -4.33301 -4 -7 -4c-3.33301 0 -6.33301 1.33301 -9 4c-33.333 26.667 -64 40 -92 40c-73.333 0 -110 -58.667 -110 -176c0 -118.667 35.333 -178 106 -178c30.667 0 63.334 13.333 98.001 40c4.66699 3.33301 8 5 10 5
c2.66699 0 5 -2.33301 7 -7l20 -49c2.66699 -6.66699 4 -10.667 4 -12c0 -14 -19 -27.333 -57 -40s-69.333 -19 -94 -19c-64 0 -113.667 21.667 -149 65s-53 104.333 -53 183c0 83.333 19.333 149.166 58 197.499s91.667 72.5 159 72.5c27.333 0 58.166 -6.5 92.499 -19.5
s51.5 -27.167 51.5 -42.5c0 -1.33301 -0.666992 -3.33301 -2 -6z" />
    <glyph glyph-name="afii10084" unicode="&#x442;" horiz-adv-x="405" 
d="M253 406v-393c0 -8.66699 -3.66699 -13 -11 -13h-78c-7.33301 -0 -11 4.33301 -11 13v393h-123c-6.66699 0 -10 3.33301 -10 10v62c0 6.66699 3.33301 10 10 10h361c6 0 9 -3.33301 9 -10c0 -0.666992 -0.166992 -1.5 -0.5 -2.5s-0.5 -1.83301 -0.5 -2.5l-15 -58
c-1.33301 -6 -6 -9 -14 -9h-117z" />
    <glyph glyph-name="afii10085" unicode="&#x443;" horiz-adv-x="446" 
d="M441 462l-115.998 -414.002l-10.5 -39.5l-12 -44.5c-3 -10.667 -7.5 -25 -13.5 -43s-12 -32.333 -18 -43s-13.667 -22.667 -23 -36s-19.166 -23.666 -29.499 -30.999s-22.833 -13.666 -37.5 -18.999s-30.334 -8 -47.001 -8c-21.333 0 -48.333 5.16699 -81 15.5
s-49 21.166 -49 32.499c0 2 0.333008 3.66699 1 5l28 57c2 3.33301 4 5 6 5c0.666992 0 3.66699 -1.33301 9 -4c30 -18.667 56.667 -28 80 -28c19.333 0 35 6.33301 47 19s22.667 33.334 32 62.001l16 52h-40c-8.66699 0 -14.334 3.66699 -17.001 11l-156 447
c-2 5.33301 -3 9.33301 -3 12c0 4 4 7 12 9l75 15c1.33301 0 2.66602 0.166992 3.99902 0.5s2.33301 0.5 3 0.5c6.66699 0 11.334 -4 14.001 -12l97 -312c6 -18.667 16 -59.667 30 -123c1.33301 8.66699 3.16602 19.834 5.49902 33.501l6.5 37c2 11 4.33301 21.167 7 30.5
l82 334c2 8.66699 5.33301 13 10 13c0.666992 0 1.5 -0.166992 2.5 -0.5s1.83301 -0.5 2.5 -0.5l77 -19c4.66699 -0.666992 7 -3.33398 7 -8.00098c0 -2.66699 -0.333008 -4.66699 -1 -6z" />
    <glyph glyph-name="afii10086" unicode="&#x444;" horiz-adv-x="687" 
d="M386 -210h-81.9961c-6.66699 0 -10 3.66699 -10 11v215c-25.333 -20.667 -54.333 -31 -87 -31c-107.333 0 -161 86.333 -161 259c0 28.667 2.16699 56.334 6.5 83.001s11.666 54.167 21.999 82.5s26.166 51 47.499 68s47.333 25.5 78 25.5c36 0 67.333 -13.333 94 -40
v206c0 8 3 12.667 9 14l78 18c0.666992 0 1.66699 0.333008 3 1h2c5.33301 0 8 -4.33301 8 -13v-226c26.667 26.667 58 40 94 40c30.667 0 56.667 -8.5 78 -25.5s37.166 -39.667 47.499 -68s17.666 -55.833 21.999 -82.5s6.5 -54.334 6.5 -83.001
c0 -172.667 -53.667 -259 -161 -259c-32.667 0 -61.667 10.333 -87 31v-215c0 -7.33301 -2.66699 -11 -8 -11zM394.004 383l-0.00195312 -286.997c18.667 -18.667 39.334 -28 62.001 -28c12.667 0 24 2.33301 34 7s17.833 12 23.5 22s10.334 19.667 14.001 29
s6.16699 21.666 7.5 36.999s2.16602 27.666 2.49902 36.999s0.5 21.666 0.5 36.999c0 25.333 -0.666992 46 -2 62s-4.16602 34.5 -8.49902 55.5s-12 37 -23 48s-25.5 16.5 -43.5 16.5c-28.667 0 -51 -12 -67 -36zM294.002 96.0029l-0.00195312 286.997
c-16 24 -38.333 36 -67 36c-18 0 -32.5 -5.5 -43.5 -16.5s-18.667 -27 -23 -48s-7.16602 -39.5 -8.49902 -55.5s-2 -36.667 -2 -62c0 -15.333 0.166992 -27.666 0.5 -36.999s1.16602 -21.666 2.49902 -36.999s3.83301 -27.666 7.5 -36.999s8.33398 -19 14.001 -29
s13.5 -17.333 23.5 -22s21.333 -7 34 -7c22.667 0 43.334 9.33301 62.001 28z" />
    <glyph glyph-name="afii10087" unicode="&#x445;" horiz-adv-x="469" 
d="M452 29c2.66699 -3.33301 4.00293 -6.66699 4.00293 -10c0 -4 -4 -7 -12 -9l-66 -21c-5.33301 -1.33301 -8.33301 -2 -9 -2c-4.66699 0 -8.66699 2.66699 -12 8l-86 132c-16 23.333 -26.667 40 -32 50c-10.667 -18 -21 -34.333 -31 -49l-91 -133
c-4 -6 -7.66699 -9 -11 -9c-2.66699 0 -6 1.33301 -10 4l-64 24c-8.66699 4 -13 7.33301 -13 10c0 2 1.66699 5.33301 5 10l159 214l-138 197c-4 4.66699 -6 9 -6 13s2.66699 7 8 9l69 27l8 2c3.33301 0 6.66602 -2.66699 9.99902 -8l72 -114
c3.33301 -6 8.66602 -15 15.999 -27s12.666 -21 15.999 -27c6.66699 10.667 18.667 28.667 36 54l77 113c4 6 7.66699 9 11 9c1.33301 0 5.33301 -1.33301 12 -4l63 -25c5.33301 -2 8 -5 8 -9c0 -3.33301 -2.33301 -8 -7 -14l-141 -192z" />
    <glyph glyph-name="afii10088" unicode="&#x446;" horiz-adv-x="520" 
d="M495 73l-0.000976562 -194.001v-5c0 -5.33301 -4 -8 -12 -8h-64c-9.33301 0 -14 4.33301 -14 13v121h-317c-7.33301 0 -11 3 -11 9v467c0 4.66699 2.33301 7.33398 7 8.00098l78 18c2 0.666992 4.33301 1 7 1c5.33301 0 8 -2.66699 8 -8v-413h156v394
c0 4.66699 2.66699 7.66699 8 9l77 17c1.33301 0 2.83301 0.166992 4.5 0.5s2.83398 0.5 3.50098 0.5c4.66699 0 7 -2.66699 7 -8v-413h53c6 0 9 -3 9 -9z" />
    <glyph glyph-name="afii10089" unicode="&#x447;" horiz-adv-x="472" 
d="M395 495l-0.00195312 -482c0 -8.66699 -3.66699 -13 -11 -13h-80c-6 0 -9 3.66699 -9 11v176c-30.667 -12.667 -62.667 -19 -96 -19c-52 0 -91 13 -117 39c-21.333 21.333 -32 52.333 -32 93v175c0 4.66699 2.66699 7.66699 8 9l77 18c0.666992 0 1.66699 0.166992 3 0.5
s2.66602 0.5 3.99902 0.5c5.33301 0 8 -2.66699 8 -8v-184c0 -20 6.83301 -35.167 20.5 -45.5s30.5 -15.5 50.5 -15.5c24.667 0 49.334 5.33301 74.001 16v210c0 4.66699 3 7.66699 9 9l76 17c0.666992 0 1.83398 0.166992 3.50098 0.5s2.83398 0.5 3.50098 0.5
c5.33301 0 8 -2.66699 8 -8z" />
    <glyph glyph-name="afii10090" unicode="&#x448;" horiz-adv-x="708" 
d="M631 495l0.00195312 -481.999c0 -8.66699 -4.33301 -13 -13 -13h-531c-6.66699 0 -10 3.33301 -10 10v466c0 4 2.33301 6.66699 7 8l78 18c2 0.666992 4.33301 1 7 1c5.33301 0 8 -2.66699 8 -8v-413h127v393c0 5.33301 2.66699 8.66602 8 9.99902l77 17
c0.666992 0 1.66699 0.166992 3 0.5s2.66602 0.5 3.99902 0.5c5.33301 0 8 -2.33301 8 -7v-414h127v394c0 4.66699 3 7.66699 9 9l76 17c0.666992 0 1.66699 0.166992 3 0.5s2.66602 0.5 3.99902 0.5c5.33301 0 8 -2.66699 8 -8z" />
    <glyph glyph-name="afii10091" unicode="&#x449;" horiz-adv-x="718" 
d="M693 73l0.00195312 -196.999c0 -6.66699 -3.66699 -10 -11 -10h-66c-8.66699 0 -13 3.66699 -13 11v123h-516c-6.66699 0 -10 3.33301 -10 10v466c0 4 2.33301 6.66699 7 8l78 18c2 0.666992 4.33301 1 7 1c5.33301 0 8 -2.66699 8 -8v-413h127v393
c0 5.33301 2.66699 8.66602 8 9.99902l77 17c0.666992 0 1.66699 0.166992 3 0.5s2.66602 0.5 3.99902 0.5c5.33301 0 8 -2.33301 8 -7v-414h127v394c0 4.66699 3 7.66699 9 9l76 17c0.666992 0 1.66699 0.166992 3 0.5s2.66602 0.5 3.99902 0.5c5.33301 0 8 -2.66699 8 -8
v-413h53c6 0 9 -3 9 -9z" />
    <glyph glyph-name="afii10092" unicode="&#x44a;" horiz-adv-x="533" 
d="M240 308h73c62 0 108.667 -15.667 140 -47c26.667 -26.667 40 -62.667 40 -108c0 -44.667 -13.333 -80 -40 -106c-32 -31.333 -84.333 -47 -157 -47h-146c-6.66699 0 -10 3.66699 -10 11v392h-120c-7.33301 0 -11 3.33301 -11 10c0 0.666992 0.333008 1.66699 1 3l16 63
c1.33301 6 5 9 11 9h191c8 0 12 -4 12 -12v-168zM240 226v-143.999h61c21.333 0 41.666 5.16699 60.999 15.5s29 28.833 29 55.5c0 16 -3.16699 29.333 -9.5 40s-14.666 18.167 -24.999 22.5s-19 7.16602 -26 8.49902s-13.833 2 -20.5 2h-70z" />
    <glyph glyph-name="afii10093" unicode="&#x44b;" horiz-adv-x="661" 
d="M177 308h72.998c62 0 108.667 -15.667 140 -47c26.667 -26.667 40 -62.667 40 -108c0 -44.667 -13.333 -80 -40 -106c-32 -31.333 -84.333 -47 -157 -47h-146c-6.66699 0 -10 3.66699 -10 11v463c0 6 2.33301 9.33301 7 10l77 18
c0.666992 0 1.83398 0.166992 3.50098 0.5s2.83398 0.5 3.50098 0.5c6 0 9 -3.66699 9 -11v-184zM483.998 13l-0.00195312 458c0 6.66699 3 11 9 13l75 18c0.666992 0 1.83398 0.166992 3.50098 0.5s2.83398 0.5 3.50098 0.5c6 0 9 -3.66699 9 -11v-479
c0 -8.66699 -4.33301 -13 -13 -13h-74c-8.66699 -0 -13 4.33301 -13 13zM176.996 226v-143.999h61c21.333 0 41.666 5.16699 60.999 15.5s29 28.833 29 55.5c0 16 -3.16699 29.333 -9.5 40s-14.666 18.167 -24.999 22.5s-19 7.16602 -26 8.49902s-13.833 2 -20.5 2h-70z" />
    <glyph glyph-name="afii10094" unicode="&#x44c;" horiz-adv-x="470" 
d="M177 308h73.001c62 0 108.667 -15.667 140 -47c26.667 -26.667 40 -62.667 40 -108c0 -44.667 -13.333 -80 -40 -106c-32 -31.333 -84.333 -47 -157 -47h-146c-6.66699 0 -10 3.66699 -10 11v465c0 4 2.33301 6.66699 7 8l78 18c0.666992 0 1.66699 0.166992 3 0.5
s2.66602 0.5 3.99902 0.5c5.33301 0 8 -2.66699 8 -8v-187zM177.001 226v-143.999h61c21.333 0 41.666 5.16699 60.999 15.5s29 28.833 29 55.5c0 16 -3.16699 29.333 -9.5 40s-14.666 18.167 -24.999 22.5s-19 7.16602 -26 8.49902s-13.833 2 -20.5 2h-70z" />
    <glyph glyph-name="afii10095" unicode="&#x44d;" horiz-adv-x="427" 
d="M135 292l142.996 -0.00585938c0 32.667 -8.83301 62.334 -26.5 89.001s-43.5 40 -77.5 40c-28.667 0 -57.667 -10 -87 -30l-9 -6c-5.33301 -2.66699 -8.66602 -4 -9.99902 -4c-2.66699 0 -5 1.66699 -7 5l-23 48c-1.33301 2.66699 -2 4.66699 -2 6
c0 4 5.66699 10.833 17 20.5s28.833 19.167 52.5 28.5s48.834 14 75.501 14c35.333 0 66 -6.66699 92 -20s45.833 -29.333 59.5 -48s24.334 -41.167 32.001 -67.5s12.5 -48.666 14.5 -66.999s3 -37.833 3 -58.5c0 -93.333 -21.333 -161.666 -64 -204.999
c-34 -34.667 -79 -52 -135 -52c-64 0 -111.667 15.667 -143 47c-4.66699 4.66699 -7 9.33398 -7 14.001c0 2 0.333008 3.66699 1 5l20 48c2 5.33301 4.66699 8 8 8c2.66699 0 6.33398 -1.66699 11.001 -5c32.667 -23.333 64.667 -35 96 -35
c27.333 0 49.833 8.83301 67.5 26.5s29.167 36.334 34.5 56.001s8 39.834 8 60.501h-144c-8.66699 0 -13 4.33301 -13 13v56c0 8.66699 4.33301 13 13 13z" />
    <glyph glyph-name="afii10096" unicode="&#x44e;" horiz-adv-x="697" 
d="M177 297l68.0029 0.00292969c4 56.667 23 105.167 57 145.5s81.333 60.5 142 60.5c35.333 0 66.166 -7.16699 92.499 -21.5s46.166 -31.333 59.499 -51s24.166 -42.667 32.499 -69s13.5 -48.333 15.5 -66s3 -34.834 3 -51.501c0 -18.667 -1.5 -38 -4.5 -58
s-9.16699 -42.5 -18.5 -67.5s-21 -47.167 -35 -66.5s-33.667 -35.5 -59 -48.5s-54.333 -19.5 -87 -19.5c-34.667 0 -65 6.5 -91 19.5s-45.667 28.167 -59 45.5s-24 37.833 -32 61.5s-13 43.167 -15 58.5s-3 30.666 -3 45.999h-66v-202c0 -8.66699 -4.33301 -13 -13 -13h-74
c-8.66699 0 -13 4.33301 -13 13v458c0 7.33301 2.33301 11.666 7 12.999l78 18c0.666992 0 1.66699 0.166992 3 0.5s2.33301 0.5 3 0.5c6 0 9 -3.66699 9 -11v-195zM442.003 421.003c-66.667 0 -100 -57 -100 -171c0 -85.333 14 -140 42 -164
c14.667 -13.333 33.667 -20 57 -20c25.333 0 45.5 8.16699 60.5 24.5s25 36.5 30 60.5s7.5 53.667 7.5 89c0 68.667 -8.83301 116 -26.5 142s-41.167 39 -70.5 39z" />
    <glyph glyph-name="afii10097" unicode="&#x44f;" horiz-adv-x="494" 
d="M407 0l-80.002 -0.00292969c-6.66699 0 -10 4.33301 -10 13v182h-43c-18 0 -32.833 -4.16699 -44.5 -12.5s-20.834 -24.833 -27.501 -49.5l-13 -47c-11.333 -40 -27.666 -66.833 -48.999 -80.5s-48.666 -20.5 -81.999 -20.5c-8.66699 0 -13.667 2.66699 -15 8l-18 63
l-1 1v2c0 4.66699 4.66699 8 14 10l16 3c14.667 3.33301 24.334 8.33301 29.001 15s8.66699 16.334 12 29.001l11 37l7.5 22c2.33301 6.66699 4.5 12.167 6.5 16.5s4.5 8.5 7.5 12.5s5.33301 7 7 9s4.16699 4.16699 7.5 6.5l6.5 4.5c1 0.666992 3.5 1.83398 7.5 3.50098
s6.33301 2.83398 7 3.50098v2c-64.667 13.333 -97 52 -97 116c0 28 6.33301 52 19 72s29 34.5 49 43.5s38.333 15.167 55 18.5s32.667 5 48 5h172c5.33301 0 8 -3.33301 8 -10v-468c0 -6.66699 -3.33301 -10 -10 -10zM316.998 272.997l0.000976562 137.001h-72
c-19.333 0 -37 -5.33301 -53 -16s-24 -27.334 -24 -50.001c0 -26 8.66699 -44.333 26 -55s36.666 -16 57.999 -16h65z" />
    <glyph glyph-name="afii10071" unicode="&#x451;" horiz-adv-x="480" 
d="M444 255l-0.000976562 -6.99805c0 -7.33301 -0.333008 -12.833 -1 -16.5s-2.16699 -6.83398 -4.5 -9.50098s-5.83301 -4 -10.5 -4h-278c4 -98 44.333 -147 121 -147c14 0 27.667 1.5 41 4.5s23 5.5 29 7.5s15.833 6.33301 29.5 13l22.5 11
c2.66699 1.33301 4.33398 2 5.00098 2c3.33301 0 6 -2.66699 8 -8l23 -50c2 -4 3 -7.33301 3 -10c0 -13.333 -21 -26 -63 -38s-78 -18 -108 -18c-68 0 -120.833 22.5 -158.5 67.5s-56.5 108.167 -56.5 189.5c0 79.333 19 142.666 57 189.999s88.333 71 151 71
c61.333 0 108.333 -21.333 141 -64s49 -104 49 -184zM336.999 295.002c-2 88 -31.667 132 -89 132c-58 0 -90.333 -44 -97 -132h186zM414.999 648.002c0 -17.333 -5.83301 -31.833 -17.5 -43.5s-26.167 -17.5 -43.5 -17.5c-16.667 0 -31 6 -43 18s-18 26.333 -18 43
c0 17.333 6 32.166 18 44.499s26.333 18.5 43 18.5s31 -6.16699 43 -18.5s18 -27.166 18 -44.499zM227.999 648.002c0 -16.667 -6.16699 -31 -18.5 -43s-26.833 -18 -43.5 -18s-30.834 6 -42.501 18s-17.5 26.333 -17.5 43c0 17.333 5.83301 32.166 17.5 44.499
s25.834 18.5 42.501 18.5s31.167 -6.16699 43.5 -18.5s18.5 -27.166 18.5 -44.499z" />
    <glyph glyph-name="afii10099" unicode="&#x452;" horiz-adv-x="535" 
d="M183 572v-131.999c43.333 42 91.333 63 144 63c87.333 0 131 -82.667 131 -248c0 -104.667 -13.667 -195.334 -41 -272.001c-28.667 -82 -70 -150 -124 -204l-11 -11c-2.66699 -2.66699 -5.66699 -4 -9 -4c-2.66699 0 -6 1.33301 -10 4l-39 26
c-4 2.66699 -6 5.66699 -6 9s2 7.66602 6 12.999l9 12c20 26.667 35.667 49.834 47 69.501s23.5 45.5 36.5 77.5s22.5 69.333 28.5 112s9 91.667 9 147c0 64.667 -4.5 111.667 -13.5 141s-26.833 44 -53.5 44c-36 0 -70.667 -17.333 -104 -52v-354
c0 -5.33301 -0.666992 -8.83301 -2 -10.5s-5 -2.5 -11 -2.5h-74c-6 -0 -9.66699 0.833008 -11 2.5s-2 5.16699 -2 10.5v559h-60c-8.66699 0 -13 3.66699 -13 11v36c0 5.33301 0.666992 8.83301 2 10.5s5 2.5 11 2.5h60v60c0 8 3 12.667 9 14l83 18
c5.33301 0 8 -3.33301 8 -10v-82h127c9.33301 0 14 -4.33301 14 -13v-35c0 -8 -4.33301 -12 -13 -12h-128z" />
    <glyph glyph-name="afii10100" unicode="&#x453;" horiz-adv-x="396" 
d="M376 474l-12 -58c-2 -8.66699 -7 -13 -15 -13h-170v-390c0 -8.66699 -4.33301 -13 -13 -13h-76c-8.66699 -0 -13 4.33301 -13 13v463c0 8 3.66699 12 11 12h276c8 0 12 -3.33301 12 -10v-4zM341 663c3.33301 -5.33301 5 -9 5 -11c0 -4 -5 -8 -15 -12l-171 -78
c-5.33301 -2 -9 -3 -11 -3c-2.66699 0 -5 2 -7 6l-17 32c-2 4 -3 7 -3 9s3.33301 5.33301 10 10l154 105c5.33301 4 9.33301 6 12 6s6 -3.66699 10 -11z" />
    <glyph glyph-name="afii10101" unicode="&#x454;" horiz-adv-x="446" 
d="M404 434l-29.999 -55c-2 -2.66699 -4 -4 -6 -4c-2.66699 0 -7 2.33301 -13 7c-30.667 24.667 -61 37 -91 37c-38 0 -65.5 -12.833 -82.5 -38.5s-26.167 -55.167 -27.5 -88.5h137c8.66699 0 13 -4.33301 13 -13v-56c0 -8.66699 -4.33301 -13 -13 -13h-139v-4
c0 -39.333 9.66699 -72.166 29 -98.499s47 -39.5 83 -39.5c17.333 0 30.666 1.66699 39.999 5s26.666 12.333 51.999 27l5 3c2.66699 1.33301 5.33398 2 8.00098 2c4 0 6.33301 -1.66699 7 -5l23 -59c0.666992 -0.666992 1 -2.33398 1 -5.00098
c0 -12 -17.333 -23.667 -52 -35s-65 -17 -91 -17c-62.667 0 -112 19.333 -148 58c-42 44 -63 108.333 -63 193c0 51.333 6.83301 95.5 20.5 132.5s32 64.833 55 83.5s46.167 32 69.5 40s47.333 12 72 12c28 0 55.667 -5.66699 83 -17c40 -17.333 60 -32.333 60 -45
c0 -2 -0.666992 -4.33301 -2 -7z" />
    <glyph glyph-name="afii10102" unicode="&#x455;" horiz-adv-x="421" 
d="M381 137c0 -45.333 -15.167 -81.9961 -45.5 -109.996s-70.166 -42 -119.499 -42c-62 0 -116.667 14.333 -164 43c-6.66699 4 -10 7 -10 9c0 0.666992 0.5 2.16699 1.5 4.5s1.83301 4.5 2.5 6.5l21 52c2 4.66699 4.33301 7 7 7c1.33301 0 5.33301 -1.66699 12 -5
c49.333 -24 91.333 -36 126 -36c20.667 0 37.334 5.66699 50.001 17s19 26.666 19 45.999c0 8.66699 -1.83301 16.167 -5.5 22.5s-10.334 12.666 -20.001 18.999s-19.834 12.166 -30.501 17.499l-48 25c-21.333 11.333 -42 23 -62 35c-37.333 23.333 -56 58 -56 104
c0 44 15.5 80.167 46.5 108.5s70.833 42.5 119.5 42.5c24.667 0 54.167 -4.66699 88.5 -14s51.5 -20 51.5 -32c0 -2.66699 -1 -6 -3 -10l-21 -44c-2.66699 -5.33301 -6 -8 -10 -8c-2.66699 0 -6 1 -10 3c-36.667 16.667 -68 25 -94 25c-22.667 0 -40 -5.16699 -52 -15.5
s-18 -24.833 -18 -43.5c0 -14 4.16699 -25.333 12.5 -34s24.5 -19.334 48.5 -32.001c71.333 -38.667 113 -63 125 -73c23.333 -18 36 -42.667 38 -74v-14z" />
    <glyph glyph-name="afii10103" unicode="&#x456;" horiz-adv-x="286" 
d="M201 14c0 -6 -0.666992 -9.83496 -2 -11.502s-5 -2.5 -11 -2.5h-73c-6.66699 0 -10.667 0.833008 -12 2.5s-2 5.83398 -2 12.501v395h-77c-6.66699 0 -10.834 0.833008 -12.501 2.5s-2.5 5.83398 -2.5 12.501v48c0 6.66699 0.833008 10.834 2.5 12.501
s5.83398 2.5 12.501 2.5h163c6 0 9.83301 -0.833008 11.5 -2.5s2.5 -5.83398 2.5 -12.501v-459zM217 648.998c0 -20 -6.83301 -36.833 -20.5 -50.5s-30.5 -20.5 -50.5 -20.5c-19.333 0 -36 6.83301 -50 20.5s-21 30.5 -21 50.5c0 19.333 7 36 21 50s30.667 21 50 21
s36 -7 50 -21s21 -30.667 21 -50z" />
    <glyph glyph-name="afii10104" unicode="&#x457;" horiz-adv-x="258" 
d="M207 14c0 -6 -0.666992 -9.83496 -2 -11.502s-5 -2.5 -11 -2.5h-73c-6.66699 0 -10.667 0.833008 -12 2.5s-2 5.83398 -2 12.501v395h-77c-6.66699 0 -10.834 0.833008 -12.501 2.5s-2.5 5.83398 -2.5 12.501v48c0 6.66699 0.833008 10.834 2.5 12.501
s5.83398 2.5 12.501 2.5h163c6 0 9.83301 -0.833008 11.5 -2.5s2.5 -5.83398 2.5 -12.501v-459zM121 647.998c0 -16.667 -5.66699 -31 -17 -43s-25.333 -18 -42 -18c-16 0 -29.5 6 -40.5 18s-16.5 26.333 -16.5 43c0 17.333 5.5 32.166 16.5 44.499s24.5 18.5 40.5 18.5
c16.667 0 30.667 -6.16699 42 -18.5s17 -27.166 17 -44.499zM249 647.998c0 -16.667 -5.66699 -31 -17 -43s-25 -18 -41 -18s-29.667 6 -41 18s-17 26.333 -17 43c0 17.333 5.66699 32.166 17 44.499s25 18.5 41 18.5s29.667 -6.16699 41 -18.5s17 -27.166 17 -44.499z" />
    <glyph glyph-name="afii10105" unicode="&#x458;" horiz-adv-x="292" 
d="M207 -21c0 -77.333 -12.8311 -130.331 -38.498 -158.998s-65.5 -43 -119.5 -43c-20 0 -44.5 3.33301 -73.5 10s-43.5 14 -43.5 22c0 2 1 5.33301 3 10l20 58c2 4 4.66699 6 8 6c2 0 5.66699 -1 11 -3c27.333 -12 50.666 -18 69.999 -18
c25.333 0 42.166 8.33301 50.499 25s12.5 50.334 12.5 101.001v422h-80c-6 0 -9.5 0.666992 -10.5 2s-1.5 5.66602 -1.5 12.999v48c0 7.33301 0.833008 11.666 2.5 12.999s5.83398 2 12.501 2h165c5.33301 0 8.66602 -0.833008 9.99902 -2.5s2 -5.83398 2 -12.501v-494z
M223.002 649.002c0 -20 -7 -36.833 -21 -50.5s-30.667 -20.5 -50 -20.5c-20 0 -36.833 6.83301 -50.5 20.5s-20.5 30.5 -20.5 50.5c0 19.333 6.83301 36 20.5 50s30.5 21 50.5 21c19.333 0 36 -7 50 -21s21 -30.667 21 -50z" />
    <glyph glyph-name="afii10106" unicode="&#x459;" horiz-adv-x="715" 
d="M422 308l72.999 -0.000976562c62 0 108.667 -15.667 140 -47c26.667 -26.667 40 -62.667 40 -108c0 -44.667 -13.333 -80 -40 -106c-32 -31.333 -84.333 -47 -157 -47h-146c-6.66699 0 -10 3.66699 -10 11v395h-114v-19c0 -59.333 -3 -122.666 -9 -189.999
c-2 -22 -5.5 -43.167 -10.5 -63.5s-13.167 -42.833 -24.5 -67.5s-28.333 -44.334 -51 -59.001s-49.667 -22 -81 -22c-9.33301 0 -15.333 4 -18 12l-13 50c-0.666992 2 -1 4.66699 -1 8c0 6 4.66699 10.333 14 13l10 1c52.667 4 82.334 51.667 89.001 143
c4 56.667 6 126.334 6 209.001v49c0 12 5 18 15 18h276c8 0 12 -4.33301 12 -13v-167zM421.999 225.999v-143.999h61c21.333 0 41.666 5.16699 60.999 15.5s29 28.833 29 55.5c0 16 -3.16699 29.333 -9.5 40s-14.666 18.167 -24.999 22.5s-19 7.16602 -26 8.49902
s-13.833 2 -20.5 2h-70z" />
    <glyph glyph-name="afii10107" unicode="&#x45a;" horiz-adv-x="739" 
d="M446 308l73.001 0.000976562c62 0 108.667 -15.667 140 -47c26.667 -26.667 40 -62.667 40 -108c0 -44.667 -13.333 -80 -40 -106c-32 -31.333 -84.333 -47 -157 -47h-146c-6.66699 0 -10 3.66699 -10 11v215h-169v-213c0 -6 -0.833008 -9.66699 -2.5 -11
s-5.16699 -2 -10.5 -2h-74c-8.66699 0 -13 4.33301 -13 13v461c0 5.33301 2.33301 8.66602 7 9.99902l78 18c2 0.666992 4.33301 1 7 1c5.33301 0 8 -2.66699 8 -8v-187h169v168c0 4 2.33301 6.66699 7 8l78 18c0.666992 0 1.66699 0.166992 3 0.5s2.66602 0.5 3.99902 0.5
c5.33301 0 8 -2.66699 8 -8v-187zM446.001 226.001v-143.999h61c21.333 0 41.666 5.16699 60.999 15.5s29 28.833 29 55.5c0 16 -3.16699 29.333 -9.5 40s-14.666 18.167 -24.999 22.5s-19 7.16602 -26 8.49902s-13.833 2 -20.5 2h-70z" />
    <glyph glyph-name="afii10108" unicode="&#x45b;" horiz-adv-x="531" 
d="M454 364l-0.000976562 -354.001c0 -6.66699 -4.33301 -10 -13 -10h-74c-5.33301 0 -8.83301 0.666992 -10.5 2s-2.5 5 -2.5 11v333c0 22 -5.5 39.667 -16.5 53s-26.167 20 -45.5 20c-35.333 0 -71.666 -17.333 -108.999 -52v-357c0 -6.66699 -4.33301 -10 -13 -10h-74
c-8.66699 0 -13 3 -13 9v563h-60c-8.66699 0 -13 4.66699 -13 14v33c0 8.66699 4.33301 13 13 13h60v60c0 5.33301 0.833008 8.83301 2.5 10.5s5.16699 3.16699 10.5 4.5l71 16c2 0.666992 4.33301 1 7 1c6 0 9 -4.33301 9 -13v-79h127c9.33301 0 14 -5 14 -15v-31
c0 -9.33301 -4.33301 -14 -13 -14h-128v-132c26 22.667 47.333 37.334 64 44.001c26 12.667 54 19 84 19s54.667 -8 74 -24s32.333 -33.833 39 -53.5s10 -40.167 10 -61.5z" />
    <glyph glyph-name="afii10109" unicode="&#x45c;" horiz-adv-x="488" 
d="M432 494l15.0039 -58.998v-4c0 -5.33301 -2.66699 -8.33301 -8 -9l-23 -5c-19.333 -4 -32.333 -19 -39 -45l-9 -35c-3.33301 -13.333 -6.5 -23.833 -9.5 -31.5s-9.33301 -16.834 -19 -27.501s-22.167 -17.667 -37.5 -21c34.667 -10.667 57.667 -36 69 -76l21 -66
c4 -13.333 9.16699 -23.333 15.5 -30s17.166 -11.334 32.499 -14.001l15 -3c6 -0.666992 9 -3.33398 9 -8.00098c0 -2 -0.666992 -5 -2 -9l-15 -55c-2 -7.33301 -9.66699 -11 -23 -11c-30 0 -55.5 6.66699 -76.5 20s-36.833 40 -47.5 80l-19 71
c-4.66699 18 -11.834 31.5 -21.501 40.5s-17.5 13.833 -23.5 14.5s-15.667 1 -29 1h-30v-200c0 -8 -4 -12 -12 -12h-77c-7.33301 0 -11 3.66699 -11 11v462c0 6.66699 2.33301 10.334 7 11.001l81 19c0.666992 0 1.66699 0.333008 3 1c6 0 9 -4 9 -12v-198h34
c10 0 17.667 0.5 23 1.5s11.666 3.5 18.999 7.5s13.5 11.167 18.5 21.5s9.5 24.166 13.5 41.499l8 35c6 28.667 20.167 52.834 42.5 72.501s48.166 29.5 77.499 29.5c10.667 0 17 -3 19 -9zM391.004 663.002c3.33301 -5.33301 5 -9 5 -11c0 -4 -5 -8 -15 -12l-171 -78
c-5.33301 -2 -9 -3 -11 -3c-2.66699 0 -5 2 -7 6l-17 32c-2 4 -3 7 -3 9s3.33301 5.33301 10 10l154 105c5.33301 4 9.33301 6 12 6s6 -3.66699 10 -11z" />
    <glyph glyph-name="afii10110" unicode="&#x45e;" horiz-adv-x="446" 
d="M364 674c0 -31.333 -13.333 -58.502 -40 -81.502s-58 -34.5 -94 -34.5c-38 0 -70.167 11.167 -96.5 33.5s-39.5 49.5 -39.5 81.5c0 8.66699 4 13.334 12 14.001l57 7c4 0 7 -3.66699 9 -11v-2c6.66699 -38 25.667 -57 57 -57c32 0 51.333 19 58 57c2 9.33301 5 14 9 14
c0.666992 0 1.66699 -0.166992 3 -0.5s2.33301 -0.5 3 -0.5l51 -7c7.33301 -1.33301 11 -5.66602 11 -12.999zM441 461.998l-115.998 -414.002l-10.5 -39.5l-12 -44.5c-3 -10.667 -7.5 -25 -13.5 -43s-12 -32.333 -18 -43s-13.667 -22.667 -23 -36
s-19.166 -23.666 -29.499 -30.999s-22.833 -13.666 -37.5 -18.999s-30.334 -8 -47.001 -8c-21.333 0 -48.333 5.16699 -81 15.5s-49 21.166 -49 32.499c0 2 0.333008 3.66699 1 5l28 57c2 3.33301 4 5 6 5c0.666992 0 3.66699 -1.33301 9 -4c30 -18.667 56.667 -28 80 -28
c19.333 0 35 6.33301 47 19s22.667 33.334 32 62.001l16 52h-40c-8.66699 0 -14.334 3.66699 -17.001 11l-156 447c-2 5.33301 -3 9.33301 -3 12c0 4 4 7 12 9l75 15c1.33301 0 2.66602 0.166992 3.99902 0.5s2.33301 0.5 3 0.5c6.66699 0 11.334 -4 14.001 -12l97 -312
c6 -18.667 16 -59.667 30 -123c1.33301 8.66699 3.16602 19.834 5.49902 33.501l6.5 37c2 11 4.33301 21.167 7 30.5l82 334c2 8.66699 5.33301 13 10 13c0.666992 0 1.5 -0.166992 2.5 -0.5s1.83301 -0.5 2.5 -0.5l77 -19c4.66699 -0.666992 7 -3.33398 7 -8.00098
c0 -2.66699 -0.333008 -4.66699 -1 -6z" />
    <glyph glyph-name="afii10193" unicode="&#x45f;" horiz-adv-x="519" 
d="M342 82l0.000976562 392c0 6 4.66699 10 14 12l73 16h3l2 1c5.33301 0 8 -3.66699 8 -11v-479c0 -8.66699 -4.33301 -13 -13 -13h-120v-145c0 -6 -4.33301 -9 -13 -9h-74c-8.66699 0 -13 3.66699 -13 11v143h-119c-8.66699 -0 -13 4.33301 -13 13v462
c0 5.33301 4 9 12 11l73 16c0.666992 0 1.66699 0.166992 3 0.5s2.66602 0.5 3.99902 0.5c5.33301 0 8 -2.66699 8 -8v-413h165z" />
    <glyph glyph-name="afii10050" unicode="&#x490;" horiz-adv-x="463" 
d="M90 14v656c0 10.667 5.33301 16 16 16h233v138c0 10.667 5.33301 16 16 16h72c10.667 0 16 -5.33301 16 -16v-218c0 -10.667 -4.66699 -16 -14 -16h-229v-574c0 -10.667 -5.33301 -16 -16 -16h-78c-10.667 0 -16 4.66699 -16 14z" />
    <glyph glyph-name="afii10098" unicode="&#x491;" horiz-adv-x="410" 
d="M188 403v-390v-3c0 -6.66699 -4.33301 -10 -13 -10h-74c-8.66699 -0 -13 4.33301 -13 13v461c0 9.33301 4.33301 14 13 14h184v131c0 8.66699 4.33301 13 13 13h74c8.66699 0 13 -4.33301 13 -13v-202c0 -6 -0.833008 -9.83301 -2.5 -11.5s-5.5 -2.5 -11.5 -2.5h-183z
" />
    <glyph glyph-name="endash" unicode="&#x2013;" horiz-adv-x="508" 
d="M467 230c0 -7.33301 -1 -12 -3 -14s-6.66699 -3 -14 -3h-392c-7.33301 0 -12 1 -14 3s-3 6.66699 -3 14v53c0 7.33301 1 12 3 14s6.66699 3 14 3h392c7.33301 0 12 -1 14 -3s3 -6.66699 3 -14v-53z" />
    <glyph glyph-name="emdash" unicode="&#x2014;" horiz-adv-x="812" 
d="M773 232c0 -7.33301 -1 -12 -3 -14s-6.66699 -3 -14 -3h-700c-7.33301 0 -12 1 -14 3s-3 6.66699 -3 14v49c0 7.33301 1 12 3 14s6.66699 3 14 3h700c7.33301 0 12 -1 14 -3s3 -6.66699 3 -14v-49z" />
    <glyph glyph-name="quoteleft" unicode="&#x2018;" horiz-adv-x="279" 
d="M224 684l-61.001 -202.999c-2.66699 -8.66699 -8.66699 -13 -18 -13h-90c-10.667 0 -16 2.66699 -16 8c0 3.33301 1.66699 7.66602 5 12.999l117 218c3.33301 7.33301 7 11 11 11c2.66699 0 6.33398 -1 11.001 -3l32 -11c7.33301 -2.66699 11 -6 11 -10z" />
    <glyph glyph-name="quoteright" unicode="&#x2019;" horiz-adv-x="247" 
d="M231 690l-116.999 -218c-4 -7.33301 -8 -11 -12 -11c-2.66699 0 -6.33398 1 -11.001 3l-32 10c-6.66699 2.66699 -10 5.66699 -10 9c0 1.33301 0.666992 5.33301 2 12l60 202c2.66699 9.33301 8.66699 14 18 14h90c10.667 0 16 -3 16 -9
c0 -3.33301 -1.33301 -7.33301 -4 -12z" />
    <glyph glyph-name="quotedblleft" unicode="&#x201c;" horiz-adv-x="465" 
d="M409 684l-61 -202.998c-2.66699 -8.66699 -8.66699 -13 -18 -13h-90c-10.667 0 -16 2.66699 -16 8c0 3.33301 1.66699 7.66602 5 12.999l117 218c4 7.33301 7.66699 11 11 11c2 0 5.66699 -1 11 -3l32 -11c7.33301 -2.66699 11 -5.66699 11 -9
c0 -0.666992 -0.666992 -4.33398 -2 -11.001zM224 684.002l-61.001 -202.999c-2.66699 -8.66699 -8.66699 -13 -18 -13h-90c-10.667 0 -16 2.66699 -16 8c0 3.33301 1.66699 7.66602 5 12.999l117 218c3.33301 7.33301 7 11 11 11c2.66699 0 6.33398 -1 11.001 -3l32 -11
c7.33301 -2.66699 11 -6 11 -10z" />
    <glyph glyph-name="quotedblright" unicode="&#x201d;" horiz-adv-x="466" 
d="M426 688l-117.999 -218c-4 -7.33301 -7.66699 -11 -11 -11c-2 0 -5.66699 1 -11 3l-32 11c-7.33301 2.66699 -11 5.66699 -11 9c0 2 1 6 3 12l59 201c3.33301 10 9.66602 15 18.999 15h89c11.333 0 17 -3.33301 17 -10c0 -3.33301 -1.33301 -7.33301 -4 -12zM240.001 688
l-116.999 -218.001c-3.33301 -7.33301 -7 -11 -11 -11c-2.66699 0 -6.33398 1 -11.001 3l-32 11c-7.33301 2.66699 -11 6 -11 10c0 0.666992 0.666992 4.33398 2 11.001l60 201c2.66699 10 9 15 19 15h89c10.667 0 16 -3 16 -9c0 -4 -1.33301 -8.33301 -4 -13z" />
    <glyph glyph-name="quotedblbase" unicode="&#x201e;" horiz-adv-x="466" 
d="M240 99l-117 -218c-4.66699 -7.33301 -8.66699 -11 -12 -11l-10 2l-32 11c-7.33301 2.66699 -11 5.66699 -11 9c0 0.666992 0.666992 4.33398 2 11.001l60 203c2.66699 8.66699 9 13 19 13h89c10.667 0 16 -3 16 -9c0 -2.66699 -1.33301 -6.33398 -4 -11.001zM426 99
l-118.001 -218.001c-4.66699 -8 -8.66699 -12 -12 -12c-1.33301 0 -4.66602 1 -9.99902 3l-32 11c-7.33301 2.66699 -11 5.66699 -11 9c0 2.66699 1 6.33398 3 11.001l59 203c2.66699 8.66699 9 13 19 13h89c11.333 0 17 -2.66699 17 -8
c0 -3.33301 -1.33301 -7.33301 -4 -12z" />
    <glyph glyph-name="dagger" unicode="&#x2020;" horiz-adv-x="526" 
d="M444 401c0 -7.33301 -0.832031 -11.833 -2.49902 -13.5s-6.16699 -2.5 -13.5 -2.5h-119v-579c0 -7.33301 -1 -12.166 -3 -14.499s-6.33301 -3.5 -13 -3.5h-59c-7.33301 0 -12 1.16699 -14 3.5s-3 7.16602 -3 14.499v579h-117c-8 0 -13 0.833008 -15 2.5
s-3 6.16699 -3 13.5v50c0 7.33301 1.16699 12 3.5 14s7.16602 3 14.499 3h117v201c0 7.33301 1.16699 12 3.5 14s6.83301 3 13.5 3h59c7.33301 0 11.833 -1 13.5 -3s2.5 -6.66699 2.5 -14v-201h119c7.33301 0 11.833 -1 13.5 -3s2.5 -6.66699 2.5 -14v-50z" />
    <glyph glyph-name="bullet" unicode="&#x2022;" horiz-adv-x="694" 
d="M488 350c0 -39.333 -13.667 -73.166 -41 -101.499s-60.333 -42.5 -99 -42.5s-72 14.167 -100 42.5s-42 62.166 -42 101.499s14 73.166 42 101.499s61.333 42.5 100 42.5s71.667 -14.167 99 -42.5s41 -62.166 41 -101.499z" />
    <glyph glyph-name="ellipsis" unicode="&#x2026;" horiz-adv-x="897" 
d="M234 68c0 -22.667 -8 -42 -24 -58s-35.333 -24 -58 -24s-42 8 -58 24s-24 35.333 -24 58s8 42 24 58s35.333 24 58 24s42 -8 58 -24s24 -35.333 24 -58zM531 68c0 -22.667 -8 -42 -24 -58s-35.667 -24 -59 -24c-22.667 0 -42 8 -58 24s-24 35.333 -24 58s8 42 24 58
s35.333 24 58 24s42.167 -8 58.5 -24s24.5 -35.333 24.5 -58zM828 68c0 -22.667 -8 -42 -24 -58s-35.667 -24 -59 -24s-43 8 -59 24s-24 35.333 -24 58s8.16699 42 24.5 58s35.833 24 58.5 24s42.167 -8 58.5 -24s24.5 -35.333 24.5 -58z" />
    <glyph glyph-name="Euro" unicode="&#x20ac;" horiz-adv-x="485" 
d="M441 118l29.9971 -47.9961c3.33301 -4.66699 5 -9 5 -13c0 -5.33301 -3.66699 -10.666 -11 -15.999c-43.333 -37.333 -94 -56 -152 -56c-63.333 0 -114 19 -152 57c-23.333 24 -41.833 55.333 -55.5 94s-21.167 78.667 -22.5 120h-65c-9.33301 0 -14 3.33301 -14 10
c0 2.66699 0.333008 4.66699 1 6l16 33c0.666992 0.666992 1.33398 2 2.00098 4s1.16699 3.33301 1.5 4l1.5 3c0.666992 1.33301 1.33398 2.16602 2.00098 2.49902l3 1.5c1.33301 0.666992 2.83301 1 4.5 1h5.5h36v45h-51c-10 0 -15 2.33301 -15 7
c0 2.66699 0.333008 4.66699 1 6l17 36c0.666992 1.33301 1.5 3.16602 2.5 5.49902s1.66699 3.83301 2 4.5s1.16602 1.66699 2.49902 3s3 2.16602 5 2.49902s4.66699 0.5 8 0.5h32c2 22 5.5 44 10.5 66s13.333 45.833 25 71.5s25.667 48 42 67s37.833 34.833 64.5 47.5
s56.667 19 90 19c57.333 0 109.333 -20 156 -60l7 -6c2.66699 -2.66699 4 -6.33398 4 -11.001c0 -2.66699 -0.333008 -4.33398 -1 -5.00098l-36 -58c-2 -3.33301 -5 -5 -9 -5c-4.66699 0 -8.66699 1.66699 -12 5l-6 5c-34.667 28.667 -67.667 43 -99 43
c-73.333 0 -113.666 -59.667 -120.999 -179h177c10.667 0 16 -3.33301 16 -10c0 -3.33301 -0.666992 -6.33301 -2 -9l-17 -36c-3.33301 -6.66699 -8.66602 -10 -15.999 -10h-159v-45h135c9.33301 0 14 -3.33301 14 -10c0 -2 -0.666992 -4.33301 -2 -7l-16 -34
c-4 -9.33301 -10.333 -14 -19 -14h-108v-4c0 -50 10.5 -91.833 31.5 -125.5s51.167 -50.5 90.5 -50.5c30.667 0 62.667 13.667 96 41c7.33301 4.66699 12.333 7 15 7c3.33301 0 6.33301 -2 9 -6z" />
    <glyph glyph-name="afii61352" unicode="&#x2116;" horiz-adv-x="903" 
d="M519 676l0.000976562 -662c0 -9.33301 -4 -14 -12 -14h-67c-8.66699 0 -14.667 4 -18 12l-206 418c-20.667 40.667 -35 78 -43 112c3.33301 -43.333 5 -77 5 -101v-427c0 -9.33301 -4 -14 -12 -14h-70c-8 0 -12 5 -12 15v657c0 5.33301 1 9 3 11s5.66699 3 11 3h82
c5.33301 0 9.66602 -3.33301 12.999 -10l192 -388c19.333 -40 34 -78.333 44 -115c-2.66699 31.333 -4 68 -4 110v389c0 9.33301 4 14 12 14h70c8 0 12 -3.33301 12 -10zM580.001 540c0 16.667 1.66602 33.001 4.99902 49.001s9.33301 33.167 18 51.5
s22.5 33.166 41.5 44.499s42.167 17 69.5 17c26 0 48.167 -5.5 66.5 -16.5s32 -25.333 41 -43s15.5 -35 19.5 -52s6 -34.167 6 -51.5c0 -40.667 -10.667 -77.667 -32 -111s-56 -50 -104 -50c-25.333 0 -47.166 5.33301 -65.499 16s-31.833 24.667 -40.5 42
s-15 34.5 -19 51.5s-6 34.5 -6 52.5zM659 547.001c0 -25.333 1.66699 -46 5 -62s8.5 -26.833 15.5 -32.5s12.667 -9.16699 17 -10.5s10.5 -2 18.5 -2c35.333 0 53 33 53 99c0 66.667 -18 100 -54 100c-36.667 0 -55 -30.667 -55 -92zM844 298.001v-45c0 -8 -4 -12 -12 -12
h-237c-8 0 -12 4 -12 12v45c0 8 3.66699 12 11 12h239c7.33301 0 11 -4 11 -12z" />
    <glyph glyph-name="trademark" unicode="&#x2122;" horiz-adv-x="702" 
d="M646 309l0.000976562 -2.99805c0 -7.33301 -5 -11 -15 -11h-45c-10 0 -15 4.33301 -15 13l-5 203v70c-4.66699 -18 -12.334 -41.333 -23.001 -70l-43 -119c-2 -6 -7.33301 -9 -16 -9h-27c-8.66699 0 -14 3 -16 9l-40 114c-12 36 -19.667 60.667 -23 74v-22l-5 -250
c0 -8.66699 -5 -13 -15 -13h-41c-10 0 -15 3.66699 -15 11l21 368c0.666992 5.33301 1.83398 8.66602 3.50098 9.99902s5.16699 2 10.5 2h50c8 0 13 -3 15 -9l60 -166c1.33301 -3.33301 3.33301 -9.83301 6 -19.5s4 -14.834 4 -15.501c3.33301 14 6.66602 25 9.99902 33
l64 168c2 6 7.33301 9 16 9h48c9.33301 0 14.333 -4 15 -12zM284.001 673.002l-12 -37c-2 -7.33301 -7.33301 -11 -16 -11h-78v-316c0 -9.33301 -5 -14 -15 -14h-46c-6.66699 0 -11 1 -13 3s-3 5.66699 -3 11v316h-81c-6 0 -9.83301 1 -11.5 3s-2.5 5.66699 -2.5 11v34
c0 8.66699 4.66699 13 14 13h249c10.667 0 16 -2.66699 16 -8c0 -2 -0.333008 -3.66699 -1 -5z" />
    <glyph glyph-name="radical" unicode="&#x221a;" horiz-adv-x="490" 
d="M88 419h-54c-5.33301 0 -9 1 -11 3s-3 5.66699 -3 11v40c0 5.33301 1 9 3 11s5.66699 3 11 3h108c6.66699 0 10.667 -2.66699 12 -8l102 -376h3l157 592c1.33301 5.33301 4.33301 8 9 8h46c6 0 9 -2.66699 9 -8l-195 -740c-0.666992 -6 -4.66699 -9 -12 -9h-49
c-6 0 -9.66699 3.33301 -11 10z" />
    <glyph glyph-name="infinity" unicode="&#x221e;" horiz-adv-x="840" 
d="M420 339l15.998 16c33.333 33.333 64.333 58 93 74s59.334 24 92.001 24c30 0 56.167 -5.5 78.5 -16.5s39.333 -25 51 -42s20.334 -34.333 26.001 -52s8.5 -34.834 8.5 -51.501c0 -14.667 -2.33301 -30 -7 -46s-12.334 -33.333 -23.001 -52s-27.5 -34 -50.5 -46
s-50.5 -18 -82.5 -18c-36 0 -68 8.5 -96 25.5s-58 41.5 -90 73.5l-16 16l-16 -16c-32 -32 -62 -56.5 -90 -73.5s-60 -25.5 -96 -25.5c-32 0 -59.5 6 -82.5 18s-39.833 27.333 -50.5 46s-18.334 36 -23.001 52s-7 31.333 -7 46c0 16.667 2.83301 33.834 8.5 51.501
s14.334 35 26.001 52s28.667 31 51 42s48.5 16.5 78.5 16.5c32.667 0 63.334 -8 92.001 -24s59.667 -40.667 93 -74zM464.998 291l27 -25.001c43.333 -41.333 85.666 -62 126.999 -62c24 0 45.667 7.83301 65 23.5s29 37.167 29 64.5c0 24.667 -8.66699 45.334 -26 62.001
s-40 25 -68 25c-43.333 0 -85.666 -20.667 -126.999 -62zM375.998 290.999l-27 26.001c-41.333 41.333 -83.666 62 -126.999 62c-28 0 -50.667 -8.33301 -68 -25s-26 -37.334 -26 -62.001c0 -27.333 9.66699 -48.833 29 -64.5s41 -23.5 65 -23.5
c41.333 0 83.666 20.667 126.999 62z" />
    <glyph glyph-name="approxequal" unicode="&#x2248;" horiz-adv-x="573" 
d="M526 448c-36 -72 -84.6689 -108 -146.002 -108c-22.667 0 -53.667 8 -93 24l-54 22c-22 9.33301 -40.333 14 -55 14c-16 0 -29.667 -4.16699 -41 -12.5s-23 -22.5 -35 -42.5c-4 -6.66699 -7.66699 -10 -11 -10c-4 0 -8 1.66699 -12 5l-29 19c-6 3.33301 -9 7 -9 11
c0 2.66699 1.33301 6.66699 4 12c20 42 40.333 71.5 61 88.5s47 25.5 79 25.5c23.333 0 60.666 -10.667 111.999 -32c32 -13.333 52.667 -21.5 62 -24.5s20 -4.5 32 -4.5c32.667 0 58.334 16 77.001 48c4.66699 7.33301 8.33398 11 11.001 11s6.33398 -1.33301 11.001 -4
l32 -19c6.66699 -4 10 -7.33301 10 -10c0 -0.666992 -2 -5 -6 -13zM525.998 273c-36 -72 -84.6689 -108 -146.002 -108c-22.667 0 -53.667 8 -93 24l-54 22c-22 9.33301 -40.333 14 -55 14c-16 0 -29.667 -4.16699 -41 -12.5s-23 -22.5 -35 -42.5
c-4 -6.66699 -7.66699 -10 -11 -10c-4 0 -8 1.66699 -12 5l-29 19c-6 3.33301 -9 7 -9 11c0 2.66699 1.33301 6.66699 4 12c20 42 40.333 71.5 61 88.5s47 25.5 79 25.5c23.333 0 60.666 -10.667 111.999 -32c32 -13.333 52.667 -21.5 62 -24.5s20 -4.5 32 -4.5
c32.667 0 58.334 16 77.001 48c4.66699 7.33301 8.33398 11 11.001 11s6.33398 -1.33301 11.001 -4l32 -19c6.66699 -4 10 -7.33301 10 -10c0 -0.666992 -2 -5 -6 -13z" />
    <glyph glyph-name="notequal" unicode="&#x2260;" horiz-adv-x="530" 
d="M492 449l0.00195312 -64c0 -7.33301 -3.66699 -11 -11 -11h-154l-40 -62h196c6 0 9 -3.33301 9 -10v-66c0 -6.66699 -3 -10 -9 -10h-250l-61 -96c-2.66699 -2.66699 -5.33398 -4 -8.00098 -4s-4.66699 0.666992 -6 2l-44 28c-2 1.33301 -3 3.33301 -3 6
c0 2 0.666992 4.33301 2 7l37 57h-101c-7.33301 0 -11 3.66699 -11 11v63c0 8 3.66699 12 11 12h155l40 62h-196c-6.66699 0 -10 3.66699 -10 11v63c0 8 3.66699 12 11 12h249l61 96c2 3.33301 4.66699 5 8 5c1.33301 0 2.66602 -0.333008 3.99902 -1l45 -29
c2.66699 -2 4 -4 4 -6c0 -3.33301 -1 -6 -3 -8l-36 -57h100c7.33301 0 11 -3.66699 11 -11z" />
    <glyph glyph-name="lessequal" unicode="&#x2264;" 
d="M38 364v60.999c0 8.66699 4.33301 15.334 13 20.001l421 204l6 2c4 0 6 -2 6 -6v-80c0 -5.33301 -4 -10 -12 -14l-328 -155l330 -154c6.66699 -4 10 -8 10 -12v-80c0 -4.66699 -2.33301 -7 -7 -7c-2 0 -3.66699 0.333008 -5 1l-426 206c-5.33301 3.33301 -8 8 -8 14z
M38 214.999v67c0 8 3.66699 12 11 12c1.33301 0 3.33301 -0.666992 6 -2l424 -205c3.33301 -2 5 -5 5 -9v-69c0 -7.33301 -3.66699 -11 -11 -11c-0.666992 0 -3 0.666992 -7 2l-417 201c-7.33301 3.33301 -11 8 -11 14z" />
    <glyph glyph-name="greaterequal" unicode="&#x2265;" 
d="M484 425v-60.999c0 -6 -2.66699 -10.667 -8 -14l-426 -206c-1.33301 -0.666992 -3 -1 -5 -1c-4.66699 0 -7 2.33301 -7 7v80c0 4 3.33301 8 10 12l330 154l-328 155c-8 4 -12 8.66699 -12 14v80c0 4 2 6 6 6l6 -2l421 -204c8.66699 -4.66699 13 -11.334 13 -20.001z
M484 282.001v-67c0 -6 -3.66699 -10.667 -11 -14l-417 -201c-4 -1.33301 -6.33301 -2 -7 -2c-7.33301 0 -11 3.66699 -11 11v69c0 4 1.66699 7 5 9l424 205c2.66699 1.33301 4.66699 2 6 2c7.33301 0 11 -4 11 -12z" />
    <glyph glyph-name="Acute" unicode="&#xf6c9;" horiz-adv-x="513" 
d="M426 832c3.33301 -5.33301 5.00098 -9 5.00098 -11c0 -4 -5 -8 -15 -12l-171 -78c-4.66699 -2 -8.33398 -3 -11.001 -3s-5 2 -7 6l-17 32c-2 4 -3 7 -3 9s3.33301 5.33301 10 10l154 105c4.66699 4 8.66699 6 12 6c2.66699 0 6 -3.66699 10 -11z" />
    <glyph glyph-name="Dieresis" unicode="&#xf6cb;" horiz-adv-x="508" 
d="M409 817c0 -16.667 -5.83301 -31 -17.5 -43s-26.167 -18 -43.5 -18c-16.667 0 -31 6 -43 18s-18 26.333 -18 43c0 17.333 6 32.166 18 44.499s26.333 18.5 43 18.5s31 -6.16699 43 -18.5s18 -27.166 18 -44.499zM222 817c0 -16.667 -6.16699 -31 -18.5 -43
s-26.833 -18 -43.5 -18s-30.834 6 -42.501 18s-17.5 26.333 -17.5 43c0 17.333 5.83301 32.166 17.5 44.499s25.834 18.5 42.501 18.5s31.167 -6.16699 43.5 -18.5s18.5 -27.166 18.5 -44.499z" />
    <glyph glyph-name="cyrBreve" unicode="&#xf6d1;" horiz-adv-x="547" 
d="M205 863l2.00195 -8.99805c8 -39.333 31.333 -59 70 -59c16 0 29.667 5.66699 41 17s18.666 25 21.999 41l2 10c1.33301 6 4.66602 9 9.99902 9h2l64 -7c6.66699 -0.666992 10 -5.33398 10 -14.001c0 -40 -16.333 -71.167 -49 -93.5s-66 -33.5 -100 -33.5
c-50 0 -89.167 13.167 -117.5 39.5s-42.5 55.166 -42.5 86.499c0 9.33301 3.33301 14.333 10 15l67 7c4.66699 0 7.66699 -3 9 -9z" />
    <glyph glyph-name="cyrbreve" unicode="&#xf6d4;" horiz-adv-x="517" 
d="M328 702l61 -8c6 -0.666992 9 -4.66699 9 -12c0 -38 -14.833 -67.833 -44.5 -89.5s-61.167 -32.5 -94.5 -32.5c-18 0 -35.167 2.16699 -51.5 6.5s-33.333 15 -51 32s-29.5 39.833 -35.5 68.5l-2 14c0 7.33301 3.33301 11.666 10 12.999l60 8
c4.66699 0 7.66699 -3.33301 9 -10l2 -8c10 -36 29.667 -54 59 -54c15.333 0 28 4.83301 38 14.5s16.667 21.834 20 36.501l3 14c1.33301 4.66699 4 7 8 7z" />
    <glyph glyph-name=".null" horiz-adv-x="0" 
 />
    <glyph glyph-name="nonmarkingreturn" horiz-adv-x="333" 
 />
    <glyph glyph-name="nbspace" horiz-adv-x="233" 
 />
    </font>
</defs>
</svg>
